# Blender 5.0.1
# www.blender.org
mtllib water_plane.mtl
o Plane
v 0.000009 0.000000 2.500000
v -2.500000 0.000000 -0.000009
v -0.326308 0.000000 2.478612
v -0.647041 0.000000 2.414814
v -0.956703 0.000000 2.309698
v -1.249995 0.000000 2.165062
v -1.521900 0.000000 1.983381
v -1.767764 0.000000 1.767764
v -1.983381 0.000000 1.521900
v -2.165062 0.000000 1.249995
v -2.309698 0.000000 0.956703
v -2.414814 0.000000 0.647041
v -2.478612 0.000000 0.326308
v 2.500000 0.000000 -0.000009
v -0.000009 0.000000 2.500000
v 2.478612 0.000000 0.326308
v 2.414814 0.000000 0.647041
v 2.309698 0.000000 0.956703
v 2.165062 0.000000 1.249995
v 1.983381 0.000000 1.521900
v 1.767764 0.000000 1.767764
v 1.521900 0.000000 1.983381
v 1.249995 0.000000 2.165062
v 0.956703 0.000000 2.309698
v 0.647041 0.000000 2.414814
v 0.326308 0.000000 2.478612
v 0.000009 0.000000 -2.500000
v -2.500000 0.000000 0.000009
v -0.326308 0.000000 -2.478612
v -0.647041 0.000000 -2.414814
v -0.956703 0.000000 -2.309698
v -1.249995 0.000000 -2.165062
v -1.521900 0.000000 -1.983381
v -1.767764 0.000000 -1.767764
v -1.983381 0.000000 -1.521900
v -2.165062 0.000000 -1.249995
v -2.309698 0.000000 -0.956703
v -2.414814 0.000000 -0.647041
v -2.478612 0.000000 -0.326308
v -0.000009 0.000000 -2.500000
v 2.500000 0.000000 0.000009
v 0.326308 0.000000 -2.478612
v 0.647041 0.000000 -2.414814
v 0.956703 0.000000 -2.309698
v 1.249995 0.000000 -2.165062
v 1.521900 0.000000 -1.983381
v 1.767764 0.000000 -1.767764
v 1.983381 0.000000 -1.521900
v 2.165062 0.000000 -1.249995
v 2.309698 0.000000 -0.956703
v 2.414814 0.000000 -0.647041
v 2.478612 0.000000 -0.326308
v 0.000009 -0.030000 2.500000
v -2.500000 -0.030000 -0.000009
v -0.326308 -0.030000 2.478612
v -0.647041 -0.030000 2.414814
v -0.956703 -0.030000 2.309698
v -1.249995 -0.030000 2.165062
v -1.521900 -0.030000 1.983381
v -1.767764 -0.030000 1.767764
v -1.983381 -0.030000 1.521900
v -2.165062 -0.030000 1.249995
v -2.309698 -0.030000 0.956703
v -2.414814 -0.030000 0.647041
v -2.478612 -0.030000 0.326308
v 2.500000 -0.030000 -0.000009
v -0.000009 -0.030000 2.500000
v 2.478612 -0.030000 0.326308
v 2.414814 -0.030000 0.647041
v 2.309698 -0.030000 0.956703
v 2.165062 -0.030000 1.249995
v 1.983381 -0.030000 1.521900
v 1.767764 -0.030000 1.767764
v 1.521900 -0.030000 1.983381
v 1.249995 -0.030000 2.165062
v 0.956703 -0.030000 2.309698
v 0.647041 -0.030000 2.414814
v 0.326308 -0.030000 2.478612
v 0.000009 -0.030000 -2.500000
v -2.500000 -0.030000 0.000009
v -0.326308 -0.030000 -2.478612
v -0.647041 -0.030000 -2.414814
v -0.956703 -0.030000 -2.309698
v -1.249995 -0.030000 -2.165062
v -1.521900 -0.030000 -1.983381
v -1.767764 -0.030000 -1.767764
v -1.983381 -0.030000 -1.521900
v -2.165062 -0.030000 -1.249995
v -2.309698 -0.030000 -0.956703
v -2.414814 -0.030000 -0.647041
v -2.478612 -0.030000 -0.326308
v -0.000009 -0.030000 -2.500000
v 2.500000 -0.030000 0.000009
v 0.326308 -0.030000 -2.478612
v 0.647041 -0.030000 -2.414814
v 0.956703 -0.030000 -2.309698
v 1.249995 -0.030000 -2.165062
v 1.521900 -0.030000 -1.983381
v 1.767764 -0.030000 -1.767764
v 1.983381 -0.030000 -1.521900
v 2.165062 -0.030000 -1.249995
v 2.309698 -0.030000 -0.956703
v 2.414814 -0.030000 -0.647041
v 2.478612 -0.030000 -0.326308
vn -0.0000 -1.0000 -0.0000
vn -0.0000 1.0000 -0.0000
vn 1.0000 -0.0000 -0.0000
vn -0.9979 -0.0000 0.0654
vn -0.9808 -0.0000 0.1951
vn -0.9469 -0.0000 0.3214
vn -0.8969 -0.0000 0.4423
vn -0.8315 -0.0000 0.5556
vn -0.7518 -0.0000 0.6593
vn -0.6593 -0.0000 0.7518
vn -0.5556 -0.0000 0.8315
vn -0.4423 -0.0000 0.8969
vn -0.3214 -0.0000 0.9469
vn -0.1951 -0.0000 0.9808
vn -0.0654 -0.0000 0.9979
vn -0.0000 -0.0000 -1.0000
vn 0.0654 -0.0000 0.9979
vn 0.1951 -0.0000 0.9808
vn 0.3214 -0.0000 0.9469
vn 0.4423 -0.0000 0.8969
vn 0.5556 -0.0000 0.8315
vn 0.6593 -0.0000 0.7518
vn 0.7518 -0.0000 0.6593
vn 0.8315 -0.0000 0.5556
vn 0.8969 -0.0000 0.4423
vn 0.9469 -0.0000 0.3214
vn 0.9808 -0.0000 0.1951
vn 0.9979 -0.0000 0.0654
vn -1.0000 -0.0000 -0.0000
vn 0.9979 -0.0000 -0.0654
vn 0.9808 -0.0000 -0.1951
vn 0.9469 -0.0000 -0.3214
vn 0.8969 -0.0000 -0.4423
vn 0.8315 -0.0000 -0.5556
vn 0.7518 -0.0000 -0.6593
vn 0.6593 -0.0000 -0.7518
vn 0.5556 -0.0000 -0.8315
vn 0.4423 -0.0000 -0.8969
vn 0.3214 -0.0000 -0.9469
vn 0.1951 -0.0000 -0.9808
vn 0.0654 -0.0000 -0.9979
vn -0.0000 -0.0000 1.0000
vn -0.0654 -0.0000 -0.9979
vn -0.1951 -0.0000 -0.9808
vn -0.3214 -0.0000 -0.9469
vn -0.4423 -0.0000 -0.8969
vn -0.5556 -0.0000 -0.8315
vn -0.6593 -0.0000 -0.7518
vn -0.7518 -0.0000 -0.6593
vn -0.8315 -0.0000 -0.5556
vn -0.8969 -0.0000 -0.4423
vn -0.9469 -0.0000 -0.3214
vn -0.9808 -0.0000 -0.1951
vn -0.9979 -0.0000 -0.0654
vt 0.500004 -0.535864
vt 0.499996 1.535864
vt 0.500004 1.535864
vt 0.499996 -0.535864
vt -0.535864 0.499996
vt -0.535864 0.500004
vt -0.527002 0.364796
vt -0.500568 0.231901
vt -0.457014 0.103594
vt -0.397084 -0.017930
vt -0.321806 -0.130593
vt -0.232466 -0.232466
vt -0.130593 -0.321806
vt -0.017930 -0.397084
vt 0.103594 -0.457014
vt 0.231901 -0.500568
vt 0.364796 -0.527002
vt 0.635204 -0.527002
vt 0.768099 -0.500568
vt 0.896406 -0.457014
vt 1.017930 -0.397084
vt 1.130593 -0.321806
vt 1.232466 -0.232466
vt 1.321806 -0.130593
vt 1.397085 -0.017930
vt 1.457014 0.103594
vt 1.500568 0.231901
vt 1.527002 0.364796
vt 1.535864 0.500004
vt 1.535864 0.499996
vt 1.527002 0.635204
vt 1.500568 0.768099
vt 1.457014 0.896406
vt 1.397084 1.017930
vt 1.321806 1.130593
vt 1.232466 1.232466
vt 1.130593 1.321806
vt 1.017930 1.397085
vt 0.896406 1.457014
vt 0.768099 1.500568
vt 0.635204 1.527002
vt 0.364796 1.527002
vt 0.231901 1.500568
vt 0.103594 1.457014
vt -0.017930 1.397084
vt -0.130593 1.321805
vt -0.232466 1.232466
vt -0.321806 1.130593
vt -0.397084 1.017930
vt -0.457014 0.896406
vt -0.500568 0.768099
vt -0.527002 0.635204
s 0
usemtl Material
f 1/1/1 40/2/1 27/3/1
f 79/3/2 67/4/2 53/1/2
f 28/5/3 54/6/3 2/6/3
f 2/6/4 65/7/4 13/7/4
f 13/7/5 64/8/5 12/8/5
f 12/8/6 63/9/6 11/9/6
f 11/9/7 62/10/7 10/10/7
f 10/10/8 61/11/8 9/11/8
f 9/11/9 60/12/9 8/12/9
f 8/12/10 59/13/10 7/13/10
f 7/13/11 58/14/11 6/14/11
f 6/14/12 57/15/12 5/15/12
f 5/15/13 56/16/13 4/16/13
f 4/16/14 55/17/14 3/17/14
f 3/17/15 53/1/15 1/1/15
f 1/1/16 67/4/16 15/4/16
f 15/4/17 78/18/17 26/18/17
f 26/18/18 77/19/18 25/19/18
f 25/19/19 76/20/19 24/20/19
f 24/20/20 75/21/20 23/21/20
f 23/21/21 74/22/21 22/22/21
f 22/22/22 73/23/22 21/23/22
f 21/23/23 72/24/23 20/24/23
f 20/24/24 71/25/24 19/25/24
f 19/25/25 70/26/25 18/26/25
f 18/26/26 69/27/26 17/27/26
f 17/27/27 68/28/27 16/28/27
f 16/28/28 66/29/28 14/29/28
f 14/29/29 93/30/29 41/30/29
f 41/30/30 104/31/30 52/31/30
f 52/31/31 103/32/31 51/32/31
f 51/32/32 102/33/32 50/33/32
f 50/33/33 101/34/33 49/34/33
f 49/34/34 100/35/34 48/35/34
f 48/35/35 99/36/35 47/36/35
f 47/36/36 98/37/36 46/37/36
f 46/37/37 97/38/37 45/38/37
f 45/38/38 96/39/38 44/39/38
f 44/39/39 95/40/39 43/40/39
f 43/40/40 94/41/40 42/41/40
f 42/41/41 92/2/41 40/2/41
f 40/2/42 79/3/42 27/3/42
f 27/3/43 81/42/43 29/42/43
f 29/42/44 82/43/44 30/43/44
f 30/43/45 83/44/45 31/44/45
f 31/44/46 84/45/46 32/45/46
f 32/45/47 85/46/47 33/46/47
f 33/46/48 86/47/48 34/47/48
f 34/47/49 87/48/49 35/48/49
f 35/48/50 88/49/50 36/49/50
f 36/49/51 89/50/51 37/50/51
f 37/50/52 90/51/52 38/51/52
f 38/51/53 91/52/53 39/52/53
f 39/52/54 80/5/54 28/5/54
f 2/6/2 13/7/2 12/8/2
f 12/8/2 11/9/2 10/10/2
f 10/10/2 9/11/2 8/12/2
f 8/12/2 7/13/2 6/14/2
f 6/14/2 5/15/2 4/16/2
f 4/16/2 3/17/2 1/1/2
f 15/4/2 26/18/2 25/19/2
f 6/14/2 4/16/2 1/1/2
f 15/4/2 25/19/2 24/20/2
f 8/12/2 6/14/2 1/1/2
f 15/4/2 24/20/2 23/21/2
f 10/10/2 8/12/2 1/1/2
f 15/4/2 23/21/2 22/22/2
f 12/8/2 10/10/2 1/1/2
f 15/4/2 22/22/2 21/23/2
f 2/6/2 12/8/2 1/1/2
f 15/4/2 21/23/2 20/24/2
f 15/4/2 20/24/2 19/25/2
f 19/25/2 18/26/2 17/27/2
f 17/27/2 16/28/2 14/29/2
f 41/30/2 52/31/2 51/32/2
f 19/25/2 17/27/2 14/29/2
f 41/30/2 51/32/2 50/33/2
f 15/4/2 19/25/2 14/29/2
f 41/30/2 50/33/2 49/34/2
f 41/30/2 49/34/2 48/35/2
f 48/35/2 47/36/2 46/37/2
f 46/37/2 45/38/2 44/39/2
f 44/39/2 43/40/2 42/41/2
f 44/39/2 42/41/2 40/2/2
f 48/35/2 46/37/2 44/39/2
f 41/30/2 48/35/2 44/39/2
f 41/30/2 44/39/2 40/2/2
f 27/3/2 29/42/2 30/43/2
f 30/43/2 31/44/2 32/45/2
f 32/45/2 33/46/2 34/47/2
f 34/47/2 35/48/2 36/49/2
f 36/49/2 37/50/2 38/51/2
f 38/51/2 39/52/2 28/5/2
f 36/49/2 38/51/2 28/5/2
f 32/45/2 34/47/2 36/49/2
f 27/3/2 30/43/2 32/45/2
f 27/3/2 32/45/2 36/49/2
f 27/3/2 36/49/2 28/5/2
f 14/29/1 41/30/1 40/2/1
f 15/4/2 14/29/2 40/2/2
f 28/5/1 2/6/1 1/1/1
f 27/3/2 28/5/2 1/1/2
f 1/1/1 15/4/1 40/2/1
f 80/5/1 91/52/1 90/51/1
f 90/51/1 89/50/1 88/49/1
f 88/49/1 87/48/1 86/47/1
f 86/47/1 85/46/1 84/45/1
f 84/45/1 83/44/1 82/43/1
f 82/43/1 81/42/1 79/3/1
f 92/2/1 94/41/1 95/40/1
f 84/45/1 82/43/1 79/3/1
f 92/2/1 95/40/1 96/39/1
f 86/47/1 84/45/1 79/3/1
f 92/2/1 96/39/1 97/38/1
f 88/49/1 86/47/1 79/3/1
f 92/2/1 97/38/1 98/37/1
f 90/51/1 88/49/1 79/3/1
f 92/2/1 98/37/1 99/36/1
f 80/5/1 90/51/1 79/3/1
f 92/2/1 99/36/1 100/35/1
f 92/2/1 100/35/1 101/34/1
f 101/34/1 102/33/1 103/32/1
f 103/32/1 104/31/1 93/30/1
f 66/29/1 68/28/1 69/27/1
f 101/34/1 103/32/1 93/30/1
f 66/29/1 69/27/1 70/26/1
f 92/2/1 101/34/1 93/30/1
f 66/29/1 70/26/1 71/25/1
f 66/29/1 71/25/1 72/24/1
f 72/24/1 73/23/1 74/22/1
f 74/22/1 75/21/1 76/20/1
f 76/20/1 77/19/1 78/18/1
f 76/20/1 78/18/1 67/4/1
f 72/24/1 74/22/1 76/20/1
f 66/29/1 72/24/1 76/20/1
f 66/29/1 76/20/1 67/4/1
f 53/1/1 55/17/1 56/16/1
f 56/16/1 57/15/1 58/14/1
f 58/14/1 59/13/1 60/12/1
f 60/12/1 61/11/1 62/10/1
f 62/10/1 63/9/1 64/8/1
f 64/8/1 65/7/1 54/6/1
f 62/10/1 64/8/1 54/6/1
f 58/14/1 60/12/1 62/10/1
f 53/1/1 56/16/1 58/14/1
f 53/1/1 58/14/1 62/10/1
f 53/1/1 62/10/1 54/6/1
f 93/30/2 66/29/2 67/4/2
f 92/2/1 93/30/1 67/4/1
f 54/6/2 80/5/2 79/3/2
f 53/1/1 54/6/1 79/3/1
f 79/3/2 92/2/2 67/4/2
f 28/5/3 80/5/3 54/6/3
f 2/6/4 54/6/4 65/7/4
f 13/7/5 65/7/5 64/8/5
f 12/8/6 64/8/6 63/9/6
f 11/9/7 63/9/7 62/10/7
f 10/10/8 62/10/8 61/11/8
f 9/11/9 61/11/9 60/12/9
f 8/12/10 60/12/10 59/13/10
f 7/13/11 59/13/11 58/14/11
f 6/14/12 58/14/12 57/15/12
f 5/15/13 57/15/13 56/16/13
f 4/16/14 56/16/14 55/17/14
f 3/17/15 55/17/15 53/1/15
f 1/1/16 53/1/16 67/4/16
f 15/4/17 67/4/17 78/18/17
f 26/18/18 78/18/18 77/19/18
f 25/19/19 77/19/19 76/20/19
f 24/20/20 76/20/20 75/21/20
f 23/21/21 75/21/21 74/22/21
f 22/22/22 74/22/22 73/23/22
f 21/23/23 73/23/23 72/24/23
f 20/24/24 72/24/24 71/25/24
f 19/25/25 71/25/25 70/26/25
f 18/26/26 70/26/26 69/27/26
f 17/27/27 69/27/27 68/28/27
f 16/28/28 68/28/28 66/29/28
f 14/29/29 66/29/29 93/30/29
f 41/30/30 93/30/30 104/31/30
f 52/31/31 104/31/31 103/32/31
f 51/32/32 103/32/32 102/33/32
f 50/33/33 102/33/33 101/34/33
f 49/34/34 101/34/34 100/35/34
f 48/35/35 100/35/35 99/36/35
f 47/36/36 99/36/36 98/37/36
f 46/37/37 98/37/37 97/38/37
f 45/38/38 97/38/38 96/39/38
f 44/39/39 96/39/39 95/40/39
f 43/40/40 95/40/40 94/41/40
f 42/41/41 94/41/41 92/2/41
f 40/2/42 92/2/42 79/3/42
f 27/3/43 79/3/43 81/42/43
f 29/42/44 81/42/44 82/43/44
f 30/43/45 82/43/45 83/44/45
f 31/44/46 83/44/46 84/45/46
f 32/45/47 84/45/47 85/46/47
f 33/46/48 85/46/48 86/47/48
f 34/47/49 86/47/49 87/48/49
f 35/48/50 87/48/50 88/49/50
f 36/49/51 88/49/51 89/50/51
f 37/50/52 89/50/52 90/51/52
f 38/51/53 90/51/53 91/52/53
f 39/52/54 91/52/54 80/5/54
