# Blender 5.0.1
# www.blender.org
mtllib hanging_sign.mtl
o Plane
v -1.027516 0.991854 0.008865
v -1.027516 0.958751 0.008865
v 0.949392 1.000000 -0.000000
v 0.950000 0.950000 -0.000000
v -0.783333 1.000000 -0.000000
v -0.783333 0.950000 -0.000000
v 0.988768 1.405457 0.012296
v 0.961232 1.405457 0.012296
v 1.000000 0.815256 -0.000000
v 0.950000 0.815256 -0.000000
v -0.783333 1.000000 0.054735
v -1.026319 0.993039 0.043602
v -1.026319 0.959936 0.043602
v 1.000000 0.815256 0.054735
v -0.783333 0.950000 0.054735
v 0.949392 1.000000 0.054735
v 0.950000 0.950000 0.054735
v 0.950000 0.815256 0.054735
v 0.988768 1.405457 0.042439
v 0.961232 1.405457 0.042439
v -0.894239 1.017069 -0.018577
v -0.894239 0.931663 -0.018577
v -0.891150 1.020127 0.071044
v -0.891150 0.934721 0.071044
v 0.945798 1.315306 -0.004600
v 1.004202 1.315306 -0.004600
v 0.945798 1.315306 0.059334
v 1.004202 1.315306 0.059334
v 0.951424 1.246141 0.001558
v 0.951424 1.246141 0.053176
v 0.998576 1.246141 0.001558
v 0.998576 1.246141 0.053176
v 0.951093 1.188941 0.001196
v 0.951093 1.188941 0.053538
v 0.998907 1.188941 0.001196
v 0.998907 1.188941 0.053538
v 0.949532 1.024256 0.000154
v 0.949532 1.024256 0.054581
v 0.999860 1.024256 0.000154
v 0.999860 1.024256 0.054581
v 0.966076 1.079151 0.000501
v 0.999542 1.079151 0.000501
v 0.999225 1.134046 0.053886
v 0.966191 1.134046 0.000849
v 0.999542 1.079151 0.054234
v 0.999225 1.134046 0.000849
v 0.966306 1.188941 0.053538
v 0.966306 1.188941 0.001196
v 0.965960 1.024256 0.000154
v 0.965960 1.024256 0.054581
v 0.999860 1.024566 0.100521
v 0.998907 1.189251 0.099479
v 0.999225 1.134356 0.081887
v 0.999542 1.079461 0.082235
v 0.999860 1.024557 -0.047354
v 0.998907 1.189241 -0.046311
v 0.966191 1.134046 0.053886
v 0.966076 1.079151 0.054234
v 0.999542 1.079452 -0.034838
v 0.999225 1.134346 -0.034491
v -0.224173 1.138539 0.002529
v 0.845869 1.193558 0.002529
v -0.224173 1.138538 0.048038
v 0.845869 1.193558 0.048038
v -0.225031 1.145729 0.048038
v -0.225031 1.145729 0.002529
v 0.845011 1.200749 0.002529
v 0.845011 1.200749 0.048038
v -0.209177 1.218413 0.002529
v -0.263844 1.284407 0.002529
v -0.360653 1.305110 0.002529
v -0.444800 1.284276 0.002529
v -0.516668 1.231867 0.002529
v -0.527672 1.138744 0.002529
v -0.494440 1.059103 0.002529
v -0.379495 0.999880 0.002529
v 0.929751 1.156039 0.002529
v 0.948833 1.194972 0.002529
v 0.918917 1.236033 0.002529
v 0.875498 1.234893 0.002529
v 0.875498 1.234893 0.048038
v 0.918917 1.236033 0.048038
v 0.948833 1.194972 0.048038
v 0.929751 1.156039 0.048038
v -0.379495 0.999880 0.048038
v -0.494440 1.059103 0.048038
v -0.527672 1.138744 0.048038
v -0.516668 1.231867 0.048038
v -0.444801 1.284276 0.048038
v -0.360654 1.305110 0.048038
v -0.263844 1.284407 0.048038
v -0.209177 1.218413 0.048038
v -0.210035 1.225604 0.002529
v -0.264702 1.291598 0.002529
v -0.361511 1.312301 0.002529
v -0.445658 1.291467 0.002529
v -0.517525 1.239058 0.002529
v -0.528529 1.145935 0.002529
v -0.495297 1.066293 0.002529
v -0.380352 1.007071 0.002529
v 0.928894 1.163230 0.002529
v 0.947975 1.202163 0.002529
v 0.918059 1.243224 0.002529
v 0.874640 1.242084 0.002529
v 0.874640 1.242084 0.048038
v 0.918059 1.243224 0.048038
v 0.947975 1.202163 0.048038
v 0.928893 1.163229 0.048038
v -0.380353 1.007071 0.048038
v -0.495297 1.066293 0.048038
v -0.528530 1.145935 0.048038
v -0.517526 1.239058 0.048038
v -0.445658 1.291467 0.048038
v -0.361511 1.312301 0.048038
v -0.264702 1.291598 0.048038
v -0.210035 1.225604 0.048038
v 0.390578 0.968272 0.027455
v 0.377443 0.968272 0.045533
v 0.356191 0.968272 0.038628
v 0.356191 0.968272 0.016282
v 0.377443 0.968272 0.009376
v 0.200493 0.968272 0.027455
v 0.213627 0.968272 0.045533
v 0.234879 0.968272 0.038628
v 0.234879 0.968272 0.016282
v 0.213627 0.968272 0.009376
v 0.248014 0.848420 0.027455
v 0.254581 0.859795 0.045533
v 0.265207 0.878200 0.038628
v 0.265207 0.878200 0.016282
v 0.254581 0.859795 0.009376
v 0.343057 0.848420 0.027455
v 0.336489 0.859795 0.045533
v 0.325863 0.878200 0.038628
v 0.325863 0.878200 0.016282
v 0.336489 0.859795 0.009376
v -0.236931 0.965805 0.027898
v -0.250065 0.965805 0.045976
v -0.271318 0.965805 0.039071
v -0.271318 0.965805 0.016725
v -0.250065 0.965805 0.009819
v -0.427016 0.965805 0.027898
v -0.413882 0.965805 0.045976
v -0.392630 0.965805 0.039071
v -0.392630 0.965805 0.016725
v -0.413882 0.965805 0.009819
v -0.379495 0.845953 0.027898
v -0.372928 0.857328 0.045976
v -0.362301 0.875733 0.039071
v -0.362301 0.875733 0.016725
v -0.372928 0.857328 0.009819
v -0.284452 0.845953 0.027898
v -0.291019 0.857328 0.045976
v -0.301646 0.875733 0.039071
v -0.301646 0.875733 0.016725
v -0.291019 0.857328 0.009819
v -0.333431 0.930198 0.022154
v -0.315094 0.916875 0.022154
v -0.322098 0.895318 0.022154
v -0.344764 0.895318 0.022154
v -0.351769 0.916875 0.022154
v -0.333431 0.881995 0.105643
v -0.315094 0.875334 0.094105
v -0.322098 0.864556 0.075436
v -0.344764 0.864556 0.075436
v -0.351769 0.875334 0.094105
v -0.333431 0.738185 0.105643
v -0.315094 0.744846 0.094105
v -0.322098 0.755624 0.075436
v -0.344764 0.755624 0.075436
v -0.351769 0.744846 0.094105
v -0.333431 0.689982 0.022154
v -0.315094 0.703305 0.022154
v -0.322098 0.724862 0.022154
v -0.344764 0.724862 0.022154
v -0.351769 0.703305 0.022154
v -0.333431 0.738185 -0.061335
v -0.315094 0.744846 -0.049797
v -0.322098 0.755624 -0.031129
v -0.344764 0.755624 -0.031129
v -0.351769 0.744846 -0.049797
v -0.333431 0.881995 -0.061335
v -0.315094 0.875334 -0.049797
v -0.322098 0.864556 -0.031129
v -0.344764 0.864556 -0.031129
v -0.351769 0.875334 -0.049797
v -0.333431 0.793265 0.022154
v -0.333431 0.779942 0.003816
v -0.333431 0.758386 0.010821
v -0.333431 0.758386 0.033487
v -0.333431 0.779942 0.040491
v -0.249943 0.745063 0.022154
v -0.261480 0.738402 0.003816
v -0.280149 0.727623 0.010821
v -0.280149 0.727623 0.033487
v -0.261480 0.738402 0.040491
v -0.249943 0.601252 0.022154
v -0.261480 0.607914 0.003816
v -0.280149 0.618692 0.010821
v -0.280149 0.618692 0.033487
v -0.261480 0.607914 0.040491
v -0.333431 0.553050 0.022154
v -0.333431 0.566373 0.003816
v -0.333431 0.587929 0.010821
v -0.333431 0.587929 0.033487
v -0.333431 0.566373 0.040491
v -0.416920 0.601252 0.022154
v -0.405382 0.607914 0.003816
v -0.386714 0.618692 0.010821
v -0.386714 0.618692 0.033487
v -0.405382 0.607914 0.040491
v -0.416920 0.745063 0.022154
v -0.405382 0.738402 0.003817
v -0.386714 0.727623 0.010821
v -0.386714 0.727623 0.033487
v -0.405382 0.738402 0.040491
v -0.333431 0.655150 0.022154
v -0.351769 0.641827 0.022154
v -0.344764 0.620270 0.022154
v -0.322098 0.620270 0.022154
v -0.315094 0.641827 0.022154
v -0.333431 0.606947 -0.061335
v -0.351769 0.600286 -0.049797
v -0.344764 0.589507 -0.031128
v -0.322098 0.589507 -0.031128
v -0.315094 0.600286 -0.049797
v -0.333431 0.463136 -0.061335
v -0.351769 0.469798 -0.049797
v -0.344764 0.480576 -0.031128
v -0.322098 0.480576 -0.031128
v -0.315094 0.469798 -0.049797
v -0.333431 0.414934 0.022154
v -0.351769 0.428257 0.022154
v -0.344764 0.449814 0.022154
v -0.322098 0.449814 0.022154
v -0.315094 0.428257 0.022154
v -0.333431 0.463136 0.105643
v -0.351769 0.469798 0.094105
v -0.344764 0.480576 0.075436
v -0.322098 0.480576 0.075436
v -0.315094 0.469798 0.094105
v -0.333431 0.606947 0.105643
v -0.351769 0.600286 0.094105
v -0.344764 0.589507 0.075436
v -0.322098 0.589507 0.075436
v -0.315094 0.600286 0.094105
v 0.291887 0.930198 0.022154
v 0.310224 0.916875 0.022154
v 0.303220 0.895318 0.022154
v 0.280554 0.895318 0.022154
v 0.273550 0.916875 0.022154
v 0.291887 0.881995 0.105643
v 0.310224 0.875334 0.094105
v 0.303220 0.864556 0.075436
v 0.280554 0.864556 0.075436
v 0.273550 0.875334 0.094105
v 0.291887 0.738185 0.105643
v 0.310224 0.744846 0.094105
v 0.303220 0.755624 0.075436
v 0.280554 0.755624 0.075436
v 0.273550 0.744846 0.094105
v 0.291887 0.689982 0.022154
v 0.310224 0.703305 0.022154
v 0.303220 0.724862 0.022154
v 0.280554 0.724862 0.022154
v 0.273550 0.703305 0.022154
v 0.291887 0.738185 -0.061335
v 0.310224 0.744846 -0.049797
v 0.303220 0.755624 -0.031129
v 0.280554 0.755624 -0.031129
v 0.273550 0.744846 -0.049797
v 0.291887 0.881995 -0.061335
v 0.310224 0.875334 -0.049797
v 0.303220 0.864556 -0.031129
v 0.280554 0.864556 -0.031129
v 0.273550 0.875334 -0.049797
v 0.291887 0.793265 0.022154
v 0.291887 0.779942 0.003816
v 0.291887 0.758386 0.010821
v 0.291887 0.758386 0.033487
v 0.291887 0.779942 0.040491
v 0.375376 0.745063 0.022154
v 0.363838 0.738402 0.003816
v 0.345169 0.727623 0.010821
v 0.345169 0.727623 0.033487
v 0.363838 0.738402 0.040491
v 0.375376 0.601252 0.022154
v 0.363838 0.607914 0.003816
v 0.345169 0.618692 0.010821
v 0.345169 0.618692 0.033487
v 0.363838 0.607914 0.040491
v 0.291887 0.553050 0.022154
v 0.291887 0.566373 0.003816
v 0.291887 0.587929 0.010821
v 0.291887 0.587929 0.033487
v 0.291887 0.566373 0.040491
v 0.208398 0.601252 0.022154
v 0.219936 0.607914 0.003816
v 0.238605 0.618692 0.010821
v 0.238605 0.618692 0.033487
v 0.219936 0.607914 0.040491
v 0.208398 0.745063 0.022154
v 0.219936 0.738402 0.003817
v 0.238605 0.727623 0.010821
v 0.238605 0.727623 0.033487
v 0.219936 0.738402 0.040491
v 0.291887 0.655150 0.022154
v 0.273550 0.641827 0.022154
v 0.280554 0.620270 0.022154
v 0.303220 0.620270 0.022154
v 0.310224 0.641827 0.022154
v 0.291887 0.606947 -0.061335
v 0.273550 0.600286 -0.049797
v 0.280554 0.589507 -0.031128
v 0.303220 0.589507 -0.031128
v 0.310224 0.600286 -0.049797
v 0.291887 0.463136 -0.061335
v 0.273550 0.469798 -0.049797
v 0.280554 0.480576 -0.031128
v 0.303220 0.480576 -0.031128
v 0.310224 0.469798 -0.049797
v 0.291887 0.414934 0.022154
v 0.273550 0.428257 0.022154
v 0.280554 0.449814 0.022154
v 0.303220 0.449814 0.022154
v 0.310224 0.428257 0.022154
v 0.291887 0.463136 0.105643
v 0.273550 0.469798 0.094105
v 0.280554 0.480576 0.075436
v 0.303220 0.480576 0.075436
v 0.310224 0.469798 0.094105
v 0.291887 0.606947 0.105643
v 0.273550 0.600286 0.094105
v 0.280554 0.589507 0.075436
v 0.303220 0.589507 0.075436
v 0.310224 0.600286 0.094105
v 0.818408 -0.047321 0.144027
v -0.446295 0.314039 0.144027
v -0.851564 -0.046670 0.144027
v 0.158407 0.282080 0.018160
v 0.176099 0.290773 -0.009957
v 0.204724 0.304840 0.000783
v 0.204724 0.304840 0.035537
v 0.176099 0.290773 0.046277
v 0.158407 0.463881 0.018160
v 0.176099 0.455187 -0.009957
v 0.204723 0.441121 0.000783
v 0.204723 0.441121 0.035537
v 0.176099 0.455187 0.046277
v 0.286422 0.526788 0.018160
v 0.286422 0.509401 -0.009957
v 0.286422 0.481268 0.000783
v 0.286422 0.481268 0.035537
v 0.286422 0.509401 0.046277
v 0.414437 0.463881 0.018160
v 0.396745 0.455187 -0.009957
v 0.368120 0.441121 0.000783
v 0.368120 0.441121 0.035537
v 0.396745 0.455187 0.046277
v 0.414437 0.282080 0.018160
v 0.396745 0.290773 -0.009957
v 0.368120 0.304840 0.000783
v 0.368120 0.304840 0.035537
v 0.396745 0.290773 0.046277
v -0.462257 0.284165 0.018358
v -0.444566 0.292858 -0.009759
v -0.415941 0.306925 0.000981
v -0.415941 0.306925 0.035735
v -0.444566 0.292858 0.046475
v -0.462257 0.465966 0.018358
v -0.444566 0.457272 -0.009759
v -0.415941 0.443206 0.000981
v -0.415941 0.443206 0.035735
v -0.444566 0.457272 0.046475
v -0.334243 0.528873 0.018358
v -0.334243 0.511486 -0.009759
v -0.334243 0.483353 0.000981
v -0.334243 0.483353 0.035735
v -0.334243 0.511486 0.046475
v -0.206228 0.465966 0.018358
v -0.223919 0.457272 -0.009759
v -0.252544 0.443206 0.000981
v -0.252544 0.443206 0.035735
v -0.223919 0.457272 0.046475
v -0.206228 0.284165 0.018358
v -0.223919 0.292858 -0.009759
v -0.252544 0.306925 0.000981
v -0.252544 0.306925 0.035735
v -0.223919 0.292858 0.046475
v -0.710834 -0.019718 0.144027
v -0.636338 0.015667 0.144027
v -0.571041 0.063288 0.144027
v -0.827488 -0.568925 0.074027
v -0.827085 -0.066406 0.074027
v 0.792806 -0.568925 0.074027
v 0.796624 -0.066776 0.074027
v 0.394375 0.255097 0.074027
v -0.429058 0.255097 0.074027
v 0.390000 0.294574 0.074027
v -0.454974 0.179175 0.074027
v -0.497059 0.109204 0.074027
v -0.553697 0.047875 0.074027
v -0.622710 -0.002457 0.074027
v -0.701447 -0.039856 0.074027
v -0.786882 -0.062887 0.074027
v 0.519014 0.047875 0.074027
v 0.588028 -0.002457 0.074027
v 0.666764 -0.039857 0.074027
v -0.424682 0.294574 0.074027
v 0.462377 0.109204 0.074027
v 0.420291 0.179175 0.074027
v 0.752199 -0.062887 0.074027
v -0.827488 -0.568925 -0.018329
v 0.792806 -0.568925 -0.018329
v -0.829010 -0.066575 -0.018329
v 0.394375 0.255097 -0.018329
v -0.429058 0.255097 -0.018329
v -0.424682 0.294574 -0.018329
v -0.454974 0.179175 -0.018329
v -0.497059 0.109204 -0.018329
v -0.553697 0.047875 -0.018329
v -0.622710 -0.002457 -0.018329
v -0.701447 -0.039856 -0.018329
v -0.786882 -0.062887 -0.018329
v 0.519014 0.047875 -0.018329
v 0.588028 -0.002457 -0.018329
v 0.666764 -0.039857 -0.018329
v 0.390000 0.294574 -0.018329
v 0.462377 0.109204 -0.018329
v 0.420291 0.179175 -0.018329
v 0.752199 -0.062887 -0.018329
v 0.796624 -0.066776 -0.018329
v -0.477635 0.187516 0.144027
v 0.756984 -0.041509 0.144027
v 0.536359 0.063288 0.144027
v -0.827085 -0.066406 0.144027
v -0.827488 -0.568925 0.144027
v 0.390000 0.294574 0.144027
v 0.394375 0.255097 0.144027
v -0.424682 0.294574 0.144027
v -0.429058 0.255097 0.144027
v -0.454974 0.179175 0.144027
v -0.497059 0.109204 0.144027
v -0.553697 0.047875 0.144027
v -0.622710 -0.002457 0.144027
v -0.701447 -0.039856 0.144027
v -0.786882 -0.062887 0.144027
v -0.875731 -0.070664 0.144027
v 0.519014 0.047875 0.144027
v 0.588028 -0.002457 0.144027
v 0.666764 -0.039857 0.144027
v 0.462377 0.109204 0.144027
v 0.420291 0.179175 0.144027
v 0.752199 -0.062887 0.144027
v 0.796624 -0.066776 0.144027
v 0.841049 -0.070664 0.144027
v 0.385624 0.334051 0.144027
v -0.876309 -0.612310 0.144027
v 0.841626 -0.612310 0.144027
v 0.434681 0.334053 0.144027
v 0.442489 0.263601 0.144027
v -0.469364 0.334053 0.144027
v -0.477172 0.263601 0.144027
v -0.500297 0.195858 0.144027
v -0.537849 0.133424 0.144027
v -0.588386 0.078701 0.144027
v -0.649965 0.033791 0.144027
v -0.720220 0.000420 0.144027
v -0.796452 -0.020130 0.144027
v -0.875730 -0.027069 0.144027
v 0.553703 0.078701 0.144027
v 0.615282 0.033791 0.144027
v 0.685538 0.000420 0.144027
v 0.503166 0.133424 0.144027
v 0.465614 0.195858 0.144027
v 0.761769 -0.020130 0.144027
v 0.841048 -0.027069 0.144027
v 0.792806 -0.568925 0.144027
v -0.420307 0.334051 0.144027
v 0.841049 -0.070664 -0.095973
v 0.841626 -0.612310 -0.095973
v -0.875731 -0.070664 -0.095973
v -0.876309 -0.612310 -0.095973
v -0.829010 -0.066575 -0.095973
v -0.420307 0.334051 -0.095973
v -0.424682 0.294574 -0.095973
v -0.429058 0.255097 -0.095973
v -0.454974 0.179175 -0.095973
v -0.497059 0.109204 -0.095973
v -0.553697 0.047875 -0.095973
v -0.622710 -0.002457 -0.095973
v -0.701447 -0.039857 -0.095973
v -0.786882 -0.062887 -0.095973
v 0.519014 0.047875 -0.095973
v 0.588028 -0.002457 -0.095973
v 0.666764 -0.039857 -0.095973
v 0.385624 0.334051 -0.095973
v 0.390000 0.294574 -0.095973
v 0.462377 0.109204 -0.095973
v 0.394375 0.255097 -0.095973
v 0.420291 0.179175 -0.095973
v 0.752199 -0.062887 -0.095973
v 0.796624 -0.066776 -0.095973
v 0.792806 -0.568925 -0.095973
v -0.827488 -0.568925 -0.095973
v 0.434681 0.334053 -0.095973
v 0.442489 0.263601 -0.095973
v -0.469364 0.334053 -0.095973
v -0.477172 0.263601 -0.095973
v -0.500297 0.195858 -0.095973
v -0.537849 0.133424 -0.095973
v -0.588386 0.078701 -0.095973
v -0.649965 0.033791 -0.095973
v -0.720220 0.000420 -0.095973
v -0.796452 -0.020130 -0.095973
v -0.875730 -0.027069 -0.095973
v 0.553703 0.078701 -0.095973
v 0.615282 0.033791 -0.095973
v 0.685538 0.000420 -0.095973
v 0.434707 0.334285 -0.095973
v 0.503166 0.133424 -0.095973
v 0.465614 0.195858 -0.095973
v 0.761769 -0.020130 -0.095973
v 0.841048 -0.027069 -0.095973
v 0.418432 0.259349 0.144027
v -0.791667 -0.041509 0.144027
v -0.517454 0.121314 0.144027
v -0.453115 0.259349 0.144027
v 0.442952 0.187516 0.144027
v 0.482771 0.121314 0.144027
v 0.676151 -0.019718 0.144027
v 0.601655 0.015667 0.144027
v -0.017341 -0.568925 -0.018329
v -0.017341 -0.568925 0.074027
vn 0.1652 -0.0000 -0.9863
vn -0.0000 -0.0000 -1.0000
vn -0.0000 0.0063 1.0000
vn 0.0035 0.0013 1.0000
vn 0.1496 -0.0000 0.9888
vn -0.0000 -0.0000 1.0000
vn -0.0000 0.0063 -1.0000
vn -0.0000 0.1842 -0.9829
vn 0.1585 -0.9870 0.0282
vn 0.9857 0.1687 -0.0000
vn -0.0000 1.0000 -0.0000
vn -1.0000 -0.0000 -0.0000
vn -0.0000 -1.0000 -0.0000
vn -0.1912 0.9812 -0.0269
vn -0.9994 -0.0000 0.0344
vn 0.1835 0.9830 -0.0000
vn -0.1911 -0.9808 0.0401
vn -0.1990 -0.0000 0.9800
vn -0.2017 -0.0000 -0.9795
vn 0.9967 -0.0811 -0.0000
vn -0.9857 0.1687 -0.0000
vn -0.0000 0.1842 0.9829
vn -0.0000 -0.0887 -0.9961
vn -0.0000 -0.0887 0.9961
vn -0.9967 -0.0811 -0.0000
vn -0.0000 -1.0000 0.0068
vn -0.0000 -1.0000 -0.0063
vn 1.0000 0.0058 -0.0000
vn -0.8078 0.1266 -0.5756
vn -0.6466 0.0011 0.7628
vn 1.0000 0.0029 -0.0000
vn -0.8005 -0.1871 0.5693
vn 1.0000 0.0058 -0.0001
vn -0.0000 0.0021 -1.0000
vn -0.7261 0.0059 -0.6876
vn -0.0000 1.0000 -0.0068
vn -0.6417 0.0062 0.7669
vn -0.7306 0.0059 -0.6828
vn -0.0000 1.0000 0.0063
vn -1.0000 0.0085 -0.0000
vn 0.8128 -0.5826 -0.0000
vn -0.8128 0.5826 -0.0000
vn -0.9930 -0.1184 -0.0000
vn 0.9930 0.1184 -0.0000
vn 0.9828 -0.1845 -0.0000
vn 0.7701 0.6379 -0.0000
vn 0.2091 0.9779 -0.0000
vn -0.2403 0.9707 -0.0000
vn -0.5892 0.8080 -0.0000
vn -0.9931 0.1174 -0.0000
vn -0.9229 -0.3851 -0.0000
vn -0.4580 -0.8889 -0.0000
vn 0.1184 -0.9930 -0.0000
vn 0.8980 -0.4401 -0.0000
vn 0.8082 0.5889 -0.0000
vn -0.0263 0.9997 -0.0000
vn -0.9828 0.1845 -0.0000
vn -0.7701 -0.6379 -0.0000
vn -0.2091 -0.9779 -0.0000
vn 0.2403 -0.9707 -0.0000
vn 0.5892 -0.8080 -0.0000
vn 0.9931 -0.1173 -0.0000
vn 0.9229 0.3851 -0.0000
vn 0.4580 0.8889 -0.0000
vn -0.1184 0.9930 -0.0000
vn -0.8980 0.4401 -0.0000
vn -0.8082 -0.5889 -0.0000
vn 0.0263 -0.9997 -0.0000
vn -0.7737 -0.2921 0.5621
vn 0.3074 0.1035 0.9459
vn 0.9477 0.3191 -0.0000
vn 0.3074 0.1035 -0.9459
vn -0.7737 -0.2921 -0.5621
vn -0.0000 -0.8464 0.5326
vn -0.0000 0.3513 0.9363
vn -0.0000 0.3513 -0.9363
vn -0.0000 -0.8464 -0.5326
vn 0.8077 -0.3203 0.4949
vn -0.3623 0.1368 0.9220
vn -0.9477 0.3191 -0.0000
vn -0.3623 0.1368 -0.9220
vn 0.8077 -0.3203 -0.4949
vn 0.5326 0.7330 0.4232
vn 0.9363 -0.3042 -0.1756
vn -0.0000 -0.8660 -0.5000
vn -0.9363 -0.3042 -0.1756
vn -0.5326 0.7330 0.4232
vn 0.5326 -0.0000 0.8464
vn 0.9363 -0.0000 -0.3513
vn -0.9363 -0.0000 -0.3513
vn -0.5326 -0.0000 0.8464
vn 0.5326 -0.7330 0.4232
vn 0.9363 0.3042 -0.1756
vn -0.0000 0.8660 -0.5000
vn -0.9363 0.3042 -0.1756
vn -0.5326 -0.7330 0.4232
vn 0.5326 -0.7330 -0.4232
vn 0.9363 0.3042 0.1756
vn -0.0000 0.8660 0.5000
vn -0.9363 0.3042 0.1756
vn -0.5326 -0.7330 -0.4232
vn 0.5326 -0.0000 -0.8464
vn 0.9363 -0.0000 0.3513
vn -0.9363 -0.0000 0.3513
vn -0.5326 -0.0000 -0.8464
vn 0.5326 0.7330 -0.4232
vn 0.9363 -0.3042 0.1756
vn -0.0000 -0.8660 0.5000
vn -0.9363 -0.3042 0.1756
vn -0.5326 0.7330 -0.4232
vn 0.4232 0.7330 -0.5326
vn -0.1756 -0.3042 -0.9363
vn -0.5000 -0.8660 -0.0000
vn -0.1756 -0.3042 0.9363
vn 0.4232 0.7330 0.5326
vn 0.8464 -0.0000 -0.5326
vn -0.3513 -0.0000 -0.9363
vn -0.3513 -0.0000 0.9363
vn 0.8464 -0.0000 0.5326
vn 0.4232 -0.7330 -0.5326
vn -0.1756 0.3042 -0.9363
vn -0.5000 0.8660 -0.0000
vn -0.1756 0.3042 0.9363
vn 0.4232 -0.7330 0.5326
vn -0.4232 -0.7330 -0.5326
vn 0.1756 0.3042 -0.9363
vn 0.5000 0.8660 -0.0000
vn 0.1756 0.3042 0.9363
vn -0.4232 -0.7330 0.5326
vn -0.8464 -0.0000 -0.5326
vn 0.3513 -0.0000 -0.9363
vn 1.0000 -0.0000 -0.0000
vn 0.3513 -0.0000 0.9363
vn -0.8464 -0.0000 0.5326
vn -0.4232 0.7330 -0.5326
vn 0.1756 -0.3042 -0.9363
vn 0.5000 -0.8660 -0.0000
vn 0.1756 -0.3042 0.9363
vn -0.4232 0.7330 0.5326
vn -0.3856 0.7847 -0.4853
vn 0.1726 -0.3513 -0.9202
vn 0.4410 -0.8975 -0.0000
vn 0.1726 -0.3513 0.9202
vn -0.3856 0.7847 0.4853
vn 0.3856 0.7847 -0.4853
vn -0.1726 -0.3513 -0.9202
vn -0.4410 -0.8975 -0.0000
vn -0.1726 -0.3513 0.9202
vn 0.3856 0.7847 0.4853
vn 0.4291 0.9033 -0.0000
vn -1.0000 0.0008 -0.0000
vn 0.5892 0.8080 -0.0000
vn -0.2603 0.9655 -0.0000
vn 0.9939 -0.1102 -0.0000
vn -0.4291 0.9033 -0.0000
vn -0.0872 0.9962 -0.0000
vn -0.7346 0.6784 -0.0000
vn -0.8569 0.5154 -0.0000
vn 1.0000 -0.0076 -0.0000
vn 0.2603 -0.9655 -0.0000
vn -0.9464 0.3230 -0.0000
vn -0.9939 0.1102 -0.0000
vn 0.2603 0.9655 -0.0000
vn 0.8569 0.5154 -0.0000
vn 0.9939 0.1102 -0.0000
vn 0.9464 0.3230 -0.0000
vn 1.0000 -0.0010 -0.0000
vn 0.8569 -0.5154 -0.0000
vn -0.9940 -0.1094 -0.0002
vn 0.7346 0.6784 -0.0000
vn 0.7346 -0.6784 -0.0000
vn 0.0872 0.9962 -0.0000
vn 0.4291 -0.9033 -0.0000
vn -1.0000 -0.0030 -0.0000
vn -0.4291 -0.9033 -0.0000
vn -0.2603 -0.9655 -0.0000
vn -1.0000 -0.0010 -0.0000
vn -0.5892 -0.8080 -0.0000
vn -0.9464 -0.3230 -0.0000
vn -0.8569 -0.5154 -0.0000
vn 0.9464 -0.3230 -0.0000
vn -0.7346 -0.6784 -0.0000
vn -0.0872 -0.9962 -0.0000
vn 0.0872 -0.9962 -0.0000
vn -0.0000 0.0007 1.0000
vn 0.0091 0.0001 1.0000
vn 0.1403 -0.9901 -0.0000
vn 0.1584 0.9866 -0.0391
vn -0.1402 -0.0000 0.9901
vn 1.0000 0.0007 -0.0000
vn -0.0045 0.0182 -0.9998
vn 0.9998 0.0057 0.0191
vn 0.7383 -0.0000 -0.6745
vn 0.7384 -0.0000 -0.6744
vn -0.6466 0.0062 0.7628
vn -0.0000 0.0007 -1.0000
vn 0.3327 0.0040 -0.9430
vn 0.0031 -0.0000 -1.0000
vn -0.7305 0.0001 -0.6829
vn -0.7907 0.1894 0.5822
vn -0.8176 -0.1257 -0.5619
vn -1.0000 0.0058 -0.0000
vn 0.9931 -0.1174 -0.0000
vn -0.8077 -0.3203 0.4949
vn 0.3623 0.1368 0.9220
vn 0.3623 0.1368 -0.9220
vn -0.8077 -0.3203 -0.4949
vn -0.0000 -0.8464 0.5325
vn 0.7737 -0.2921 0.5621
vn -0.3074 0.1035 0.9459
vn -0.3074 0.1035 -0.9460
vn 0.7737 -0.2921 -0.5621
vn 0.0003 -1.0000 -0.0010
vn -0.9939 -0.1102 -0.0000
vn -0.0000 -0.0360 -0.9994
vn -0.0000 0.4606 -0.8876
vn -0.2312 -0.3018 -0.9249
vt 0.668582 0.042900
vt 0.631318 0.077146
vt 0.632847 0.045291
vt 0.657811 0.642136
vt 0.656685 0.077665
vt 0.860933 0.122088
vt 0.847456 0.098060
vt 0.867133 0.097818
vt 0.860775 0.191000
vt 0.867522 0.221960
vt 0.846565 0.278575
vt 0.603992 0.047113
vt 0.577775 0.076803
vt 0.576158 0.045740
vt 0.582400 0.642304
vt 0.603380 0.076107
vt 0.606868 0.642416
vt 0.888758 0.097637
vt 0.909812 0.121520
vt 0.895747 0.121798
vt 0.878999 0.037621
vt 0.908875 0.066281
vt 0.887179 0.071043
vt 0.843088 0.033757
vt 0.848412 0.071710
vt 0.824585 0.068375
vt 0.555790 0.642416
vt 0.549325 0.078025
vt 0.890544 0.278575
vt 0.890541 0.221960
vt 0.633492 0.642356
vt 0.538124 0.040888
vt 0.590440 0.009696
vt 0.533276 0.022687
vt 0.549914 0.006329
vt 0.550471 0.022687
vt 0.605695 0.011489
vt 0.621981 0.010872
vt 0.825996 0.097376
vt 0.866442 0.038721
vt 0.866911 0.073244
vt 0.885067 0.022076
vt 0.889500 0.033571
vt 0.909181 0.096844
vt 0.889386 0.121948
vt 0.896230 0.144779
vt 0.896707 0.167761
vt 0.960079 0.147526
vt 0.952079 0.158849
vt 0.936733 0.148007
vt 0.935798 0.249277
vt 0.927878 0.237898
vt 0.951745 0.238178
vt 0.867623 0.191018
vt 0.860802 0.168069
vt 0.994801 0.105495
vt 0.980348 0.127915
vt 0.975371 0.105495
vt 0.947885 0.215476
vt 0.994801 0.127946
vt 0.980348 0.150367
vt 0.975372 0.105113
vt 0.986824 0.082607
vt 0.994161 0.105105
vt 0.960079 0.102623
vt 0.942232 0.124991
vt 0.942368 0.102540
vt 0.825288 0.121528
vt 0.847306 0.122012
vt 0.960079 0.080171
vt 0.937048 0.079572
vt 0.975372 0.060210
vt 0.975372 0.082661
vt 0.890293 0.190901
vt 0.911467 0.190738
vt 0.928080 0.192996
vt 0.927979 0.215447
vt 0.975371 0.037758
vt 0.986824 0.060155
vt 0.952648 0.069101
vt 0.960079 0.125074
vt 0.940886 0.025561
vt 0.963272 0.046010
vt 0.940886 0.046010
vt 0.928181 0.170545
vt 0.947865 0.193025
vt 0.935652 0.159501
vt 0.951745 0.170389
vt 0.994801 0.172850
vt 0.994801 0.150398
vt 0.757290 0.584900
vt 0.776273 0.558936
vt 0.780316 0.583832
vt 0.809363 0.459166
vt 0.828636 0.484294
vt 0.809380 0.484312
vt 0.778332 0.560702
vt 0.783031 0.585224
vt 0.762933 0.555629
vt 0.776383 0.556435
vt 0.808035 0.388229
vt 0.789823 0.392367
vt 0.789723 0.388962
vt 0.785393 0.338058
vt 0.788276 0.385018
vt 0.783759 0.333891
vt 0.760486 0.559946
vt 0.762823 0.558129
vt 0.753932 0.604912
vt 0.754384 0.586214
vt 0.756235 0.607241
vt 0.759357 0.631682
vt 0.761135 0.634098
vt 0.761163 0.650277
vt 0.740172 0.660001
vt 0.747702 0.132129
vt 0.748055 0.659922
vt 0.795191 0.053718
vt 0.792407 0.024389
vt 0.793748 0.023184
vt 0.791276 0.086189
vt 0.794231 0.055855
vt 0.777222 0.292826
vt 0.782210 0.236335
vt 0.783278 0.233221
vt 0.790613 0.192010
vt 0.783636 0.150483
vt 0.785219 0.145794
vt 0.790204 0.232380
vt 0.788015 0.193333
vt 0.784555 0.279426
vt 0.787357 0.231838
vt 0.786837 0.282710
vt 0.811663 0.337834
vt 0.809412 0.384319
vt 0.809744 0.281686
vt 0.813247 0.333635
vt 0.807312 0.232243
vt 0.812034 0.278386
vt 0.810345 0.193339
vt 0.810137 0.231785
vt 0.807683 0.191893
vt 0.815925 0.147559
vt 0.814326 0.142928
vt 0.808927 0.088974
vt 0.807864 0.085974
vt 0.804767 0.056112
vt 0.803818 0.054027
vt 0.807098 0.024928
vt 0.724584 0.660016
vt 0.716347 0.132302
vt 0.724230 0.132223
vt 0.777925 0.632961
vt 0.779253 0.648977
vt 0.777810 0.651520
vt 0.780855 0.606152
vt 0.779481 0.630425
vt 0.783044 0.603631
vt 0.756151 0.541552
vt 0.775380 0.501351
vt 0.775407 0.541534
vt 0.756096 0.458998
vt 0.756124 0.501368
vt 0.756063 0.410049
vt 0.775352 0.458980
vt 0.756034 0.367187
vt 0.775319 0.410031
vt 0.756005 0.323208
vt 0.775290 0.367170
vt 0.755974 0.276845
vt 0.775261 0.323191
vt 0.755945 0.234176
vt 0.775230 0.276827
vt 0.775158 0.170225
vt 0.775201 0.234158
vt 0.709013 0.008407
vt 0.690193 0.660354
vt 0.689757 0.008424
vt 0.809425 0.552344
vt 0.828667 0.530889
vt 0.828682 0.552326
vt 0.809411 0.530906
vt 0.828650 0.505770
vt 0.809394 0.505787
vt 0.805788 0.023703
vt 0.836057 0.354560
vt 0.876396 0.357305
vt 0.838394 0.361675
vt 0.875896 0.365463
vt 0.840661 0.366828
vt 0.840708 0.372132
vt 0.875401 0.375145
vt 0.838453 0.376907
vt 0.875220 0.382117
vt 0.835967 0.383770
vt 0.903491 0.350026
vt 0.876240 0.350326
vt 0.903200 0.356944
vt 0.903019 0.363915
vt 0.902023 0.381756
vt 0.874929 0.389034
vt 0.942453 0.355291
vt 0.939967 0.362153
vt 0.937711 0.366929
vt 0.902524 0.373597
vt 0.940026 0.377385
vt 0.942363 0.384501
vt 0.902180 0.388735
vt 0.836182 0.314409
vt 0.876521 0.317154
vt 0.838519 0.321524
vt 0.876020 0.325312
vt 0.840786 0.326677
vt 0.840833 0.331981
vt 0.875526 0.334994
vt 0.838577 0.336756
vt 0.875344 0.341966
vt 0.836091 0.343619
vt 0.903615 0.309875
vt 0.876364 0.310175
vt 0.903324 0.316792
vt 0.903143 0.323764
vt 0.902148 0.341604
vt 0.875053 0.348883
vt 0.942578 0.315139
vt 0.940092 0.322002
vt 0.937836 0.326777
vt 0.902649 0.333446
vt 0.940150 0.337234
vt 0.942487 0.344349
vt 0.902304 0.348583
vt 0.821352 0.592439
vt 0.796470 0.604368
vt 0.793172 0.598450
vt 0.821860 0.599362
vt 0.801028 0.609799
vt 0.821768 0.607040
vt 0.801379 0.614608
vt 0.821467 0.615813
vt 0.798385 0.618710
vt 0.820661 0.622501
vt 0.795433 0.624300
vt 0.866079 0.592605
vt 0.866025 0.599797
vt 0.865659 0.607555
vt 0.865197 0.616248
vt 0.863787 0.630801
vt 0.819989 0.629064
vt 0.893654 0.592663
vt 0.893436 0.599612
vt 0.892636 0.607471
vt 0.892126 0.616553
vt 0.864217 0.623791
vt 0.891109 0.631361
vt 0.920546 0.600233
vt 0.919565 0.607776
vt 0.918738 0.624227
vt 0.891326 0.624412
vt 0.918684 0.631419
vt 0.920976 0.593223
vt 0.964102 0.601523
vt 0.963295 0.608211
vt 0.919104 0.616469
vt 0.962903 0.624662
vt 0.964774 0.594959
vt 0.986377 0.605314
vt 0.983383 0.609416
vt 0.962994 0.616984
vt 0.983735 0.614225
vt 0.988293 0.619656
vt 0.963411 0.631585
vt 0.963774 0.514513
vt 0.988656 0.502585
vt 0.991954 0.508502
vt 0.963358 0.499913
vt 0.984098 0.497154
vt 0.983746 0.492344
vt 0.963658 0.491140
vt 0.986740 0.488242
vt 0.964465 0.484451
vt 0.989692 0.482652
vt 0.919101 0.507156
vt 0.963266 0.507590
vt 0.919467 0.499398
vt 0.920909 0.483162
vt 0.965137 0.477888
vt 0.919047 0.514348
vt 0.891689 0.507341
vt 0.892489 0.499482
vt 0.919928 0.490705
vt 0.892999 0.490400
vt 0.893799 0.482541
vt 0.921339 0.476152
vt 0.864150 0.513730
vt 0.891472 0.514290
vt 0.864580 0.506720
vt 0.865561 0.499177
vt 0.866388 0.482726
vt 0.866442 0.475534
vt 0.894017 0.475592
vt 0.821024 0.505431
vt 0.821830 0.498742
vt 0.866022 0.490484
vt 0.822131 0.489970
vt 0.822223 0.482292
vt 0.820352 0.511994
vt 0.798748 0.501640
vt 0.801742 0.497538
vt 0.796832 0.487298
vt 0.821714 0.475369
vt 0.963653 0.553537
vt 0.988535 0.541608
vt 0.991833 0.547526
vt 0.963145 0.546613
vt 0.983977 0.536177
vt 0.963237 0.538936
vt 0.983625 0.531368
vt 0.964344 0.523475
vt 0.986619 0.527266
vt 0.989571 0.521676
vt 0.918980 0.546180
vt 0.919346 0.538422
vt 0.963538 0.530163
vt 0.920788 0.522185
vt 0.965016 0.516912
vt 0.891351 0.553313
vt 0.918926 0.553372
vt 0.891568 0.546365
vt 0.892369 0.538505
vt 0.919807 0.529729
vt 0.893679 0.521565
vt 0.921218 0.515175
vt 0.864029 0.552754
vt 0.864459 0.545744
vt 0.865440 0.538201
vt 0.892878 0.529424
vt 0.865901 0.529508
vt 0.866321 0.514558
vt 0.893896 0.514616
vt 0.820903 0.544455
vt 0.821709 0.537766
vt 0.822010 0.528993
vt 0.866267 0.521750
vt 0.822102 0.521316
vt 0.820231 0.551018
vt 0.798627 0.540664
vt 0.801621 0.536562
vt 0.796712 0.526321
vt 0.821594 0.514393
vt 0.963532 0.592561
vt 0.988414 0.580632
vt 0.991712 0.586550
vt 0.963024 0.585638
vt 0.983856 0.575201
vt 0.963116 0.577960
vt 0.983504 0.570392
vt 0.964223 0.562499
vt 0.986498 0.566290
vt 0.964895 0.555936
vt 0.989450 0.560700
vt 0.918805 0.592395
vt 0.918859 0.585203
vt 0.919686 0.568752
vt 0.963417 0.569187
vt 0.920667 0.561209
vt 0.891230 0.592337
vt 0.892248 0.577529
vt 0.919225 0.577445
vt 0.893558 0.560588
vt 0.893775 0.553640
vt 0.921097 0.554199
vt 0.864338 0.584767
vt 0.891447 0.585388
vt 0.865319 0.577224
vt 0.892757 0.568448
vt 0.866146 0.560773
vt 0.863908 0.591778
vt 0.820782 0.583477
vt 0.821588 0.576789
vt 0.865780 0.568531
vt 0.821981 0.560339
vt 0.866200 0.553581
vt 0.820110 0.590041
vt 0.798506 0.579687
vt 0.801500 0.575584
vt 0.821889 0.568016
vt 0.801149 0.570775
vt 0.796591 0.565344
vt 0.821473 0.553416
vt 0.823590 0.435222
vt 0.797197 0.448046
vt 0.793657 0.441771
vt 0.824159 0.442559
vt 0.802075 0.453796
vt 0.824109 0.450702
vt 0.802484 0.458930
vt 0.823850 0.460025
vt 0.799322 0.463345
vt 0.823095 0.467173
vt 0.796231 0.469334
vt 0.870645 0.442738
vt 0.870141 0.450616
vt 0.869378 0.467957
vt 0.822472 0.474167
vt 0.898816 0.437008
vt 0.870859 0.435369
vt 0.898391 0.443863
vt 0.897425 0.451770
vt 0.869639 0.459185
vt 0.896793 0.467930
vt 0.869101 0.475196
vt 0.924808 0.437801
vt 0.923465 0.451729
vt 0.896839 0.461175
vt 0.923091 0.460032
vt 0.922854 0.467414
vt 0.896724 0.474756
vt 0.965877 0.445445
vt 0.924384 0.444494
vt 0.965156 0.451814
vt 0.964933 0.460162
vt 0.964905 0.467465
vt 0.922901 0.474261
vt 0.989856 0.443556
vt 0.966473 0.439198
vt 0.984271 0.452815
vt 0.984641 0.457384
vt 0.989016 0.462515
vt 0.965443 0.474046
vt 0.992864 0.427294
vt 0.964176 0.426381
vt 0.989566 0.421376
vt 0.985007 0.415945
vt 0.964568 0.409931
vt 0.984656 0.411136
vt 0.965375 0.403243
vt 0.987650 0.407034
vt 0.990602 0.401444
vt 0.964684 0.433304
vt 0.920011 0.425947
vt 0.964267 0.418704
vt 0.920376 0.418189
vt 0.921818 0.401953
vt 0.966047 0.396679
vt 0.892382 0.433081
vt 0.919956 0.433139
vt 0.893399 0.418273
vt 0.920838 0.409496
vt 0.893909 0.409191
vt 0.894709 0.401332
vt 0.922249 0.394943
vt 0.865060 0.432521
vt 0.892599 0.426132
vt 0.865850 0.425306
vt 0.893196 0.418442
vt 0.892412 0.425895
vt 0.866470 0.417968
vt 0.867298 0.401517
vt 0.867352 0.394325
vt 0.894926 0.394383
vt 0.821261 0.430784
vt 0.865490 0.425511
vt 0.821933 0.424221
vt 0.822740 0.417533
vt 0.866932 0.409275
vt 0.823041 0.408760
vt 0.823132 0.401082
vt 0.799658 0.420430
vt 0.802652 0.416328
vt 0.797742 0.406088
vt 0.822624 0.394159
vt 0.840623 0.639601
vt 0.872175 0.647011
vt 0.842208 0.647011
vt 0.844772 0.653831
vt 0.869611 0.653831
vt 0.844772 0.661583
vt 0.869611 0.661583
vt 0.842208 0.668403
vt 0.872175 0.668403
vt 0.840623 0.675813
vt 0.888394 0.639601
vt 0.867047 0.647011
vt 0.865462 0.639601
vt 0.886809 0.647011
vt 0.884245 0.661583
vt 0.886809 0.668403
vt 0.867047 0.668403
vt 0.888394 0.675813
vt 0.865462 0.675813
vt 0.988479 0.676068
vt 0.967133 0.668658
vt 0.986895 0.668658
vt 0.969697 0.661838
vt 0.984331 0.661838
vt 0.984331 0.654086
vt 0.969697 0.654086
vt 0.986895 0.647266
vt 0.967133 0.647266
vt 0.988479 0.639856
vt 0.940709 0.676068
vt 0.972260 0.668658
vt 0.973845 0.676068
vt 0.944858 0.661838
vt 0.944858 0.654086
vt 0.972260 0.647266
vt 0.942294 0.647266
vt 0.973845 0.639856
vt 0.923828 0.639944
vt 0.892277 0.647354
vt 0.890692 0.639944
vt 0.922243 0.647354
vt 0.894840 0.654174
vt 0.919679 0.654174
vt 0.894840 0.661926
vt 0.922243 0.668746
vt 0.892277 0.668746
vt 0.890692 0.676156
vt 0.938462 0.639944
vt 0.917116 0.647354
vt 0.915531 0.639944
vt 0.936878 0.647354
vt 0.934314 0.654174
vt 0.919679 0.661926
vt 0.936878 0.668746
vt 0.917116 0.668746
vt 0.938462 0.676156
vt 0.915531 0.676156
vt 0.840322 0.675813
vt 0.818976 0.668403
vt 0.838738 0.668403
vt 0.821539 0.661583
vt 0.836174 0.661583
vt 0.836174 0.653831
vt 0.821539 0.653831
vt 0.838738 0.647011
vt 0.818976 0.647011
vt 0.840322 0.639601
vt 0.825688 0.675813
vt 0.794137 0.668403
vt 0.824103 0.668403
vt 0.796700 0.661583
vt 0.794137 0.647011
vt 0.824103 0.647011
vt 0.792552 0.639601
vt 0.825688 0.639601
vt 0.127636 0.729298
vt 0.146727 0.702117
vt 0.150926 0.723932
vt 0.222473 0.993471
vt 0.777527 0.915929
vt 0.777527 0.993471
vt 0.829099 0.690920
vt 0.679805 0.713537
vt 0.679805 0.690920
vt 0.103733 0.731281
vt 0.125361 0.706844
vt 0.659123 0.679823
vt 0.631281 0.695876
vt 0.634604 0.672369
vt 0.330942 0.910291
vt 0.304080 0.832748
vt 0.330942 0.832748
vt 0.608891 0.691829
vt 0.610082 0.668594
vt 0.663741 0.708683
vt 0.653607 0.703347
vt 0.586655 0.691061
vt 0.585826 0.668373
vt 0.564820 0.693422
vt 0.562109 0.671540
vt 0.524923 0.328863
vt 0.511935 0.520965
vt 0.263170 0.329042
vt 0.403875 0.723880
vt 0.382981 0.695242
vt 0.405298 0.698851
vt 0.598491 0.735717
vt 0.449304 0.760803
vt 0.449304 0.735717
vt 0.488800 0.832748
vt 0.462964 0.910291
vt 0.462964 0.832748
vt 0.356032 0.713913
vt 0.379923 0.720160
vt 0.343943 0.709824
vt 0.360751 0.689040
vt 0.333228 0.679552
vt 0.305642 0.700205
vt 0.308451 0.673966
vt 0.231611 0.735717
vt 0.436468 0.760803
vt 0.026753 0.760803
vt 0.236681 0.673800
vt 0.217816 0.701748
vt 0.214079 0.678713
vt 0.524988 0.328236
vt 0.511934 0.136138
vt 0.525545 0.137542
vt 0.192389 0.685739
vt 0.187088 0.712151
vt 0.181866 0.689742
vt 0.197341 0.707805
vt 0.497151 0.713284
vt 0.502397 0.685252
vt 0.507577 0.709674
vt 0.999686 0.915929
vt 0.298425 0.909636
vt 0.006334 0.832093
vt 0.298425 0.832093
vt 0.357721 0.910291
vt 0.384346 0.832748
vt 0.384346 0.910291
vt 0.705773 0.909988
vt 0.732635 0.832445
vt 0.732722 0.909988
vt 0.103143 0.700600
vt 0.123419 0.691013
vt 0.124387 0.698985
vt 0.648995 0.719884
vt 0.676022 0.715669
vt 0.651331 0.711546
vt 0.628144 0.712394
vt 0.629741 0.704085
vt 0.607192 0.708139
vt 0.608065 0.699935
vt 0.586372 0.706981
vt 0.586531 0.698974
vt 0.544862 0.706006
vt 0.527065 0.720643
vt 0.523272 0.706762
vt 0.565922 0.708780
vt 0.145117 0.694389
vt 0.162967 0.679168
vt 0.165237 0.686912
vt 0.181476 0.668363
vt 0.177728 0.688827
vt 0.060060 0.694668
vt 0.082041 0.691192
vt 0.081609 0.699171
vt 0.038796 0.687085
vt 0.025945 0.688697
vt 0.014955 0.682469
vt 0.143495 0.686538
vt 0.829099 0.713537
vt 0.681079 0.729253
vt 0.231612 0.816985
vt 0.026753 0.794368
vt 0.436471 0.794369
vt 0.525138 0.713614
vt 0.509056 0.731269
vt 0.513265 0.712386
vt 0.079514 0.729828
vt 0.103443 0.708521
vt 0.019427 0.711368
vt 0.036909 0.694523
vt 0.031389 0.716719
vt 0.058923 0.702420
vt 0.055295 0.724941
vt 0.061235 0.686836
vt 0.517460 0.687114
vt 0.507050 0.692399
vt 0.081203 0.707060
vt 0.817958 0.736031
vt 0.611954 0.758648
vt 0.611954 0.736031
vt 0.410769 0.832748
vt 0.410769 0.910291
vt 0.167470 0.694507
vt 0.173295 0.715339
vt 0.543637 0.698724
vt 0.436969 0.832748
vt 0.436969 0.910291
vt 0.822213 0.775084
vt 0.971401 0.752481
vt 0.971400 0.775097
vt 0.183985 0.710238
vt 0.539218 0.677893
vt 0.449935 0.797180
vt 0.654833 0.782194
vt 0.655939 0.797180
vt 0.448813 0.777272
vt 0.014408 0.777272
vt 0.200162 0.721861
vt 0.181630 0.730344
vt 0.349467 0.684420
vt 0.343446 0.664546
vt 0.363740 0.673739
vt 0.384674 0.679469
vt 0.405822 0.682844
vt 0.427511 0.700027
vt 0.426934 0.683928
vt 0.449453 0.698815
vt 0.447832 0.682733
vt 0.471012 0.695263
vt 0.468393 0.679259
vt 0.492209 0.689487
vt 0.488583 0.673459
vt 0.508218 0.664546
vt 0.283041 0.696918
vt 0.260294 0.712233
vt 0.260777 0.696177
vt 0.281452 0.713482
vt 0.239592 0.713292
vt 0.238987 0.697836
vt 0.219496 0.716524
vt 0.328478 0.706190
vt 0.302934 0.717177
vt 0.340170 0.710958
vt 0.345875 0.733078
vt 0.324617 0.723466
vt 0.809705 0.797381
vt 0.661688 0.781622
vt 0.822606 0.781622
vt 0.450387 0.775166
vt 0.598491 0.760803
vt 0.611301 0.776683
vt 0.449935 0.822266
vt 0.655939 0.822266
vt 0.427739 0.725034
vt 0.660394 0.821802
vt 0.809637 0.822467
vt 0.451340 0.723622
vt 0.599746 0.832445
vt 0.573751 0.909988
vt 0.573751 0.832445
vt 0.474522 0.719673
vt 0.547915 0.832445
vt 0.000314 0.915929
vt 0.000314 0.993471
vt 0.284013 0.671257
vt 0.260044 0.671257
vt 0.625946 0.832445
vt 0.599746 0.909988
vt 0.345792 0.683513
vt 0.678993 0.909988
vt 0.705772 0.832445
vt 0.652368 0.909988
vt 0.678993 0.832445
vt 0.357721 0.832748
vt 0.652368 0.832445
vt 0.625946 0.909988
vt 0.522166 0.909988
vt 0.547915 0.909988
vt 0.514549 0.832748
vt 0.488800 0.910291
vt 0.823298 0.738105
vt 0.822214 0.752467
vt 0.816852 0.773633
vt 0.817958 0.758648
vt 0.102861 0.692578
vt 0.565383 0.701055
vt 0.546083 0.713376
vt 0.448817 0.777900
vt 0.014408 0.777900
vt 0.130319 0.015299
vt 0.263235 0.328146
vt 0.121936 0.044116
vt 0.108329 0.070672
vt 0.090022 0.093947
vt 0.067718 0.113045
vt 0.042273 0.127233
vt 0.014668 0.135966
vt 0.001481 0.328055
vt 0.000314 0.137437
vt 0.131738 0.000314
vt 0.394957 0.000404
vt 0.404729 0.044214
vt 0.396365 0.015390
vt 0.418317 0.070779
vt 0.436608 0.094066
vt 0.458900 0.113180
vt 0.484334 0.127386
vt 0.130362 0.641934
vt 0.121968 0.613120
vt 0.404761 0.612926
vt 0.396408 0.641752
vt 0.418340 0.586356
vt 0.436624 0.563062
vt 0.458908 0.543941
vt 0.484338 0.529726
vt 0.395004 0.656739
vt 0.131785 0.656919
vt 0.108353 0.586568
vt 0.090037 0.563300
vt 0.067727 0.544209
vt 0.042278 0.530030
vt 0.014668 0.521306
vt 0.001416 0.329222
vt 0.867282 0.122098
vt 0.846626 0.191004
vt 0.867644 0.201089
vt 0.867553 0.278571
vt 0.854983 0.038104
vt 0.575101 0.005268
vt 0.532718 0.006329
vt 0.636412 0.007588
vt 0.874566 0.026125
vt 0.897182 0.190802
vt 0.860854 0.145069
vt 0.823595 0.278534
vt 0.823815 0.190826
vt 0.824215 0.167724
vt 0.824719 0.144625
vt 0.846784 0.168030
vt 0.847009 0.145005
vt 0.911537 0.278576
vt 0.890353 0.200998
vt 0.994160 0.037750
vt 0.963272 0.025561
vt 0.975371 0.172850
vt 0.828619 0.459149
vt 0.808135 0.391634
vt 0.762827 0.652659
vt 0.739820 0.132208
vt 0.790207 0.089303
vt 0.775639 0.297515
vt 0.716701 0.660095
vt 0.755902 0.170243
vt 0.709450 0.660337
vt 0.937759 0.372232
vt 0.937883 0.332081
vt 0.989329 0.599724
vt 0.991591 0.625574
vt 0.795796 0.507230
vt 0.801391 0.492729
vt 0.793534 0.481380
vt 0.795676 0.546254
vt 0.801270 0.531752
vt 0.793413 0.520404
vt 0.795554 0.585277
vt 0.793292 0.559427
vt 0.987089 0.448892
vt 0.992197 0.468117
vt 0.866811 0.418153
vt 0.796706 0.426020
vt 0.802300 0.411519
vt 0.794444 0.400170
vt 0.873759 0.639601
vt 0.873759 0.675813
vt 0.884245 0.653831
vt 0.965548 0.676068
vt 0.965548 0.639856
vt 0.942294 0.668658
vt 0.940709 0.639856
vt 0.923828 0.676156
vt 0.934314 0.661926
vt 0.817391 0.675813
vt 0.817391 0.639601
vt 0.792552 0.675813
vt 0.796700 0.653831
vt 0.222473 0.915929
vt 0.304080 0.910291
vt 0.670260 0.684461
vt 0.524923 0.519621
vt 0.026753 0.735717
vt 0.436468 0.735717
vt 0.999686 0.993471
vt 0.006325 0.909636
vt 0.669009 0.731269
vt 0.188100 0.682772
vt 0.021151 0.668363
vt 0.040764 0.679477
vt 0.841997 0.729299
vt 0.436471 0.816985
vt 0.026753 0.816984
vt 0.503173 0.718340
vt 0.451042 0.782194
vt 0.176704 0.716904
vt 0.338096 0.679269
vt 0.513969 0.679999
vt 0.352083 0.716345
vt 0.660462 0.796716
vt 0.522166 0.832445
vt 0.514549 0.910291
vt 0.984211 0.736602
vt 0.613060 0.773633
vt 0.000314 0.519840
s 0
usemtl Material.001
f 21/1/1 6/2/1 22/3/1
f 3/4/2 6/2/2 5/5/2
f 47/6/3 32/7/3 30/8/3
f 50/9/4 17/10/4 14/11/4
f 24/12/5 11/13/5 23/14/5
f 16/15/6 15/16/6 17/17/6
f 29/18/7 35/19/7 48/20/7
f 8/21/8 26/22/8 25/23/8
f 6/2/9 24/12/9 22/3/9
f 7/24/10 28/25/10 26/26/10
f 11/13/11 3/27/11 5/28/11
f 10/29/12 17/10/12 4/30/12
f 17/17/13 6/2/13 4/31/13
f 21/32/14 12/33/14 23/14/14
f 1/34/15 13/35/15 12/36/15
f 5/28/16 23/14/16 11/13/16
f 22/3/17 13/37/17 2/38/17
f 24/12/18 12/33/18 13/37/18
f 2/38/19 21/1/19 22/3/19
f 26/26/20 32/7/20 31/39/20
f 25/23/21 20/40/21 8/21/21
f 28/25/22 20/40/22 27/41/22
f 8/21/11 19/42/11 7/43/11
f 25/23/23 31/44/23 29/18/23
f 32/7/24 27/41/24 30/8/24
f 33/45/7 44/46/7 41/47/7
f 29/18/25 27/41/25 25/23/25
f 50/48/26 40/49/26 51/50/26
f 39/51/27 49/52/27 55/53/27
f 47/6/3 38/54/3 58/55/3
f 35/56/28 60/57/28 56/58/28
f 49/52/29 59/59/29 55/53/29
f 46/60/28 59/61/28 60/57/28
f 40/62/28 54/63/28 51/64/28
f 57/65/30 54/66/30 53/67/30
f 35/68/31 36/69/31 14/11/31
f 47/70/32 53/67/32 52/71/32
f 43/72/33 54/63/33 45/73/33
f 4/30/34 37/74/34 39/75/34
f 44/76/35 59/59/35 41/77/35
f 36/78/33 53/79/33 43/72/33
f 36/80/36 47/70/36 52/71/36
f 50/48/37 54/66/37 58/81/37
f 9/82/13 18/83/13 10/84/13
f 48/85/38 60/86/38 44/76/38
f 48/85/39 35/87/39 56/88/39
f 39/89/28 59/61/28 42/90/28
f 37/74/40 38/54/40 29/18/40
f 81/91/41 62/92/41 80/93/41
f 67/94/42 105/95/42 104/96/42
f 80/93/2 67/97/2 104/98/2
f 62/92/43 68/99/43 67/100/43
f 61/101/44 65/102/44 63/103/44
f 92/104/2 65/105/2 116/106/2
f 81/91/6 68/107/6 64/108/6
f 81/91/6 106/109/6 105/110/6
f 82/111/6 107/112/6 106/109/6
f 83/113/2 108/114/2 107/112/2
f 84/115/2 109/116/2 108/117/2
f 86/118/2 109/119/2 85/120/2
f 87/121/2 110/122/2 86/118/2
f 88/123/6 111/124/6 87/125/6
f 89/126/6 112/127/6 88/128/6
f 90/129/6 113/130/6 89/126/6
f 90/129/6 115/131/6 114/132/6
f 91/133/6 116/106/6 115/131/6
f 69/134/6 66/135/6 61/101/6
f 70/136/2 93/137/2 69/134/2
f 71/138/2 94/139/2 70/136/2
f 71/138/2 96/140/2 95/141/2
f 72/142/2 97/143/2 96/140/2
f 73/144/2 98/145/2 97/143/2
f 74/146/6 99/147/6 98/145/6
f 75/148/6 100/149/6 99/147/6
f 77/150/6 100/151/6 76/152/6
f 78/153/6 101/154/6 77/155/6
f 79/156/2 102/157/2 78/153/2
f 80/93/2 103/158/2 79/156/2
f 66/159/45 116/160/45 65/161/45
f 94/162/46 116/160/46 93/163/46
f 95/164/47 115/165/47 94/162/47
f 96/166/48 114/167/48 95/164/48
f 97/168/49 113/169/49 96/166/49
f 98/170/50 112/171/50 97/168/50
f 99/172/51 111/173/51 98/170/51
f 99/172/52 109/174/52 110/175/52
f 100/176/53 108/177/53 109/178/53
f 101/179/54 107/180/54 108/181/54
f 102/182/55 106/183/55 107/180/55
f 104/96/56 106/183/56 103/184/56
f 61/101/57 92/104/57 69/134/57
f 69/134/58 91/133/58 70/136/58
f 91/133/59 71/138/59 70/136/59
f 90/129/60 72/142/60 71/138/60
f 89/126/61 73/144/61 72/142/61
f 88/128/62 74/146/62 73/144/62
f 74/146/63 86/118/63 75/148/63
f 75/148/64 85/120/64 76/185/64
f 76/152/65 84/115/65 77/150/65
f 77/155/66 83/113/66 78/153/66
f 78/153/67 82/111/67 79/156/67
f 82/111/68 80/93/68 79/156/68
f 122/186/69 128/187/69 123/188/69
f 123/188/70 129/189/70 124/190/70
f 129/189/71 125/191/71 124/190/71
f 130/192/72 126/193/72 125/191/72
f 131/194/73 122/195/73 126/193/73
f 132/196/74 128/187/74 127/197/74
f 133/198/75 129/189/75 128/187/75
f 134/199/11 130/192/11 129/189/11
f 130/192/76 136/200/76 131/194/76
f 136/200/77 127/201/77 131/194/77
f 117/202/78 133/198/78 132/196/78
f 118/203/79 134/199/79 133/198/79
f 119/204/80 135/205/80 134/199/80
f 135/205/81 121/206/81 136/200/81
f 136/200/82 117/207/82 132/208/82
f 142/209/69 148/210/69 143/211/69
f 143/211/70 149/212/70 144/213/70
f 149/212/71 145/214/71 144/213/71
f 150/215/72 146/216/72 145/214/72
f 151/217/73 142/218/73 146/216/73
f 152/219/74 148/210/74 147/220/74
f 153/221/75 149/212/75 148/210/75
f 154/222/11 150/215/11 149/212/11
f 150/215/76 156/223/76 151/217/76
f 156/223/77 147/224/77 151/217/77
f 137/225/78 153/221/78 152/219/78
f 138/226/79 154/222/79 153/221/79
f 139/227/80 155/228/80 154/222/80
f 155/228/81 141/229/81 156/223/81
f 156/223/82 137/230/82 152/231/82
f 162/232/83 158/233/83 157/234/83
f 163/235/84 159/236/84 158/233/84
f 164/237/85 160/238/85 159/236/85
f 165/239/86 161/240/86 160/238/86
f 166/241/87 157/242/87 161/240/87
f 167/243/88 163/235/88 162/232/88
f 168/244/89 164/237/89 163/235/89
f 169/245/2 165/239/2 164/237/2
f 170/246/90 166/241/90 165/239/90
f 166/241/91 167/247/91 162/248/91
f 172/249/92 168/244/92 167/243/92
f 173/250/93 169/245/93 168/244/93
f 174/251/94 170/246/94 169/245/94
f 175/252/95 171/253/95 170/246/95
f 171/253/96 172/254/96 167/247/96
f 172/249/97 178/255/97 173/250/97
f 178/255/98 174/251/98 173/250/98
f 179/256/99 175/252/99 174/251/99
f 175/252/100 181/257/100 176/258/100
f 176/258/101 177/259/101 172/254/101
f 177/260/102 183/261/102 178/255/102
f 183/261/103 179/256/103 178/255/103
f 184/262/6 180/263/6 179/256/6
f 180/263/104 186/264/104 181/257/104
f 186/264/105 177/259/105 181/257/105
f 182/265/106 158/266/106 183/261/106
f 183/261/107 159/267/107 184/262/107
f 159/267/108 185/268/108 184/262/108
f 160/269/109 186/264/109 185/268/109
f 161/270/110 182/271/110 186/264/110
f 192/272/111 188/273/111 187/274/111
f 188/273/112 194/275/112 189/276/112
f 194/275/113 190/277/113 189/276/113
f 195/278/114 191/279/114 190/277/114
f 196/280/115 187/281/115 191/279/115
f 192/272/116 198/282/116 193/283/116
f 198/282/117 194/275/117 193/283/117
f 199/284/12 195/278/12 194/275/12
f 195/278/118 201/285/118 196/280/118
f 201/285/119 192/286/119 196/280/119
f 197/287/120 203/288/120 198/282/120
f 203/288/121 199/284/121 198/282/121
f 204/289/122 200/290/122 199/284/122
f 205/291/123 201/285/123 200/290/123
f 206/292/124 197/293/124 201/285/124
f 207/294/125 203/288/125 202/295/125
f 208/296/126 204/289/126 203/288/126
f 209/297/127 205/291/127 204/289/127
f 205/291/128 211/298/128 206/292/128
f 206/292/129 207/299/129 202/300/129
f 207/294/130 213/301/130 208/296/130
f 208/296/131 214/302/131 209/297/131
f 214/302/132 210/303/132 209/297/132
f 215/304/133 211/298/133 210/303/133
f 216/305/134 207/299/134 211/298/134
f 212/306/135 188/307/135 213/301/135
f 188/307/136 214/302/136 213/301/136
f 189/308/137 215/304/137 214/302/137
f 215/304/138 191/309/138 216/305/138
f 191/309/139 212/310/139 216/305/139
f 222/311/110 218/312/110 217/313/110
f 223/314/109 219/315/109 218/312/109
f 224/316/108 220/317/108 219/315/108
f 220/317/107 226/318/107 221/319/107
f 226/318/106 217/320/106 221/319/106
f 222/311/105 228/321/105 223/314/105
f 228/321/104 224/316/104 223/314/104
f 229/322/6 225/323/6 224/316/6
f 225/323/103 231/324/103 226/318/103
f 231/324/102 222/325/102 226/318/102
f 232/326/101 228/321/101 227/327/101
f 233/328/100 229/322/100 228/321/100
f 234/329/99 230/330/99 229/322/99
f 230/330/98 236/331/98 231/324/98
f 236/331/97 227/332/97 231/324/97
f 237/333/96 233/328/96 232/326/96
f 238/334/95 234/329/95 233/328/95
f 239/335/94 235/336/94 234/329/94
f 240/337/93 236/331/93 235/336/93
f 236/331/92 237/338/92 232/339/92
f 237/333/91 243/340/91 238/334/91
f 243/340/90 239/335/90 238/334/90
f 244/341/2 240/337/2 239/335/2
f 245/342/89 241/343/89 240/337/89
f 246/344/88 237/338/88 241/343/88
f 242/345/87 218/346/87 243/340/87
f 218/346/86 244/341/86 243/340/86
f 219/347/85 245/342/85 244/341/85
f 245/342/84 221/348/84 246/344/84
f 221/348/83 242/349/83 246/344/83
f 252/350/83 248/351/83 247/352/83
f 253/353/84 249/354/84 248/351/84
f 254/355/85 250/356/85 249/354/85
f 250/356/86 256/357/86 251/358/86
f 251/358/87 252/359/87 247/360/87
f 257/361/88 253/353/88 252/350/88
f 258/362/89 254/355/89 253/353/89
f 254/355/2 260/363/2 255/364/2
f 260/363/90 256/357/90 255/364/90
f 261/365/91 252/359/91 256/357/91
f 262/366/92 258/362/92 257/361/92
f 258/362/93 264/367/93 259/368/93
f 264/367/94 260/363/94 259/368/94
f 260/363/95 266/369/95 261/365/95
f 261/365/96 262/370/96 257/371/96
f 262/366/97 268/372/97 263/373/97
f 268/372/98 264/367/98 263/373/98
f 269/374/99 265/375/99 264/367/99
f 265/375/100 271/376/100 266/369/100
f 271/376/101 262/370/101 266/369/101
f 267/377/102 273/378/102 268/372/102
f 273/378/103 269/374/103 268/372/103
f 274/379/6 270/380/6 269/374/6
f 270/380/104 276/381/104 271/376/104
f 276/381/105 267/382/105 271/376/105
f 272/383/106 248/384/106 273/378/106
f 248/384/107 274/379/107 273/378/107
f 249/385/108 275/386/108 274/379/108
f 250/387/109 276/381/109 275/386/109
f 251/388/110 272/389/110 276/381/110
f 282/390/111 278/391/111 277/392/111
f 283/393/112 279/394/112 278/391/112
f 284/395/113 280/396/113 279/394/113
f 285/397/114 281/398/114 280/396/114
f 286/399/115 277/400/115 281/398/115
f 282/390/116 288/401/116 283/393/116
f 288/401/117 284/395/117 283/393/117
f 289/402/12 285/397/12 284/395/12
f 285/397/118 291/403/118 286/399/118
f 291/403/119 282/404/119 286/399/119
f 292/405/120 288/401/120 287/406/120
f 293/407/121 289/402/121 288/401/121
f 294/408/122 290/409/122 289/402/122
f 290/409/123 296/410/123 291/403/123
f 296/410/124 287/411/124 291/403/124
f 297/412/125 293/407/125 292/405/125
f 293/407/126 299/413/126 294/408/126
f 299/413/127 295/414/127 294/408/127
f 300/415/128 296/410/128 295/414/128
f 301/416/129 292/417/129 296/410/129
f 297/412/130 303/418/130 298/419/130
f 298/419/131 304/420/131 299/413/131
f 304/420/132 300/415/132 299/413/132
f 305/421/133 301/416/133 300/415/133
f 306/422/134 297/423/134 301/416/134
f 277/424/135 303/418/135 302/425/135
f 303/418/136 279/426/136 304/420/136
f 279/426/137 305/421/137 304/420/137
f 280/427/138 306/422/138 305/421/138
f 281/428/139 302/429/139 306/422/139
f 307/430/110 313/431/110 308/432/110
f 313/431/109 309/433/109 308/432/109
f 309/433/108 315/434/108 310/435/108
f 310/435/107 316/436/107 311/437/107
f 316/436/106 307/438/106 311/437/106
f 312/439/105 318/440/105 313/431/105
f 318/440/104 314/441/104 313/431/104
f 319/442/6 315/434/6 314/441/6
f 315/434/103 321/443/103 316/436/103
f 321/443/102 312/444/102 316/436/102
f 322/445/101 318/440/101 317/446/101
f 318/440/100 324/447/100 319/442/100
f 324/447/99 320/448/99 319/442/99
f 325/449/98 321/443/98 320/448/98
f 326/450/97 317/451/97 321/443/97
f 327/452/96 323/453/96 322/445/96
f 328/454/95 324/455/95 323/456/95
f 329/457/94 325/449/94 324/447/94
f 325/449/93 331/458/93 326/450/93
f 326/450/92 327/459/92 322/460/92
f 332/461/91 328/462/91 327/452/91
f 333/463/90 329/457/90 328/462/90
f 334/464/2 330/465/2 329/457/2
f 335/466/89 331/458/89 330/465/89
f 336/467/88 327/459/88 331/458/88
f 332/461/87 308/468/87 333/463/87
f 333/463/86 309/469/86 334/464/86
f 309/469/85 335/466/85 334/464/85
f 335/466/84 311/470/84 336/467/84
f 311/470/83 332/471/83 336/467/83
f 340/472/130 346/473/130 341/474/130
f 346/473/131 342/475/131 341/474/131
f 347/476/132 343/477/132 342/475/132
f 348/478/133 344/479/133 343/477/133
f 349/480/134 340/481/134 344/479/134
f 350/482/140 346/483/140 345/484/140
f 351/485/141 347/476/141 346/483/141
f 347/476/142 353/486/142 348/478/142
f 348/478/143 354/487/143 349/488/143
f 349/488/144 350/489/144 345/490/144
f 350/491/145 356/492/145 351/493/145
f 351/493/146 357/494/146 352/495/146
f 357/494/147 353/496/147 352/495/147
f 358/497/148 354/498/148 353/496/148
f 359/499/149 350/500/149 354/498/149
f 360/501/116 356/502/116 355/503/116
f 356/502/117 362/504/117 357/494/117
f 362/504/12 358/497/12 357/494/12
f 363/505/118 359/506/118 358/497/118
f 364/507/119 355/508/119 359/506/119
f 370/509/130 366/510/130 365/511/130
f 371/512/131 367/513/131 366/510/131
f 372/514/132 368/515/132 367/513/132
f 368/515/133 374/516/133 369/517/133
f 374/516/134 365/518/134 369/517/134
f 375/519/140 371/520/140 370/521/140
f 376/522/141 372/514/141 371/520/141
f 377/523/142 373/524/142 372/514/142
f 373/524/143 379/525/143 374/526/143
f 374/526/144 375/527/144 370/528/144
f 375/529/145 381/530/145 376/531/145
f 376/531/146 382/532/146 377/533/146
f 382/532/147 378/534/147 377/533/147
f 383/535/148 379/536/148 378/534/148
f 384/537/149 375/538/149 379/536/149
f 380/539/116 386/540/116 381/541/116
f 386/540/117 382/532/117 381/541/117
f 387/542/12 383/535/12 382/532/12
f 383/535/118 389/543/118 384/544/118
f 384/544/119 385/545/119 380/546/119
f 407/547/150 451/548/150 408/549/150
f 459/550/11 483/551/11 458/552/11
f 393/553/151 436/554/151 394/555/151
f 406/556/152 450/557/152 407/547/152
f 405/558/153 446/559/153 404/560/153
f 509/561/154 462/562/154 463/563/154
f 404/560/155 445/564/155 403/565/155
f 405/558/156 436/566/156 447/567/156
f 403/565/49 444/568/49 402/569/49
f 402/569/157 443/570/157 401/571/157
f 393/572/2 405/573/2 534/574/2
f 420/575/158 488/576/158 489/577/158
f 414/578/159 503/579/159 432/580/159
f 469/581/160 514/582/160 468/583/160
f 417/584/161 488/576/161 419/585/161
f 418/586/162 487/587/162 417/584/162
f 431/588/163 496/589/163 427/590/163
f 533/591/13 505/592/13 504/593/13
f 429/594/164 501/595/164 430/596/164
f 413/597/6 424/598/6 415/599/6
f 416/600/165 498/601/165 428/602/165
f 430/596/166 500/603/166 416/600/166
f 424/604/156 484/605/156 415/606/156
f 516/607/167 458/552/167 483/551/167
f 508/608/13 460/609/13 462/610/13
f 510/611/168 465/612/168 511/613/168
f 507/614/169 460/615/169 520/616/169
f 435/617/2 472/618/2 532/619/2
f 469/620/2 447/567/2 448/621/2
f 526/622/2 468/623/2 390/624/2
f 390/624/2 467/625/2 391/626/2
f 391/626/2 466/627/2 392/628/2
f 433/629/2 463/630/2 441/631/2
f 392/628/2 465/632/2 443/570/2
f 531/633/2 476/634/2 434/635/2
f 434/635/2 477/636/2 455/637/2
f 529/638/2 474/639/2 530/640/2
f 525/641/2 438/642/2 457/643/2
f 532/619/2 473/644/2 451/548/2
f 437/645/2 448/646/2 436/554/2
f 534/647/13 478/648/13 437/649/13
f 528/650/2 462/651/2 440/652/2
f 410/653/170 449/654/170 406/556/170
f 399/655/165 439/656/165 397/657/165
f 397/657/166 453/658/166 411/659/166
f 525/641/2 475/660/2 529/638/2
f 398/661/162 440/652/162 409/662/162
f 411/659/164 452/663/164 410/653/164
f 409/664/11 438/665/11 399/666/11
f 511/613/171 466/667/171 512/668/171
f 408/549/163 454/669/163 412/670/163
f 398/661/161 442/671/161 441/631/161
f 512/668/61 467/672/61 513/673/61
f 396/674/159 478/675/159 395/676/159
f 412/670/172 455/637/172 396/677/172
f 401/571/158 442/671/158 400/678/158
f 468/583/173 513/673/173 467/672/173
f 498/679/6 485/680/6 486/681/6
f 504/593/6 483/682/6 481/683/6
f 498/601/6 507/684/6 506/685/6
f 486/686/6 508/687/6 509/688/6
f 488/576/6 509/688/6 510/689/6
f 489/577/6 510/689/6 511/690/6
f 490/691/6 511/690/6 512/692/6
f 491/693/6 512/692/6 513/694/6
f 492/695/6 513/694/6 514/696/6
f 493/697/6 514/696/6 515/698/6
f 484/605/6 515/698/6 516/699/6
f 495/700/6 517/701/6 494/702/6
f 496/589/6 518/703/6 495/700/6
f 494/702/6 521/704/6 499/705/6
f 501/595/6 507/684/6 500/603/6
f 499/705/6 522/706/6 501/595/6
f 502/707/6 519/708/6 496/589/6
f 503/709/6 524/710/6 523/711/6
f 505/712/6 482/713/6 483/714/6
f 480/715/6 504/716/6 481/717/6
f 428/718/11 486/681/11 418/719/11
f 420/575/157 490/691/157 421/720/157
f 415/721/174 505/712/174 413/722/174
f 422/723/49 490/691/49 491/693/49
f 472/724/175 519/725/175 473/726/175
f 422/723/155 492/695/155 423/727/155
f 519/725/176 476/728/176 473/726/176
f 423/727/153 493/697/153 424/604/153
f 524/729/177 459/550/177 477/730/177
f 426/731/152 494/702/152 425/732/152
f 471/733/178 518/734/178 472/724/178
f 432/735/172 502/707/172 431/588/172
f 522/736/179 461/737/179 507/614/179
f 427/590/150 495/700/150 426/731/150
f 521/738/180 475/739/180 522/736/180
f 509/561/181 464/740/181 510/611/181
f 474/741/182 517/742/182 471/733/182
f 425/732/170 499/705/170 429/594/170
f 524/743/183 476/728/183 523/744/183
f 470/745/184 515/746/184 469/581/184
f 456/747/2 478/675/2 455/748/2
f 479/749/2 438/665/2 440/750/2
f 530/640/2 471/751/2 449/654/2
f 527/752/2 464/753/2 442/671/2
f 458/754/2 478/648/2 459/755/2
f 416/756/6 533/757/6 430/758/6
f 430/758/6 533/757/6 429/759/6
f 429/759/6 533/757/6 425/760/6
f 425/760/6 533/757/6 426/761/6
f 426/761/6 533/757/6 427/762/6
f 427/762/6 533/757/6 431/763/6
f 431/763/6 414/764/6 432/765/6
f 533/757/6 428/766/6 418/767/6
f 419/768/6 533/757/6 417/769/6
f 420/770/6 533/757/6 419/768/6
f 421/771/6 533/757/6 420/770/6
f 422/772/6 533/757/6 421/771/6
f 423/773/6 533/757/6 422/772/6
f 424/598/6 533/757/6 423/773/6
f 534/574/2 397/774/2 411/775/2
f 534/574/2 400/776/2 398/777/2
f 534/574/2 401/778/2 400/776/2
f 534/574/2 402/779/2 401/778/2
f 534/574/2 403/780/2 402/779/2
f 534/574/2 404/781/2 403/780/2
f 534/574/2 405/573/2 404/781/2
f 534/574/2 409/782/2 399/783/2
f 411/775/2 410/784/2 534/574/2
f 534/574/2 410/784/2 406/785/2
f 406/785/2 407/786/2 534/574/2
f 534/574/2 407/786/2 408/787/2
f 408/787/2 412/788/2 534/574/2
f 412/788/2 395/789/2 534/574/2
f 21/1/1 5/5/1 6/2/1
f 3/4/2 4/31/2 6/2/2
f 30/8/3 34/790/3 47/6/3
f 47/6/3 36/69/3 32/7/3
f 14/11/185 40/791/185 50/9/185
f 50/9/3 38/54/3 16/792/3
f 17/10/6 18/793/6 14/11/6
f 50/9/186 16/792/186 17/10/186
f 24/12/5 15/16/5 11/13/5
f 16/15/6 11/13/6 15/16/6
f 48/20/7 33/45/7 29/18/7
f 29/18/7 31/44/7 35/19/7
f 8/21/8 7/43/8 26/22/8
f 6/2/187 15/16/187 24/12/187
f 7/24/10 19/794/10 28/25/10
f 11/13/11 16/15/11 3/27/11
f 10/29/12 18/793/12 17/10/12
f 17/17/13 15/16/13 6/2/13
f 21/32/14 1/795/14 12/33/14
f 1/34/15 2/796/15 13/35/15
f 5/28/188 21/32/188 23/14/188
f 22/3/17 24/12/17 13/37/17
f 24/12/18 23/14/18 12/33/18
f 2/38/19 1/797/19 21/1/19
f 26/26/20 28/25/20 32/7/20
f 25/23/21 27/41/21 20/40/21
f 28/25/22 19/794/22 20/40/22
f 8/21/11 20/798/11 19/42/11
f 25/23/23 26/22/23 31/44/23
f 32/7/24 28/25/24 27/41/24
f 49/799/7 37/74/7 33/45/7
f 33/45/7 48/20/7 44/46/7
f 41/47/7 49/799/7 33/45/7
f 29/18/25 30/8/25 27/41/25
f 58/55/189 57/800/189 47/6/189
f 47/6/3 34/790/3 38/54/3
f 38/54/3 50/9/3 58/55/3
f 35/56/28 46/60/28 60/57/28
f 49/52/35 41/77/35 59/59/35
f 46/60/28 42/90/28 59/61/28
f 40/62/33 45/73/33 54/63/33
f 57/65/37 58/81/37 54/66/37
f 14/11/190 9/801/190 39/802/190
f 42/803/191 46/804/191 35/68/191
f 14/11/192 39/802/192 42/803/192
f 45/805/193 40/791/193 14/11/193
f 43/806/193 45/805/193 14/11/193
f 14/11/192 42/803/192 35/68/192
f 35/68/28 31/39/28 32/7/28
f 36/69/194 43/806/194 14/11/194
f 35/68/28 32/7/28 36/69/28
f 47/70/195 57/65/195 53/67/195
f 43/72/33 53/79/33 54/63/33
f 39/75/196 9/807/196 10/29/196
f 4/30/197 3/808/197 37/74/197
f 39/75/198 10/29/198 4/30/198
f 37/74/11 49/799/11 39/75/11
f 44/76/199 60/86/199 59/59/199
f 36/78/28 52/809/28 53/79/28
f 50/48/200 51/50/200 54/66/200
f 9/82/13 14/810/13 18/83/13
f 48/85/201 56/88/201 60/86/201
f 39/89/28 55/811/28 59/61/28
f 37/74/202 3/808/202 16/792/202
f 38/54/3 34/790/3 30/8/3
f 37/74/202 16/792/202 38/54/202
f 29/18/7 33/45/7 37/74/7
f 38/54/40 30/8/40 29/18/40
f 81/91/41 64/108/41 62/92/41
f 67/94/42 68/812/42 105/95/42
f 80/93/2 62/92/2 67/97/2
f 62/92/43 64/108/43 68/99/43
f 61/101/44 66/813/44 65/102/44
f 92/104/2 63/103/2 65/105/2
f 81/91/6 105/110/6 68/107/6
f 81/91/6 82/111/6 106/109/6
f 82/111/6 83/113/6 107/112/6
f 83/113/2 84/814/2 108/114/2
f 84/115/2 85/815/2 109/116/2
f 86/118/2 110/122/2 109/119/2
f 87/121/2 111/816/2 110/122/2
f 88/123/6 112/817/6 111/124/6
f 89/126/6 113/130/6 112/127/6
f 90/129/6 114/132/6 113/130/6
f 90/129/6 91/133/6 115/131/6
f 91/133/6 92/104/6 116/106/6
f 69/134/6 93/137/6 66/135/6
f 70/136/2 94/139/2 93/137/2
f 71/138/2 95/141/2 94/139/2
f 71/138/2 72/142/2 96/140/2
f 72/142/2 73/144/2 97/143/2
f 73/144/2 74/146/2 98/145/2
f 74/146/6 75/148/6 99/147/6
f 75/148/6 76/185/6 100/149/6
f 77/150/6 101/818/6 100/151/6
f 78/153/6 102/157/6 101/154/6
f 79/156/2 103/158/2 102/157/2
f 80/93/2 104/98/2 103/158/2
f 66/159/45 93/163/45 116/160/45
f 94/162/46 115/165/46 116/160/46
f 95/164/47 114/167/47 115/165/47
f 96/166/48 113/169/48 114/167/48
f 97/168/49 112/171/49 113/169/49
f 98/170/50 111/173/50 112/171/50
f 99/172/51 110/175/51 111/173/51
f 99/172/52 100/819/52 109/174/52
f 100/176/53 101/820/53 108/177/53
f 101/179/54 102/182/54 107/180/54
f 102/182/55 103/184/55 106/183/55
f 104/96/56 105/95/56 106/183/56
f 61/101/57 63/103/57 92/104/57
f 69/134/58 92/104/58 91/133/58
f 91/133/59 90/129/59 71/138/59
f 90/129/60 89/126/60 72/142/60
f 89/126/61 88/128/61 73/144/61
f 88/128/203 87/121/203 74/146/203
f 74/146/63 87/121/63 86/118/63
f 75/148/64 86/118/64 85/120/64
f 76/152/65 85/815/65 84/115/65
f 77/155/66 84/814/66 83/113/66
f 78/153/67 83/113/67 82/111/67
f 82/111/68 81/91/68 80/93/68
f 122/186/204 127/197/204 128/187/204
f 123/188/205 128/187/205 129/189/205
f 129/189/71 130/192/71 125/191/71
f 130/192/206 131/194/206 126/193/206
f 131/194/207 127/201/207 122/195/207
f 132/196/208 133/198/208 128/187/208
f 133/198/75 134/199/75 129/189/75
f 134/199/11 135/205/11 130/192/11
f 130/192/76 135/205/76 136/200/76
f 136/200/77 132/208/77 127/201/77
f 117/202/209 118/203/209 133/198/209
f 118/203/210 119/204/210 134/199/210
f 119/204/80 120/821/80 135/205/80
f 135/205/211 120/821/211 121/206/211
f 136/200/212 121/206/212 117/207/212
f 142/209/204 147/220/204 148/210/204
f 143/211/205 148/210/205 149/212/205
f 149/212/71 150/215/71 145/214/71
f 150/215/206 151/217/206 146/216/206
f 151/217/207 147/224/207 142/218/207
f 152/219/74 153/221/74 148/210/74
f 153/221/75 154/222/75 149/212/75
f 154/222/11 155/228/11 150/215/11
f 150/215/76 155/228/76 156/223/76
f 156/223/77 152/231/77 147/224/77
f 137/225/209 138/226/209 153/221/209
f 138/226/210 139/227/210 154/222/210
f 139/227/80 140/822/80 155/228/80
f 155/228/211 140/822/211 141/229/211
f 156/223/212 141/229/212 137/230/212
f 162/232/83 163/235/83 158/233/83
f 163/235/84 164/237/84 159/236/84
f 164/237/85 165/239/85 160/238/85
f 165/239/86 166/241/86 161/240/86
f 166/241/87 162/248/87 157/242/87
f 167/243/88 168/244/88 163/235/88
f 168/244/89 169/245/89 164/237/89
f 169/245/2 170/246/2 165/239/2
f 170/246/90 171/253/90 166/241/90
f 166/241/91 171/253/91 167/247/91
f 172/249/92 173/250/92 168/244/92
f 173/250/93 174/251/93 169/245/93
f 174/251/94 175/252/94 170/246/94
f 175/252/95 176/258/95 171/253/95
f 171/253/96 176/258/96 172/254/96
f 172/249/97 177/260/97 178/255/97
f 178/255/98 179/256/98 174/251/98
f 179/256/99 180/263/99 175/252/99
f 175/252/100 180/263/100 181/257/100
f 176/258/101 181/257/101 177/259/101
f 177/260/102 182/265/102 183/261/102
f 183/261/103 184/262/103 179/256/103
f 184/262/6 185/268/6 180/263/6
f 180/263/104 185/268/104 186/264/104
f 186/264/105 182/271/105 177/259/105
f 182/265/106 157/823/106 158/266/106
f 183/261/107 158/266/107 159/267/107
f 159/267/108 160/269/108 185/268/108
f 160/269/109 161/270/109 186/264/109
f 161/270/110 157/824/110 182/271/110
f 192/272/111 193/283/111 188/273/111
f 188/273/112 193/283/112 194/275/112
f 194/275/113 195/278/113 190/277/113
f 195/278/114 196/280/114 191/279/114
f 196/280/115 192/286/115 187/281/115
f 192/272/116 197/287/116 198/282/116
f 198/282/117 199/284/117 194/275/117
f 199/284/12 200/290/12 195/278/12
f 195/278/118 200/290/118 201/285/118
f 201/285/119 197/293/119 192/286/119
f 197/287/120 202/295/120 203/288/120
f 203/288/121 204/289/121 199/284/121
f 204/289/122 205/291/122 200/290/122
f 205/291/123 206/292/123 201/285/123
f 206/292/124 202/300/124 197/293/124
f 207/294/125 208/296/125 203/288/125
f 208/296/126 209/297/126 204/289/126
f 209/297/127 210/303/127 205/291/127
f 205/291/128 210/303/128 211/298/128
f 206/292/129 211/298/129 207/299/129
f 207/294/130 212/306/130 213/301/130
f 208/296/131 213/301/131 214/302/131
f 214/302/132 215/304/132 210/303/132
f 215/304/133 216/305/133 211/298/133
f 216/305/134 212/310/134 207/299/134
f 212/306/135 187/825/135 188/307/135
f 188/307/136 189/308/136 214/302/136
f 189/308/137 190/826/137 215/304/137
f 215/304/138 190/826/138 191/309/138
f 191/309/139 187/827/139 212/310/139
f 222/311/110 223/314/110 218/312/110
f 223/314/109 224/316/109 219/315/109
f 224/316/108 225/323/108 220/317/108
f 220/317/107 225/323/107 226/318/107
f 226/318/106 222/325/106 217/320/106
f 222/311/105 227/327/105 228/321/105
f 228/321/104 229/322/104 224/316/104
f 229/322/6 230/330/6 225/323/6
f 225/323/103 230/330/103 231/324/103
f 231/324/102 227/332/102 222/325/102
f 232/326/101 233/328/101 228/321/101
f 233/328/100 234/329/100 229/322/100
f 234/329/99 235/336/99 230/330/99
f 230/330/98 235/336/98 236/331/98
f 236/331/97 232/339/97 227/332/97
f 237/333/96 238/334/96 233/328/96
f 238/334/95 239/335/95 234/329/95
f 239/335/94 240/337/94 235/336/94
f 240/337/93 241/343/93 236/331/93
f 236/331/92 241/343/92 237/338/92
f 237/333/91 242/345/91 243/340/91
f 243/340/90 244/341/90 239/335/90
f 244/341/2 245/342/2 240/337/2
f 245/342/89 246/344/89 241/343/89
f 246/344/88 242/349/88 237/338/88
f 242/345/87 217/828/87 218/346/87
f 218/346/86 219/347/86 244/341/86
f 219/347/85 220/829/85 245/342/85
f 245/342/84 220/829/84 221/348/84
f 221/348/83 217/830/83 242/349/83
f 252/350/83 253/353/83 248/351/83
f 253/353/84 254/355/84 249/354/84
f 254/355/85 255/364/85 250/356/85
f 250/356/86 255/364/86 256/357/86
f 251/358/87 256/357/87 252/359/87
f 257/361/88 258/362/88 253/353/88
f 258/362/89 259/368/89 254/355/89
f 254/355/2 259/368/2 260/363/2
f 260/363/90 261/365/90 256/357/90
f 261/365/91 257/371/91 252/359/91
f 262/366/92 263/373/92 258/362/92
f 258/362/93 263/373/93 264/367/93
f 264/367/94 265/375/94 260/363/94
f 260/363/95 265/375/95 266/369/95
f 261/365/96 266/369/96 262/370/96
f 262/366/97 267/377/97 268/372/97
f 268/372/98 269/374/98 264/367/98
f 269/374/99 270/380/99 265/375/99
f 265/375/100 270/380/100 271/376/100
f 271/376/101 267/382/101 262/370/101
f 267/377/102 272/383/102 273/378/102
f 273/378/103 274/379/103 269/374/103
f 274/379/6 275/386/6 270/380/6
f 270/380/104 275/386/104 276/381/104
f 276/381/105 272/389/105 267/382/105
f 272/383/106 247/831/106 248/384/106
f 248/384/107 249/385/107 274/379/107
f 249/385/108 250/387/108 275/386/108
f 250/387/109 251/388/109 276/381/109
f 251/388/110 247/832/110 272/389/110
f 282/390/111 283/393/111 278/391/111
f 283/393/112 284/395/112 279/394/112
f 284/395/113 285/397/113 280/396/113
f 285/397/114 286/399/114 281/398/114
f 286/399/115 282/404/115 277/400/115
f 282/390/116 287/406/116 288/401/116
f 288/401/117 289/402/117 284/395/117
f 289/402/12 290/409/12 285/397/12
f 285/397/118 290/409/118 291/403/118
f 291/403/119 287/411/119 282/404/119
f 292/405/120 293/407/120 288/401/120
f 293/407/121 294/408/121 289/402/121
f 294/408/122 295/414/122 290/409/122
f 290/409/123 295/414/123 296/410/123
f 296/410/124 292/417/124 287/411/124
f 297/412/125 298/419/125 293/407/125
f 293/407/126 298/419/126 299/413/126
f 299/413/127 300/415/127 295/414/127
f 300/415/128 301/416/128 296/410/128
f 301/416/129 297/423/129 292/417/129
f 297/412/130 302/425/130 303/418/130
f 298/419/131 303/418/131 304/420/131
f 304/420/132 305/421/132 300/415/132
f 305/421/133 306/422/133 301/416/133
f 306/422/134 302/429/134 297/423/134
f 277/424/135 278/833/135 303/418/135
f 303/418/136 278/833/136 279/426/136
f 279/426/137 280/427/137 305/421/137
f 280/427/138 281/428/138 306/422/138
f 281/428/139 277/834/139 302/429/139
f 307/430/110 312/439/110 313/431/110
f 313/431/109 314/441/109 309/433/109
f 309/433/108 314/441/108 315/434/108
f 310/435/107 315/434/107 316/436/107
f 316/436/106 312/444/106 307/438/106
f 312/439/105 317/446/105 318/440/105
f 318/440/104 319/442/104 314/441/104
f 319/442/6 320/448/6 315/434/6
f 315/434/103 320/448/103 321/443/103
f 321/443/102 317/451/102 312/444/102
f 322/445/101 323/453/101 318/440/101
f 318/440/100 323/453/100 324/447/100
f 324/447/99 325/449/99 320/448/99
f 325/449/98 326/450/98 321/443/98
f 326/450/97 322/460/97 317/451/97
f 327/452/96 328/462/96 323/453/96
f 328/454/95 329/835/95 324/455/95
f 329/457/94 330/465/94 325/449/94
f 325/449/93 330/465/93 331/458/93
f 326/450/92 331/458/92 327/459/92
f 332/461/91 333/463/91 328/462/91
f 333/463/90 334/464/90 329/457/90
f 334/464/2 335/466/2 330/465/2
f 335/466/89 336/467/89 331/458/89
f 336/467/88 332/471/88 327/459/88
f 332/461/87 307/836/87 308/468/87
f 333/463/86 308/468/86 309/469/86
f 309/469/85 310/837/85 335/466/85
f 335/466/84 310/837/84 311/470/84
f 311/470/83 307/838/83 332/471/83
f 340/472/130 345/839/130 346/473/130
f 346/473/131 347/476/131 342/475/131
f 347/476/132 348/478/132 343/477/132
f 348/478/133 349/480/133 344/479/133
f 349/480/134 345/840/134 340/481/134
f 350/482/140 351/485/140 346/483/140
f 351/485/141 352/841/141 347/476/141
f 347/476/142 352/841/142 353/486/142
f 348/478/143 353/486/143 354/487/143
f 349/488/144 354/487/144 350/489/144
f 350/491/145 355/842/145 356/492/145
f 351/493/146 356/492/146 357/494/146
f 357/494/147 358/497/147 353/496/147
f 358/497/148 359/499/148 354/498/148
f 359/499/149 355/843/149 350/500/149
f 360/501/116 361/844/116 356/502/116
f 356/502/117 361/844/117 362/504/117
f 362/504/12 363/505/12 358/497/12
f 363/505/118 364/507/118 359/506/118
f 364/507/119 360/845/119 355/508/119
f 370/509/130 371/512/130 366/510/130
f 371/512/131 372/514/131 367/513/131
f 372/514/132 373/524/132 368/515/132
f 368/515/133 373/524/133 374/516/133
f 374/516/134 370/846/134 365/518/134
f 375/519/140 376/522/140 371/520/140
f 376/522/141 377/523/141 372/514/141
f 377/523/142 378/847/142 373/524/142
f 373/524/143 378/847/143 379/525/143
f 374/526/144 379/525/144 375/527/144
f 375/529/145 380/848/145 381/530/145
f 376/531/146 381/530/146 382/532/146
f 382/532/147 383/535/147 378/534/147
f 383/535/148 384/537/148 379/536/148
f 384/537/149 380/849/149 375/538/149
f 380/539/116 385/850/116 386/540/116
f 386/540/117 387/542/117 382/532/117
f 387/542/12 388/851/12 383/535/12
f 383/535/118 388/851/118 389/543/118
f 384/544/119 389/543/119 385/545/119
f 407/547/150 450/557/150 451/548/150
f 459/550/11 481/852/11 483/551/11
f 393/553/151 437/645/151 436/554/151
f 406/556/152 449/654/152 450/557/152
f 405/558/153 447/567/153 446/559/153
f 509/561/154 508/853/154 462/562/154
f 404/560/155 446/559/155 445/564/155
f 405/558/156 394/854/156 436/566/156
f 403/565/49 445/564/49 444/568/49
f 402/569/157 444/568/157 443/570/157
f 393/572/2 394/855/2 405/573/2
f 420/575/158 419/585/158 488/576/158
f 414/578/159 504/716/159 503/579/159
f 469/581/160 515/746/160 514/582/160
f 417/584/161 487/587/161 488/576/161
f 418/586/162 486/686/162 487/587/162
f 431/588/163 502/707/163 496/589/163
f 504/593/13 414/856/13 533/591/13
f 533/591/13 413/857/13 505/592/13
f 429/594/164 499/705/164 501/595/164
f 413/597/6 533/757/6 424/598/6
f 416/600/165 500/603/165 498/601/165
f 430/596/166 501/595/166 500/603/166
f 424/604/156 493/697/156 484/605/156
f 516/607/167 470/858/167 458/552/167
f 508/608/213 520/859/213 460/609/213
f 510/611/168 464/740/168 465/612/168
f 507/614/214 461/737/214 460/615/214
f 450/557/2 449/654/2 435/617/2
f 435/617/2 471/751/2 472/618/2
f 532/619/2 450/557/2 435/617/2
f 448/621/2 470/860/2 469/620/2
f 469/620/215 526/622/215 447/567/215
f 447/567/216 436/566/216 448/621/216
f 446/559/2 447/567/2 526/622/2
f 526/622/2 469/620/2 468/623/2
f 390/624/2 446/559/2 526/622/2
f 445/564/2 446/559/2 390/624/2
f 390/624/2 468/623/2 467/625/2
f 391/626/2 445/564/2 390/624/2
f 444/568/2 445/564/2 391/626/2
f 391/626/2 467/625/2 466/627/2
f 392/628/2 444/568/2 391/626/2
f 441/631/2 442/671/2 433/629/2
f 433/629/2 464/753/2 463/630/2
f 463/630/6 528/650/6 441/631/6
f 443/570/2 444/568/2 392/628/2
f 392/628/2 466/627/2 465/632/2
f 465/632/217 527/752/217 443/570/217
f 454/669/2 451/548/2 531/633/2
f 531/633/2 473/644/2 476/634/2
f 434/635/2 454/669/2 531/633/2
f 455/637/2 454/669/2 434/635/2
f 434/635/2 476/634/2 477/636/2
f 477/636/2 456/861/2 455/637/2
f 452/663/2 453/658/2 529/638/2
f 529/638/2 475/660/2 474/639/2
f 530/640/2 452/663/2 529/638/2
f 457/643/2 460/862/2 461/863/2
f 525/641/2 439/656/2 438/642/2
f 457/643/2 461/863/2 525/641/2
f 532/619/2 472/618/2 473/644/2
f 473/644/2 531/633/2 451/548/2
f 451/548/2 450/557/2 532/619/2
f 437/645/2 458/864/2 448/646/2
f 437/649/13 393/865/13 534/647/13
f 534/647/13 395/866/13 478/648/13
f 528/650/2 463/630/2 462/651/2
f 462/651/2 479/867/2 440/652/2
f 440/652/2 441/631/2 528/650/2
f 410/653/170 452/663/170 449/654/170
f 399/655/165 438/642/165 439/656/165
f 397/657/166 439/656/166 453/658/166
f 453/658/2 439/656/2 525/641/2
f 525/641/2 461/863/2 475/660/2
f 529/638/2 453/658/2 525/641/2
f 398/661/162 441/631/162 440/652/162
f 411/659/164 453/658/164 452/663/164
f 409/664/11 440/750/11 438/665/11
f 511/613/171 465/612/171 466/667/171
f 408/549/163 451/548/163 454/669/163
f 398/661/161 400/678/161 442/671/161
f 512/668/61 466/667/61 467/672/61
f 396/674/159 455/748/159 478/675/159
f 412/670/172 454/669/172 455/637/172
f 401/571/158 443/570/158 442/671/158
f 468/583/173 514/582/173 513/673/173
f 498/679/6 497/868/6 485/680/6
f 504/593/6 505/592/6 483/682/6
f 506/685/6 497/869/6 498/601/6
f 498/601/6 500/603/6 507/684/6
f 509/688/6 487/587/6 486/686/6
f 486/686/6 485/870/6 508/687/6
f 488/576/6 487/587/6 509/688/6
f 489/577/6 488/576/6 510/689/6
f 490/691/6 489/577/6 511/690/6
f 491/693/6 490/691/6 512/692/6
f 492/695/6 491/693/6 513/694/6
f 493/697/6 492/695/6 514/696/6
f 516/699/6 482/871/6 484/605/6
f 484/605/6 493/697/6 515/698/6
f 495/700/6 518/703/6 517/701/6
f 496/589/6 519/708/6 518/703/6
f 494/702/6 517/701/6 521/704/6
f 501/595/6 522/706/6 507/684/6
f 499/705/6 521/704/6 522/706/6
f 502/707/6 523/711/6 519/708/6
f 523/711/6 502/707/6 503/709/6
f 503/709/6 480/872/6 524/710/6
f 505/712/6 484/873/6 482/713/6
f 480/715/6 503/579/6 504/716/6
f 428/718/11 498/679/11 486/681/11
f 420/575/157 489/577/157 490/691/157
f 415/721/174 484/873/174 505/712/174
f 422/723/49 421/720/49 490/691/49
f 472/724/175 518/734/175 519/725/175
f 422/723/155 491/693/155 492/695/155
f 519/725/176 523/744/176 476/728/176
f 423/727/153 492/695/153 493/697/153
f 524/729/177 481/852/177 459/550/177
f 426/731/152 495/700/152 494/702/152
f 471/733/178 517/742/178 518/734/178
f 432/735/172 503/709/172 502/707/172
f 522/736/179 475/739/179 461/737/179
f 427/590/150 496/589/150 495/700/150
f 521/738/180 474/741/180 475/739/180
f 509/561/181 463/563/181 464/740/181
f 474/741/182 521/738/182 517/742/182
f 425/732/170 494/702/170 499/705/170
f 524/743/183 477/874/183 476/728/183
f 470/745/184 516/875/184 515/746/184
f 456/747/2 459/876/2 478/675/2
f 479/749/2 457/877/2 438/665/2
f 449/654/2 452/663/2 530/640/2
f 530/640/2 474/639/2 471/751/2
f 471/751/2 435/617/2 449/654/2
f 442/671/2 443/570/2 527/752/2
f 527/752/2 465/632/2 464/753/2
f 464/753/2 433/629/2 442/671/2
f 458/754/2 437/649/2 478/648/2
f 431/763/6 533/757/6 414/764/6
f 418/767/6 417/769/6 533/757/6
f 533/757/6 416/756/6 428/766/6
f 399/783/2 397/774/2 534/574/2
f 534/574/2 398/777/2 409/782/2
f 412/788/2 396/878/2 395/789/2
