# Blender 5.0.1
# www.blender.org
mtllib lamp1.mtl
o lamp1
v 1.210079 2.704683 0.041908
v 1.375378 2.704683 0.207207
v 1.251404 2.704682 -0.082066
v 1.251404 2.704683 0.165882
v 1.499352 2.704682 -0.082066
v 1.499352 2.704683 0.165882
v 1.228141 2.310508 0.041908
v 1.375378 2.310508 -0.105329
v 1.522615 2.310508 0.041908
v 1.375378 2.310508 0.189145
v 1.264951 2.310508 -0.068519
v 1.485806 2.310508 0.152336
v -0.000000 -0.050467 -0.158231
v -0.000000 0.687662 -0.000004
v 0.068654 -0.050467 -0.142561
v 0.123709 -0.050467 -0.098655
v 0.154263 -0.050467 -0.035210
v 0.154263 -0.050467 0.035209
v 0.123709 -0.050467 0.098655
v 0.068654 -0.050467 0.142560
v 0.000000 -0.050467 0.158230
v -0.068654 -0.050467 0.142560
v -0.123709 -0.050467 0.098655
v -0.154263 -0.050467 0.035209
v -0.154263 -0.050467 -0.035210
v -0.123709 -0.050467 -0.098655
v -0.068654 -0.050467 -0.142561
v 0.068653 0.687662 -0.142564
v -0.000000 0.687662 -0.158234
v 0.123709 0.687662 -0.098659
v 0.154263 0.687662 -0.035213
v 0.154263 0.687662 0.035206
v 0.123709 0.687662 0.098651
v 0.068653 0.687662 0.142557
v -0.000000 0.687662 0.158227
v -0.068654 0.687662 0.142557
v -0.123710 0.687662 0.098651
v -0.154263 0.687662 0.035206
v -0.154263 0.687662 -0.035213
v -0.123710 0.687662 -0.098659
v -0.068654 0.687662 -0.142564
v -0.009457 2.948902 0.008523
v -0.005774 3.372723 0.025000
v -0.005774 3.280244 -0.169772
v 0.098759 3.280244 -0.109214
v 0.142058 3.280244 0.025000
v 0.098759 3.271379 0.129533
v -0.013027 3.266128 0.177413
v -0.118663 3.271379 0.134931
v -0.153606 3.280244 0.025000
v -0.110307 3.280244 -0.109214
v 0.098759 3.186844 -0.120911
v 0.142058 3.186844 0.025000
v 0.087853 3.186845 0.136578
v -0.024069 3.180441 0.184229
v -0.127713 3.203257 0.162918
v -0.161590 3.186844 0.030874
v -0.110307 3.186844 -0.120911
v -0.005774 3.186844 -0.190120
v 0.091104 3.077123 -0.108560
v 0.129853 3.075833 0.012608
v 0.076227 3.075833 0.117386
v -0.030201 3.100827 0.190109
v -0.126424 3.114218 0.166646
v -0.153843 3.093240 0.046748
v -0.102652 3.077123 -0.108560
v -0.005774 3.079203 -0.164782
v 0.082591 3.002372 -0.084096
v 0.119192 3.002372 0.004254
v 0.070493 3.002372 0.100524
v -0.027706 3.026868 0.169119
v -0.116096 3.040346 0.148137
v -0.141264 3.022091 0.036724
v -0.094139 3.002372 -0.084096
v -0.005774 3.002685 -0.133308
v -0.005774 3.343951 -0.163312
v 0.110056 3.343951 -0.090830
v 0.158035 3.343951 0.025000
v 0.110056 3.334110 0.140831
v -0.005774 3.326289 0.188809
v -0.121604 3.334110 0.140831
v -0.169583 3.343951 0.025000
v -0.121604 3.343951 -0.090830
v -0.005774 3.243236 -0.194214
v 0.110056 3.243236 -0.125835
v 0.158035 3.243236 0.025000
v 0.110056 3.237233 0.140831
v -0.018716 3.231440 0.196818
v -0.135167 3.237233 0.149327
v -0.169583 3.243236 0.025000
v -0.121604 3.243236 -0.125835
v -0.005774 3.136313 -0.195461
v 0.110056 3.136313 -0.126669
v 0.158035 3.136313 0.025000
v 0.096747 3.136313 0.149266
v -0.025529 3.156251 0.219847
v -0.141373 3.169496 0.188925
v -0.179102 3.132695 0.051984
v -0.121604 3.136313 -0.126669
v -0.005774 3.029153 -0.161400
v 0.095170 3.027882 -0.093603
v 0.136983 3.027882 0.007313
v 0.081958 3.027882 0.116742
v -0.030201 3.053486 0.192229
v -0.132703 3.072399 0.173678
v -0.159630 3.046249 0.040368
v -0.106719 3.027882 -0.093603
v 0.089530 2.954999 -0.093326
v 0.129006 2.954999 0.001962
v 0.081821 2.954999 0.102685
v -0.024118 2.978514 0.166440
v -0.119622 2.995540 0.141732
v -0.140494 2.974044 0.023193
v -0.101078 2.954999 -0.093326
v -0.005774 2.954999 -0.132796
v 0.738217 3.760655 0.148570
v 0.762924 3.701008 0.148570
v 0.738217 3.641361 0.148570
v 0.678570 3.785362 0.148570
v 0.678570 3.760655 0.208217
v 0.678570 3.701008 0.232924
v 0.678570 3.641361 0.208217
v 0.678570 3.616654 0.148570
v 0.618923 3.760655 0.148570
v 0.594216 3.701008 0.148570
v 0.618923 3.641361 0.148570
v -0.057966 3.001305 0.125144
v -0.113362 3.081325 0.167564
v -0.087784 3.039259 0.014606
v -0.143180 3.119280 0.057026
v 0.831580 3.616680 0.082510
v 0.751360 3.732559 0.143938
v 0.788400 3.671642 -0.077561
v 0.708180 3.787521 -0.016133
v 0.162089 3.185550 -0.002567
v 0.106693 3.265571 0.039852
v 0.191907 3.147596 0.107970
v 0.136511 3.227617 0.150390
v 0.600459 -0.010730 0.330906
v 0.150444 0.650030 0.003447
v 0.496282 -0.010730 0.461530
v 0.078343 0.650030 0.093852
v 0.470632 -0.023740 0.227364
v 0.060039 0.650030 -0.068654
v 0.366455 -0.023740 0.357988
v -0.012062 0.650030 0.021751
v 0.549218 0.134558 0.296781
v 0.451614 0.134558 0.419164
v 0.330070 0.121644 0.322228
v 0.427675 0.121644 0.199846
v 0.507785 -0.007515 0.512920
v 0.653120 -0.007515 0.330689
v 0.450915 0.137275 0.472508
v 0.313743 -0.026344 0.370756
v 0.276262 0.118153 0.322307
v 0.471354 -0.026344 0.173133
v 0.415781 0.118153 0.147368
v 0.601070 0.137275 0.284233
v -0.605181 -0.010730 -0.378587
v -0.155160 0.650030 -0.051136
v -0.501006 -0.010730 -0.509212
v -0.083060 0.650030 -0.141542
v -0.475352 -0.023740 -0.275047
v -0.064753 0.650030 0.020964
v -0.371177 -0.023740 -0.405673
v 0.007346 0.650030 -0.069443
v -0.553939 0.134558 -0.344463
v -0.456337 0.134558 -0.466847
v -0.334792 0.121644 -0.369914
v -0.432394 0.121644 -0.247530
v -0.512510 -0.007516 -0.560602
v -0.657842 -0.007516 -0.378369
v -0.455639 0.137275 -0.520191
v -0.318465 -0.026344 -0.418442
v -0.280983 0.118153 -0.369993
v -0.476073 -0.026344 -0.220816
v -0.420499 0.118153 -0.195052
v -0.605791 0.137275 -0.331914
v 0.350351 -0.010730 -0.627861
v 0.024417 0.650030 -0.176740
v 0.481326 -0.010730 -0.524126
v 0.115066 0.650030 -0.104945
v 0.247249 -0.023740 -0.497684
v -0.047378 0.650030 -0.086091
v 0.378225 -0.023740 -0.393949
v 0.043271 0.650030 -0.014296
v 0.316400 0.134558 -0.576505
v 0.439112 0.134558 -0.479315
v 0.342588 0.121644 -0.357444
v 0.219876 0.121644 -0.454634
v 0.532677 -0.007516 -0.535803
v 0.349955 -0.007516 -0.680521
v 0.492458 0.137275 -0.478796
v 0.391171 -0.026344 -0.341281
v 0.342849 0.118153 -0.303636
v 0.193016 -0.026344 -0.498222
v 0.167439 0.118153 -0.442563
v 0.303676 0.137275 -0.628314
v -0.355079 -0.010730 0.580161
v -0.029137 0.650030 0.129046
v -0.486053 -0.010730 0.476424
v -0.119785 0.650030 0.057249
v -0.251975 -0.023740 0.449986
v 0.042659 0.650030 0.038399
v -0.382949 -0.023740 0.346249
v -0.047988 0.650030 -0.033398
v -0.321127 0.134558 0.528805
v -0.443837 0.134558 0.431614
v -0.347312 0.121644 0.309744
v -0.224601 0.121644 0.406936
v -0.537404 -0.007515 0.488100
v -0.354685 -0.007515 0.632821
v -0.497184 0.137275 0.431094
v -0.395894 -0.026344 0.293580
v -0.347571 0.118153 0.255936
v -0.197742 -0.026344 0.450525
v -0.172164 0.118153 0.394866
v -0.308404 0.137275 0.580615
v -0.000000 0.293410 -0.100004
v -0.000000 4.001282 -0.000004
v 0.043388 0.293410 -0.090101
v 0.078183 0.293410 -0.062352
v 0.097493 0.293410 -0.022256
v 0.097493 0.293410 0.022248
v 0.078183 0.293410 0.062345
v 0.043388 0.293410 0.090093
v -0.000000 0.293410 0.099997
v -0.043389 0.293410 0.090093
v -0.078183 0.293410 0.062345
v -0.097493 0.293410 0.022248
v -0.097493 0.293410 -0.022256
v -0.078183 0.293410 -0.062352
v -0.043389 0.293410 -0.090101
v 0.043388 4.001282 -0.090101
v -0.000000 4.001282 -0.100004
v 0.078183 4.001282 -0.062353
v 0.097493 4.001282 -0.022256
v 0.097493 4.001282 0.022248
v 0.078183 4.001283 0.062345
v 0.043388 4.001283 0.090093
v -0.000000 4.001283 0.099996
v -0.043389 4.001283 0.090093
v -0.078183 4.001283 0.062345
v -0.097493 4.001282 0.022248
v -0.097493 4.001282 -0.022256
v -0.078183 4.001282 -0.062353
v -0.043389 4.001282 -0.090101
v -0.111381 3.518373 0.035134
v -0.111381 3.904382 0.035134
v -0.111381 3.518373 -0.201601
v -0.111381 3.904382 -0.201601
v 0.125354 3.518373 0.035134
v 0.125354 3.904382 0.035134
v 0.125354 3.518373 -0.201601
v 0.125354 3.904382 -0.201601
v -0.213605 3.635607 0.139837
v -0.213605 3.819839 0.139837
v -0.213605 3.635607 -0.069469
v -0.213605 3.819839 -0.069469
v 1.662814 3.635607 0.186732
v 1.662814 3.902396 0.186732
v 1.662814 3.635607 -0.116365
v 1.662814 3.902396 -0.116365
v 0.287549 3.588790 -0.069469
v 0.287549 3.773022 -0.069469
v 0.287549 3.588790 0.139837
v 0.287549 3.773022 0.139837
v 0.058778 3.754595 0.139838
v 0.077528 3.709329 0.139838
v 0.058778 3.664063 0.139838
v 0.013512 3.773345 0.139838
v 0.013512 3.754595 0.185104
v 0.013512 3.709329 0.203854
v 0.013512 3.664063 0.185104
v 0.013512 3.645313 0.139838
v -0.031754 3.754595 0.139838
v -0.050504 3.709329 0.139838
v -0.031754 3.664063 0.139838
v 1.179374 3.590089 0.216121
v 1.179374 3.935406 0.216121
v 1.179374 3.590089 -0.132305
v 1.179374 3.935406 -0.132305
v 1.527800 3.590089 0.216121
v 1.527800 3.935406 0.216121
v 1.527800 3.590089 -0.132305
v 1.527800 3.935406 -0.132305
v 1.409710 3.815950 0.219279
v 1.434416 3.756303 0.219279
v 1.409710 3.696656 0.219279
v 1.350063 3.840656 0.219279
v 1.350063 3.815950 0.278926
v 1.350063 3.756303 0.303633
v 1.350063 3.696656 0.278926
v 1.350063 3.671949 0.219279
v 1.290416 3.815950 0.219279
v 1.265709 3.756303 0.219279
v 1.290416 3.696656 0.219279
v 1.350063 3.756302 -0.197368
v 1.350063 3.696655 -0.172662
v 1.409710 3.815949 -0.113014
v 1.434416 3.756302 -0.113014
v 1.409710 3.696655 -0.113014
v 1.350063 3.840656 -0.113014
v 1.350063 3.671949 -0.113014
v 1.290416 3.815949 -0.113014
v 1.265709 3.756302 -0.113014
v 1.290416 3.696655 -0.113014
v 1.350063 3.815949 -0.172662
v 1.378808 3.354332 0.047039
v 1.416808 3.392332 0.047039
v 1.378808 3.430332 0.047039
v 1.340808 3.392332 0.047039
v 1.378808 3.408224 -0.083069
v 1.416808 3.435094 -0.056199
v 1.378808 3.461965 -0.029329
v 1.340808 3.435094 -0.056199
v 1.378808 3.668440 -0.083069
v 1.416808 3.641570 -0.056199
v 1.378808 3.614699 -0.029329
v 1.340808 3.641570 -0.056199
v 1.378808 3.668440 0.177146
v 1.416808 3.641570 0.150276
v 1.378808 3.614700 0.123406
v 1.340808 3.641570 0.150276
v 1.378808 3.408225 0.177147
v 1.416808 3.435095 0.150276
v 1.378808 3.461965 0.123406
v 1.340808 3.435095 0.150276
v 1.378808 3.146597 0.047039
v 1.378808 3.184597 0.009039
v 1.378808 3.222597 0.047039
v 1.378808 3.184597 0.085039
v 1.248700 3.200489 0.047039
v 1.275571 3.227359 0.009039
v 1.302441 3.254230 0.047039
v 1.275571 3.227359 0.085039
v 1.248700 3.460705 0.047039
v 1.275571 3.433834 0.009039
v 1.302441 3.406965 0.047039
v 1.275571 3.433835 0.085039
v 1.378808 3.514597 0.047039
v 1.378808 3.476597 0.009039
v 1.378808 3.438597 0.047039
v 1.378808 3.476597 0.085039
v 1.508916 3.460705 0.047039
v 1.482046 3.433834 0.009039
v 1.455176 3.406965 0.047039
v 1.482046 3.433835 0.085039
v 1.508916 3.200489 0.047039
v 1.482046 3.227359 0.009039
v 1.455176 3.254230 0.047039
v 1.482046 3.227360 0.085039
v 1.378808 2.953006 0.047039
v 1.416808 2.991006 0.047039
v 1.378808 3.029006 0.047039
v 1.340808 2.991006 0.047039
v 1.378808 3.006898 -0.083069
v 1.416808 3.033768 -0.056199
v 1.378808 3.060638 -0.029329
v 1.340808 3.033768 -0.056199
v 1.378808 3.267113 -0.083069
v 1.416808 3.240243 -0.056199
v 1.378808 3.213373 -0.029329
v 1.340808 3.240243 -0.056199
v 1.378808 3.321006 0.047039
v 1.416808 3.283006 0.047039
v 1.378808 3.245006 0.047039
v 1.340808 3.283006 0.047039
v 1.378808 3.267114 0.177146
v 1.416808 3.240244 0.150276
v 1.378808 3.213374 0.123406
v 1.340808 3.240244 0.150276
v 1.378808 3.006898 0.177147
v 1.416808 3.033769 0.150276
v 1.378808 3.060639 0.123406
v 1.340808 3.033769 0.150276
v 1.278441 2.934429 0.041908
v 1.375378 2.934429 -0.055029
v 1.472315 2.934429 0.041908
v 1.375378 2.934429 0.138845
v 1.375378 2.791310 0.254596
v 1.588066 2.791310 0.041908
v 1.375378 2.791310 -0.170780
v 1.375378 2.704682 -0.123391
v 1.375378 2.704682 -0.198498
v 1.375378 2.704682 0.282314
v 1.134972 2.704682 0.041908
v 1.615784 2.704682 0.041908
v 1.540677 2.704682 0.041908
v 1.162690 2.791310 0.041908
v 1.375378 2.208566 0.041908
v 1.199537 2.860474 0.041908
v 1.302675 2.934429 0.114611
v 1.227786 2.208566 -0.105684
v 1.302675 2.934429 -0.030795
v 1.375378 2.860474 -0.133933
v 1.522970 2.208566 -0.105684
v 1.448081 2.934429 -0.030795
v 1.551219 2.860474 0.041908
v 1.375378 2.310151 -0.153897
v 1.448081 2.934429 0.114611
v 1.375378 2.860474 0.217749
v 1.375378 2.208209 -0.157702
v 1.534894 2.791310 -0.117608
v 1.534894 2.791310 0.201424
v 1.555683 2.704682 -0.138397
v 1.195074 2.704682 0.222213
v 1.555683 2.704682 0.222213
v 1.195074 2.704682 -0.138397
v 1.520117 2.310508 0.186647
v 1.520117 2.310508 -0.102831
v 1.230639 2.310508 0.186647
v 1.230639 2.310508 -0.102831
v 1.215862 2.791310 -0.117608
v 1.215862 2.791310 0.201424
v 1.243497 2.860474 0.173789
v 1.522970 2.208566 0.189501
v 1.243497 2.860474 -0.089973
v 1.227786 2.208566 0.189501
v 1.507259 2.860474 0.173789
v 1.375378 2.310151 0.237714
v 1.507259 2.860474 -0.089973
v 1.375378 2.208209 0.241518
v 1.179572 2.310151 0.041908
v 1.175768 2.208209 0.041908
v 1.571184 2.310151 0.041908
v 1.574988 2.208209 0.041908
v 1.264951 2.310508 0.152336
v 1.485806 2.310508 -0.068519
v 1.283387 3.018830 0.041908
v 1.306385 3.018830 0.110901
v 1.306385 3.018830 -0.027085
v 1.375378 3.018830 -0.050083
v 1.444371 3.018830 -0.027085
v 1.467369 3.018830 0.041908
v 1.444371 3.018830 0.110901
v 1.375378 3.018830 0.133899
v 1.375378 3.060638 0.041908
v -0.096725 3.068992 0.164381
v -0.103846 3.052819 0.155118
v -0.099016 3.049287 0.136084
v -0.087066 3.061929 0.126314
v -0.079945 3.078102 0.135577
v -0.084775 3.081634 0.154611
v -0.064418 3.015929 0.184443
v -0.078041 3.009416 0.171402
v -0.072657 3.005061 0.152690
v -0.053650 3.007219 0.147019
v -0.040027 3.013732 0.160061
v -0.045411 3.018087 0.178773
v -0.073940 2.950159 0.198668
v -0.087515 2.950110 0.184045
v -0.082135 2.945259 0.165455
v -0.063180 2.940456 0.161487
v -0.049606 2.940505 0.176109
v -0.054986 2.945356 0.194700
v -0.091975 2.885750 0.210441
v -0.105857 2.883431 0.196299
v -0.100428 2.878938 0.177633
v -0.081118 2.876763 0.173109
v -0.067236 2.879082 0.187251
v -0.072665 2.883575 0.205918
v -0.084039 2.837222 0.223270
v -0.093935 2.823629 0.212528
v -0.088961 2.820424 0.193473
v -0.074092 2.830812 0.185161
v -0.064196 2.844404 0.195903
v -0.069170 2.847610 0.214958
v 1.428026 2.704682 -0.127734
v 1.205736 2.704682 -0.010740
v 1.545020 2.704682 0.094556
v 1.322731 2.704682 0.211550
v 1.217436 2.704682 -0.045838
v 1.287632 2.704682 0.199850
v 1.463124 2.704682 -0.116034
v 1.533321 2.704682 0.129654
v 1.224272 2.310507 -0.004987
v 1.422273 2.310507 -0.109197
v 1.526484 2.310507 0.088803
v 1.328483 2.310507 0.193014
v 1.234694 2.310507 -0.036250
v 1.297220 2.310507 0.182593
v 1.453536 2.310507 -0.098776
v 1.516063 2.310507 0.120066
v 1.504072 2.704682 0.077006
v 1.490010 2.310507 0.073171
v 1.479589 2.310507 0.104434
v 1.492373 2.704682 0.112105
v 1.258384 2.704682 -0.028289
v 1.271167 2.310507 -0.020618
v 1.260746 2.310507 0.010645
v 1.246684 2.704682 0.006810
v 1.406641 2.310507 -0.072724
v 1.410477 2.704682 -0.086786
v 1.437905 2.310507 -0.062302
v 1.445575 2.704682 -0.075086
v 1.312852 2.310507 0.146119
v 1.305181 2.704682 0.158902
v 1.344115 2.310507 0.156540
v 1.340280 2.704682 0.170602
v 1.210079 2.704683 0.041908
v 1.251404 2.704682 -0.082066
v 1.264951 2.310508 -0.068519
v 1.228141 2.310508 0.041908
v 1.485806 2.310508 0.152336
v 1.522615 2.310508 0.041908
v 1.375378 2.704683 0.207207
v 1.251404 2.704683 0.165882
v -0.000000 0.687662 -0.158234
v 0.068653 0.687662 -0.142564
v 0.068654 -0.050467 -0.142561
v -0.000000 -0.050467 -0.158231
v 0.123709 0.687662 -0.098659
v 0.123709 -0.050467 -0.098655
v 0.154263 0.687662 -0.035213
v 0.154263 -0.050467 -0.035210
v 0.154263 0.687662 0.035206
v 0.154263 -0.050467 0.035209
v 0.123709 0.687662 0.098651
v 0.123709 -0.050467 0.098655
v 0.068653 0.687662 0.142557
v 0.068654 -0.050467 0.142560
v -0.000000 0.687662 0.158227
v 0.000000 -0.050467 0.158230
v -0.068654 0.687662 0.142557
v -0.068654 -0.050467 0.142560
v -0.123710 0.687662 0.098651
v -0.123709 -0.050467 0.098655
v -0.154263 0.687662 0.035206
v -0.154263 -0.050467 0.035209
v -0.154263 0.687662 -0.035213
v -0.154263 -0.050467 -0.035210
v -0.123710 0.687662 -0.098659
v -0.123709 -0.050467 -0.098655
v -0.068654 0.687662 -0.142564
v -0.068654 -0.050467 -0.142561
v 0.110056 3.343951 -0.090830
v -0.005774 3.343951 -0.163312
v -0.005774 3.343951 -0.163312
v 0.158035 3.343951 0.025000
v 0.110056 3.334110 0.140831
v -0.005774 3.326289 0.188809
v -0.121604 3.334110 0.140831
v -0.169583 3.343951 0.025000
v -0.121604 3.343951 -0.090830
v -0.005774 3.186844 -0.190120
v -0.025529 3.156251 0.219847
v -0.141373 3.169496 0.188925
v 0.089530 2.954999 -0.093326
v -0.005774 2.954999 -0.132796
v 0.129006 2.954999 0.001962
v 0.081821 2.954999 0.102685
v -0.024118 2.978514 0.166440
v -0.119622 2.995540 0.141732
v -0.119622 2.995540 0.141732
v -0.140494 2.974044 0.023193
v -0.101078 2.954999 -0.093326
v 0.678570 3.701008 0.232924
v 0.106693 3.265571 0.039852
v 0.708180 3.787521 -0.016133
v 0.788400 3.671642 -0.077561
v 0.162089 3.185550 -0.002567
v 0.136511 3.227617 0.150390
v -0.113362 3.081325 0.167564
v -0.057966 3.001305 0.125144
v 0.191907 3.147596 0.107970
v 0.831580 3.616680 0.082510
v -0.143180 3.119280 0.057026
v 0.751360 3.732559 0.143938
v -0.087784 3.039259 0.014606
v 0.549218 0.134558 0.296781
v 0.150444 0.650030 0.003447
v 0.078343 0.650030 0.093852
v 0.451614 0.134558 0.419164
v -0.012062 0.650030 0.021751
v -0.012062 0.650030 0.021751
v 0.330070 0.121644 0.322228
v 0.330070 0.121644 0.322228
v 0.060039 0.650030 -0.068654
v 0.060039 0.650030 -0.068654
v 0.427675 0.121644 0.199846
v 0.427675 0.121644 0.199846
v 0.415781 0.118153 0.147368
v 0.415781 0.118153 0.147368
v 0.276262 0.118153 0.322307
v 0.276262 0.118153 0.322307
v 0.450915 0.137275 0.472508
v 0.450915 0.137275 0.472508
v 0.601070 0.137275 0.284233
v 0.601070 0.137275 0.284233
v 0.471354 -0.026344 0.173133
v 0.471354 -0.026344 0.173133
v 0.653120 -0.007515 0.330689
v 0.653120 -0.007515 0.330689
v 0.313743 -0.026344 0.370756
v 0.313743 -0.026344 0.370756
v 0.507785 -0.007515 0.512920
v 0.507785 -0.007515 0.512920
v -0.553939 0.134558 -0.344463
v -0.155160 0.650030 -0.051136
v -0.083060 0.650030 -0.141542
v -0.456337 0.134558 -0.466847
v 0.007346 0.650030 -0.069443
v 0.007346 0.650030 -0.069443
v -0.334792 0.121644 -0.369914
v -0.334792 0.121644 -0.369914
v -0.064753 0.650030 0.020964
v -0.064753 0.650030 0.020964
v -0.432394 0.121644 -0.247530
v -0.432394 0.121644 -0.247530
v -0.420499 0.118153 -0.195052
v -0.420499 0.118153 -0.195052
v -0.280983 0.118153 -0.369993
v -0.280983 0.118153 -0.369993
v -0.455639 0.137275 -0.520191
v -0.455639 0.137275 -0.520191
v -0.605791 0.137275 -0.331914
v -0.605791 0.137275 -0.331914
v -0.476073 -0.026344 -0.220816
v -0.476073 -0.026344 -0.220816
v -0.657842 -0.007516 -0.378369
v -0.657842 -0.007516 -0.378369
v -0.318465 -0.026344 -0.418442
v -0.318465 -0.026344 -0.418442
v -0.512510 -0.007516 -0.560602
v -0.512510 -0.007516 -0.560602
v 0.316400 0.134558 -0.576505
v 0.024417 0.650030 -0.176740
v 0.115066 0.650030 -0.104945
v 0.439112 0.134558 -0.479315
v 0.043271 0.650030 -0.014296
v 0.043271 0.650030 -0.014296
v 0.342588 0.121644 -0.357444
v 0.342588 0.121644 -0.357444
v -0.047378 0.650030 -0.086091
v -0.047378 0.650030 -0.086091
v 0.219876 0.121644 -0.454634
v 0.219876 0.121644 -0.454634
v 0.167439 0.118153 -0.442563
v 0.167439 0.118153 -0.442563
v 0.342849 0.118153 -0.303636
v 0.342849 0.118153 -0.303636
v 0.492458 0.137275 -0.478796
v 0.492458 0.137275 -0.478796
v 0.303676 0.137275 -0.628314
v 0.303676 0.137275 -0.628314
v 0.193016 -0.026344 -0.498222
v 0.193016 -0.026344 -0.498222
v 0.349955 -0.007516 -0.680521
v 0.349955 -0.007516 -0.680521
v 0.391171 -0.026344 -0.341281
v 0.391171 -0.026344 -0.341281
v 0.532677 -0.007516 -0.535803
v 0.532677 -0.007516 -0.535803
v -0.321127 0.134558 0.528805
v -0.029137 0.650030 0.129046
v -0.119785 0.650030 0.057249
v -0.443837 0.134558 0.431614
v -0.047988 0.650030 -0.033398
v -0.047988 0.650030 -0.033398
v -0.347312 0.121644 0.309744
v -0.347312 0.121644 0.309744
v 0.042659 0.650030 0.038399
v 0.042659 0.650030 0.038399
v -0.224601 0.121644 0.406936
v -0.224601 0.121644 0.406936
v -0.172164 0.118153 0.394866
v -0.172164 0.118153 0.394866
v -0.347571 0.118153 0.255936
v -0.347571 0.118153 0.255936
v -0.497184 0.137275 0.431094
v -0.497184 0.137275 0.431094
v -0.308404 0.137275 0.580615
v -0.308404 0.137275 0.580615
v -0.197742 -0.026344 0.450525
v -0.197742 -0.026344 0.450525
v -0.354685 -0.007515 0.632821
v -0.354685 -0.007515 0.632821
v -0.395894 -0.026344 0.293580
v -0.395894 -0.026344 0.293580
v -0.537404 -0.007515 0.488100
v -0.537404 -0.007515 0.488100
v -0.000000 4.001282 -0.100004
v 0.043388 4.001282 -0.090101
v 0.078183 4.001282 -0.062353
v 0.097493 4.001282 -0.022256
v 0.097493 4.001282 0.022248
v 0.078183 4.001283 0.062345
v 0.043388 4.001283 0.090093
v -0.000000 4.001283 0.099996
v -0.043389 4.001283 0.090093
v -0.078183 4.001283 0.062345
v -0.097493 4.001282 0.022248
v -0.097493 4.001282 -0.022256
v -0.078183 4.001282 -0.062353
v -0.043389 4.001282 -0.090101
v -0.111381 3.518373 0.035134
v -0.111381 3.518373 0.035134
v -0.111381 3.904382 0.035134
v -0.111381 3.904382 0.035134
v -0.111381 3.904382 -0.201601
v -0.111381 3.904382 -0.201601
v -0.111381 3.518373 -0.201601
v -0.111381 3.518373 -0.201601
v 0.125354 3.904382 -0.201601
v 0.125354 3.904382 -0.201601
v 0.125354 3.518373 -0.201601
v 0.125354 3.518373 -0.201601
v 0.125354 3.904382 0.035134
v 0.125354 3.904382 0.035134
v 0.125354 3.518373 0.035134
v 0.125354 3.518373 0.035134
v -0.213605 3.635607 0.139837
v -0.213605 3.635607 0.139837
v -0.213605 3.819839 0.139837
v -0.213605 3.819839 0.139837
v -0.213605 3.819839 -0.069469
v -0.213605 3.819839 -0.069469
v -0.213605 3.635607 -0.069469
v -0.213605 3.635607 -0.069469
v 0.287549 3.773022 -0.069469
v 1.662814 3.902396 -0.116365
v 1.662814 3.902396 -0.116365
v 1.662814 3.635607 -0.116365
v 1.662814 3.635607 -0.116365
v 0.287549 3.588790 -0.069469
v 1.662814 3.902396 0.186732
v 1.662814 3.902396 0.186732
v 1.662814 3.635607 0.186732
v 1.662814 3.635607 0.186732
v 0.287549 3.773022 0.139837
v 0.287549 3.588790 0.139837
v 0.013512 3.709329 0.203854
v 1.179374 3.590089 0.216121
v 1.179374 3.590089 0.216121
v 1.179374 3.935406 0.216121
v 1.179374 3.935406 0.216121
v 1.179374 3.935406 -0.132305
v 1.179374 3.935406 -0.132305
v 1.179374 3.590089 -0.132305
v 1.179374 3.590089 -0.132305
v 1.527800 3.935406 -0.132305
v 1.527800 3.935406 -0.132305
v 1.527800 3.590089 -0.132305
v 1.527800 3.590089 -0.132305
v 1.527800 3.935406 0.216121
v 1.527800 3.935406 0.216121
v 1.527800 3.590089 0.216121
v 1.527800 3.590089 0.216121
v 1.350063 3.756303 0.303633
v 1.350063 3.756302 -0.197368
v 1.378808 3.354332 0.047039
v 1.378808 3.408224 -0.083069
v 1.416808 3.435094 -0.056199
v 1.416808 3.392332 0.047039
v 1.378808 3.461965 -0.029329
v 1.378808 3.430332 0.047039
v 1.340808 3.435094 -0.056199
v 1.340808 3.392332 0.047039
v 1.340808 3.641570 -0.056199
v 1.378808 3.614699 -0.029329
v 1.378808 3.668440 -0.083069
v 1.378808 3.461965 0.123406
v 1.378808 3.614700 0.123406
v 1.416808 3.641570 0.150276
v 1.416808 3.435095 0.150276
v 1.416808 3.641570 -0.056199
v 1.340808 3.435095 0.150276
v 1.340808 3.641570 0.150276
v 1.378808 3.408225 0.177147
v 1.378808 3.668440 0.177146
v 1.378808 3.146597 0.047039
v 1.248700 3.200489 0.047039
v 1.275571 3.227359 0.009039
v 1.378808 3.184597 0.009039
v 1.302441 3.254230 0.047039
v 1.378808 3.222597 0.047039
v 1.275571 3.227359 0.085039
v 1.378808 3.184597 0.085039
v 1.275571 3.433835 0.085039
v 1.302441 3.406965 0.047039
v 1.248700 3.460705 0.047039
v 1.455176 3.254230 0.047039
v 1.455176 3.406965 0.047039
v 1.482046 3.433834 0.009039
v 1.482046 3.227359 0.009039
v 1.275571 3.433834 0.009039
v 1.378808 3.514597 0.047039
v 1.378808 3.476597 0.009039
v 1.378808 3.438597 0.047039
v 1.378808 3.476597 0.085039
v 1.508916 3.460705 0.047039
v 1.482046 3.433835 0.085039
v 1.482046 3.227360 0.085039
v 1.508916 3.200489 0.047039
v 1.378808 2.953006 0.047039
v 1.378808 3.006898 -0.083069
v 1.416808 3.033768 -0.056199
v 1.416808 2.991006 0.047039
v 1.378808 3.060638 -0.029329
v 1.378808 3.029006 0.047039
v 1.340808 3.033768 -0.056199
v 1.340808 2.991006 0.047039
v 1.340808 3.240243 -0.056199
v 1.378808 3.213373 -0.029329
v 1.378808 3.267113 -0.083069
v 1.378808 3.060639 0.123406
v 1.378808 3.213374 0.123406
v 1.416808 3.240244 0.150276
v 1.416808 3.033769 0.150276
v 1.416808 3.240243 -0.056199
v 1.378808 3.321006 0.047039
v 1.416808 3.283006 0.047039
v 1.378808 3.245006 0.047039
v 1.340808 3.283006 0.047039
v 1.378808 3.267114 0.177146
v 1.340808 3.240244 0.150276
v 1.340808 3.033769 0.150276
v 1.378808 3.006898 0.177147
v 1.444371 3.018830 0.110901
v 1.375378 3.018830 0.133899
v 1.306385 3.018830 0.110901
v 1.283387 3.018830 0.041908
v 1.306385 3.018830 -0.027085
v 1.375378 3.018830 -0.050083
v 1.444371 3.018830 -0.027085
v 1.467369 3.018830 0.041908
v 1.375378 2.704682 0.282314
v 1.555683 2.704682 0.222213
v 1.375378 2.704682 -0.198498
v 1.555683 2.704682 -0.138397
v 1.179572 2.310151 0.041908
v 1.230639 2.310508 -0.102831
v 1.227786 2.208566 -0.105684
v 1.175768 2.208209 0.041908
v 1.227786 2.208566 0.189501
v 1.230639 2.310508 0.186647
v 1.571184 2.310151 0.041908
v 1.520117 2.310508 0.186647
v 1.522970 2.208566 0.189501
v 1.574988 2.208209 0.041908
v 1.522970 2.208566 -0.105684
v 1.520117 2.310508 -0.102831
v 1.615784 2.704682 0.041908
v 1.195074 2.704682 0.222213
v 1.195074 2.704682 -0.138397
v 1.134972 2.704682 0.041908
v 1.375378 2.208209 -0.157702
v 1.375378 2.310151 -0.153897
v 1.375378 2.310151 0.237714
v 1.375378 2.208209 0.241518
v -0.096725 3.068992 0.164381
v -0.064418 3.015929 0.184443
v -0.087066 3.061929 0.126314
v -0.053650 3.007219 0.147019
v -0.073940 2.950159 0.198668
v -0.063180 2.940456 0.161487
v -0.091975 2.885750 0.210441
v -0.081118 2.876763 0.173109
v -0.084039 2.837222 0.223270
v -0.074092 2.830812 0.185161
v 1.499352 2.704682 -0.082066
v 1.375378 2.704682 -0.123391
v 1.540677 2.704682 0.041908
v 1.499352 2.704683 0.165882
v 1.264951 2.310508 0.152336
v 1.375378 2.310508 0.189145
v 1.375378 2.310508 -0.105329
v 1.485806 2.310508 -0.068519
v 1.217436 2.704682 -0.045838
v 1.234694 2.310507 -0.036250
v 1.224272 2.310507 -0.004987
v 1.205736 2.704682 -0.010740
v 1.297220 2.310507 0.182593
v 1.287632 2.704682 0.199850
v 1.533321 2.704682 0.129654
v 1.516063 2.310507 0.120066
v 1.526484 2.310507 0.088803
v 1.545020 2.704682 0.094556
v 1.428026 2.704682 -0.127734
v 1.422273 2.310507 -0.109197
v 1.328483 2.310507 0.193014
v 1.322731 2.704682 0.211550
v 1.453536 2.310507 -0.098776
v 1.463124 2.704682 -0.116034
vn -0.9990 -0.0458 -0.0000
vn -0.7063 -0.0485 -0.7063
vn 0.7063 -0.0485 0.7063
vn 0.9990 -0.0458 -0.0000
vn -0.7063 -0.0485 0.7063
vn -0.0000 -0.0458 0.9990
vn 0.7063 -0.0485 -0.7063
vn -0.0000 -0.0458 -0.9990
vn -0.0000 -0.0000 -1.0000
vn 0.4339 -0.0000 -0.9010
vn 0.7818 -0.0000 -0.6235
vn 0.9749 -0.0000 -0.2225
vn 0.9749 -0.0000 0.2225
vn 0.7818 -0.0000 0.6235
vn 0.4339 -0.0000 0.9010
vn -0.0000 -0.0000 1.0000
vn -0.4339 -0.0000 0.9010
vn -0.7818 -0.0000 0.6235
vn -0.9749 -0.0000 0.2225
vn -0.9749 -0.0000 -0.2225
vn -0.7818 -0.0000 -0.6235
vn -0.4339 -0.0000 -0.9010
vn -0.0000 -1.0000 -0.0000
vn -0.0000 1.0000 -0.0000
vn -0.0000 0.9885 -0.1510
vn -0.0000 0.9987 0.0511
vn 0.1310 0.9848 -0.1136
vn 0.1728 0.9841 0.0420
vn 0.1090 0.9706 0.2146
vn -0.0000 0.9621 0.2727
vn -0.1090 0.9706 0.2146
vn -0.1728 0.9841 0.0420
vn -0.1310 0.9848 -0.1136
vn -0.7712 0.1492 -0.6188
vn -0.7414 0.2552 -0.6207
vn -0.0000 0.3734 -0.9277
vn -0.0000 0.1914 -0.9815
vn -0.9896 0.1418 -0.0224
vn -0.9898 0.1425 -0.0023
vn -0.7559 0.2056 0.6215
vn -0.7095 0.2159 0.6709
vn 0.0342 0.1618 0.9862
vn 0.0162 0.1804 0.9835
vn 0.7217 0.0522 0.6903
vn 0.7046 0.1060 0.7017
vn 0.9970 0.0599 0.0500
vn 0.9937 0.1070 0.0341
vn 0.7752 0.1358 -0.6169
vn 0.7414 0.2552 -0.6207
vn -0.0000 -0.1326 -0.9912
vn 0.5301 0.0162 -0.8478
vn 0.7845 0.0168 -0.6199
vn 0.7842 -0.0917 -0.6137
vn 0.9975 -0.0079 0.0708
vn 0.9927 -0.0811 0.0895
vn 0.7032 0.0522 0.7091
vn 0.7075 -0.0624 0.7039
vn 0.1480 0.3362 0.9301
vn 0.1779 0.6543 0.7350
vn -0.6668 0.3327 0.6668
vn -0.0412 0.7329 0.6791
vn -0.8079 -0.1730 0.5633
vn -0.9936 0.0879 -0.0713
vn -0.9958 -0.0889 0.0221
vn -0.7798 0.0150 -0.6258
vn -0.7798 -0.1212 -0.6141
vn -0.5301 0.0162 -0.8478
vn -0.7655 -0.3166 -0.5602
vn -0.7382 -0.2551 -0.6245
vn -0.0000 -0.3284 -0.9445
vn -0.0000 -0.3868 -0.9222
vn -0.9649 -0.2600 -0.0368
vn -0.9828 -0.1822 -0.0312
vn -0.6797 -0.2184 0.7002
vn -0.6871 -0.2273 0.6901
vn 0.1301 -0.2968 0.9460
vn 0.1313 -0.2363 0.9628
vn 0.6982 -0.2888 0.6551
vn 0.7200 -0.2166 0.6593
vn 0.9699 -0.2401 0.0392
vn 0.9797 -0.1910 0.0614
vn 0.7600 -0.2937 -0.5798
vn 0.7411 -0.2436 -0.6257
vn -0.0000 0.1260 -0.9920
vn -0.0000 -0.3377 -0.9412
vn 0.7253 -0.2364 -0.6466
vn 0.7092 0.1695 -0.6843
vn 0.9754 -0.2186 0.0271
vn 0.9755 0.2194 0.0158
vn 0.7118 -0.2413 0.6596
vn 0.7695 0.1529 0.6201
vn 0.1041 -0.4032 0.9092
vn 0.2362 0.0089 0.9717
vn -0.6344 -0.4663 0.6166
vn -0.2547 -0.0940 0.9624
vn -0.9800 -0.0135 0.1986
vn -0.9531 -0.3022 -0.0187
vn -0.9821 0.0916 -0.1644
vn -0.7438 -0.2452 -0.6219
vn -0.7049 0.1375 -0.6959
vn -0.8123 -0.0437 -0.5816
vn -0.5131 0.1202 -0.8499
vn -0.9868 -0.1615 -0.0146
vn -0.7249 -0.1483 0.6727
vn 0.0333 -0.1883 0.9816
vn 0.7109 -0.2431 0.6600
vn 0.9797 -0.2002 -0.0007
vn 0.8123 -0.0437 -0.5816
vn 0.5131 0.1202 -0.8499
vn 0.0347 -0.4891 0.8715
vn -0.0716 -0.9950 0.0698
vn -0.0925 -0.9954 0.0236
vn 0.0002 -0.9991 -0.0431
vn -0.1686 -0.9725 0.1605
vn -0.1914 -0.9650 0.1795
vn -0.1746 -0.9706 0.1658
vn -0.0388 -0.9940 0.1020
vn 0.0440 -0.9990 0.0004
vn 0.0303 -0.9991 -0.0304
vn 0.6140 -0.4961 0.6140
vn 0.7071 -0.0000 0.7071
vn -0.0000 -0.6285 0.7778
vn 0.6140 0.4961 0.6140
vn -0.0000 0.9239 0.3827
vn -0.0000 0.6285 0.7778
vn -0.0000 -0.9239 0.3827
vn -0.7071 -0.0000 0.7071
vn -0.6140 -0.4961 0.6140
vn -0.6140 0.4961 0.6140
vn -0.2822 0.2895 -0.9146
vn -0.2811 0.2903 -0.9147
vn -0.3149 0.2651 -0.9113
vn 0.2540 -0.3099 0.9162
vn 0.2538 -0.3100 0.9162
vn 0.2472 -0.3147 0.9164
vn 0.4894 -0.7757 -0.3984
vn 0.5316 -0.7467 -0.3998
vn 0.4881 -0.7766 -0.3983
vn -0.5149 0.7586 0.3994
vn -0.4436 0.8041 0.3958
vn -0.5128 0.7600 0.3993
vn -0.5791 0.7103 0.4001
vn 0.4436 -0.8041 -0.3958
vn 0.2604 -0.3053 0.9160
vn -0.2472 0.3147 -0.9164
vn 0.0974 0.9922 0.0777
vn 0.3092 0.9185 0.2466
vn 0.3095 0.9183 0.2469
vn 0.0971 0.9923 0.0775
vn -0.6245 0.0396 0.7800
vn -0.5925 -0.6524 -0.4726
vn 0.6218 0.0354 -0.7824
vn 0.0611 -0.9969 0.0487
vn -0.0647 0.9966 -0.0516
vn 0.6230 0.0367 -0.7814
vn -0.7229 -0.3808 -0.5765
vn -0.6232 0.0367 0.7812
vn 0.7045 0.4335 0.5619
vn -0.0974 0.9922 -0.0777
vn -0.3092 0.9185 -0.2466
vn -0.3095 0.9183 -0.2468
vn -0.0971 0.9923 -0.0775
vn 0.6245 0.0396 -0.7800
vn 0.5925 -0.6524 0.4725
vn -0.6218 0.0354 0.7824
vn -0.0611 -0.9969 -0.0487
vn 0.0647 0.9966 0.0516
vn -0.6230 0.0367 0.7814
vn 0.7229 -0.3808 0.5765
vn 0.6232 0.0367 -0.7812
vn -0.7045 0.4335 -0.5619
vn 0.0773 0.9922 -0.0977
vn 0.2456 0.9185 -0.3101
vn 0.2458 0.9183 -0.3104
vn 0.0771 0.9923 -0.0974
vn 0.7821 0.0396 0.6219
vn -0.4705 -0.6524 0.5941
vn -0.7845 0.0354 -0.6192
vn 0.0485 -0.9969 -0.0612
vn -0.0514 0.9966 0.0649
vn -0.7835 0.0367 -0.6203
vn -0.5741 -0.3808 0.7248
vn 0.7833 0.0367 0.6206
vn 0.5595 0.4335 -0.7064
vn -0.0773 0.9922 0.0976
vn -0.2456 0.9185 0.3100
vn -0.2458 0.9183 0.3104
vn -0.0771 0.9923 0.0974
vn -0.7821 0.0396 -0.6219
vn 0.4706 -0.6524 -0.5941
vn 0.7845 0.0354 0.6192
vn -0.0485 -0.9969 0.0612
vn 0.0514 0.9966 -0.0649
vn 0.7835 0.0367 0.6203
vn 0.5741 -0.3808 -0.7248
vn -0.7833 0.0367 -0.6206
vn -0.5595 0.4335 0.7064
vn -1.0000 -0.0000 -0.0000
vn 1.0000 -0.0000 -0.0000
vn -0.0174 -0.0000 -0.9998
vn -0.0170 -0.0000 -0.9999
vn -0.0341 -0.0000 -0.9994
vn -0.0174 -0.0000 0.9998
vn -0.0170 -0.0000 0.9999
vn -0.0289 -0.9996 -0.0000
vn 0.0340 -0.9994 -0.0000
vn -0.0013 1.0000 -0.0000
vn 0.0930 0.9957 -0.0000
vn -0.0937 0.9956 -0.0000
vn -0.0930 -0.9957 -0.0000
vn -0.0341 -0.0000 0.9994
vn 0.6139 -0.4961 0.6140
vn 0.7071 -0.0000 -0.7071
vn -0.0000 0.6285 -0.7778
vn 0.6140 0.4961 -0.6140
vn -0.0000 -0.6285 -0.7778
vn 0.6140 -0.4961 -0.6140
vn -0.0000 0.9239 -0.3827
vn -0.0000 -0.9239 -0.3827
vn -0.7071 -0.0000 -0.7071
vn -0.6140 0.4961 -0.6140
vn -0.6140 -0.4961 -0.6140
vn 0.7071 -0.7071 -0.0000
vn 0.7025 -0.4164 -0.5771
vn 0.6936 -0.3528 -0.6281
vn 0.7071 0.7071 -0.0000
vn 0.7025 0.4164 0.5771
vn 0.6936 0.3528 0.6281
vn -0.7071 0.7071 -0.0000
vn -0.6936 0.3528 0.6281
vn -0.7025 0.4164 0.5771
vn -0.7071 -0.7071 -0.0000
vn -0.6936 -0.3528 -0.6281
vn -0.7025 -0.4164 -0.5771
vn -0.5774 -0.0000 0.8165
vn -0.5773 -0.0000 -0.8165
vn 0.7025 0.4164 -0.5771
vn 0.6936 0.3528 -0.6281
vn 0.5774 -0.0000 -0.8165
vn 0.5773 -0.0000 -0.8165
vn -0.6936 0.3528 -0.6281
vn -0.7025 0.4164 -0.5771
vn -0.5774 -0.0000 -0.8165
vn -0.6936 -0.3528 0.6281
vn -0.7025 -0.4164 0.5771
vn 0.5774 -0.0000 0.8165
vn 0.7025 -0.4164 0.5771
vn 0.6936 -0.3528 0.6281
vn -0.0000 -0.7071 -0.7071
vn -0.5771 -0.4164 -0.7025
vn -0.6281 -0.3528 -0.6936
vn -0.0000 0.7071 -0.7071
vn 0.5771 0.4164 -0.7025
vn 0.6281 0.3528 -0.6936
vn -0.0000 0.7071 0.7071
vn 0.6281 0.3528 0.6936
vn 0.5771 0.4164 0.7025
vn -0.0000 -0.7071 0.7071
vn -0.6281 -0.3528 0.6936
vn -0.5771 -0.4164 0.7025
vn 0.6281 -0.3528 0.6936
vn 0.5771 -0.4164 0.7025
vn -0.6281 0.3528 0.6936
vn -0.5771 0.4164 0.7025
vn -0.5771 0.4164 -0.7025
vn -0.6281 0.3528 -0.6936
vn 0.5771 -0.4164 -0.7025
vn 0.6281 -0.3528 -0.6936
vn -0.8900 0.4559 -0.0000
vn -0.8055 0.5926 -0.0000
vn -0.5620 0.6070 0.5620
vn -0.6168 0.4889 0.6168
vn -0.0000 0.4559 0.8900
vn 0.6168 0.4889 0.6168
vn 0.7057 0.0620 0.7057
vn -0.0000 0.0585 0.9983
vn -0.7057 0.0620 0.7057
vn -0.6168 0.4889 -0.6168
vn -0.5620 0.6070 -0.5620
vn -0.0000 0.4559 -0.8900
vn -0.0000 0.5926 -0.8055
vn -0.9983 0.0585 -0.0000
vn -0.7057 0.0620 -0.7057
vn 0.6168 0.4889 -0.6168
vn 0.5620 0.6069 -0.5620
vn 0.8900 0.4559 -0.0000
vn 0.8055 0.5926 -0.0000
vn -0.0000 0.0585 -0.9983
vn 0.7057 0.0620 -0.7057
vn 0.5620 0.6070 0.5620
vn -0.0000 0.5926 0.8055
vn 0.9983 0.0585 -0.0000
vn -0.0000 0.3827 0.9239
vn -0.6484 0.3988 0.6484
vn -0.0000 0.3047 0.9524
vn 0.6696 0.3214 0.6696
vn 0.6484 0.3988 0.6484
vn -0.9993 0.0376 -0.0000
vn -0.7066 0.0393 -0.7066
vn -0.7066 0.0393 0.7066
vn 0.9993 0.0376 -0.0000
vn 0.7066 0.0393 0.7066
vn 0.7066 0.0393 -0.7066
vn 0.9239 0.3827 -0.0000
vn 0.9524 0.3047 -0.0000
vn 0.6696 0.3214 -0.6696
vn 0.6484 0.3988 -0.6484
vn -0.6696 0.3214 0.6696
vn -0.0000 0.3827 -0.9239
vn -0.0000 0.3047 -0.9524
vn -0.6696 0.3214 -0.6696
vn -0.6484 0.3988 -0.6484
vn 0.0043 1.0000 -0.0000
vn 0.0022 1.0000 0.0022
vn -0.0000 -1.0000 0.0018
vn 0.0022 1.0000 -0.0022
vn -0.0018 -1.0000 -0.0000
vn -0.9239 0.3827 -0.0000
vn -0.9524 0.3047 -0.0000
vn -0.0000 0.0376 -0.9993
vn -0.0000 1.0000 0.0043
vn -0.0022 1.0000 0.0022
vn -0.0000 0.0376 0.9993
vn -0.0022 1.0000 -0.0022
vn -0.0000 1.0000 -0.0043
vn -0.0000 -1.0000 -0.0018
vn 0.0018 -1.0000 -0.0000
vn -0.0043 1.0000 -0.0000
vn -0.4138 0.9104 -0.0000
vn -0.2785 0.9192 0.2785
vn -0.2785 0.9192 -0.2785
vn -0.0000 0.9104 -0.4138
vn 0.2785 0.9192 -0.2785
vn 0.4138 0.9104 -0.0000
vn 0.2785 0.9192 0.2785
vn -0.0000 0.9104 0.4138
vn 0.2119 0.4577 0.8635
vn 0.2355 0.3186 0.9182
vn 0.7162 0.3304 0.6148
vn 0.6434 0.5854 0.4934
vn -0.8445 -0.3543 0.4015
vn -0.9394 -0.0831 0.3327
vn -0.7042 0.0650 0.7070
vn -0.6627 -0.1207 0.7391
vn -0.5573 -0.5630 -0.6103
vn -0.6332 -0.3239 -0.7029
vn -0.2136 -0.4551 -0.8644
vn -0.2363 -0.3146 -0.9193
vn 0.8573 0.4138 -0.3063
vn 0.9596 0.1285 -0.2502
vn 0.7028 -0.0585 -0.7090
vn 0.6598 0.1251 -0.7409
vn 0.2441 0.1410 0.9594
vn 0.6925 0.0002 0.7214
vn -0.9481 0.2448 0.2027
vn -0.7101 0.2804 0.6458
vn -0.6760 -0.0007 -0.7369
vn -0.2442 -0.1392 -0.9597
vn 0.9538 -0.2361 -0.1857
vn 0.7102 -0.2781 -0.6467
vn 0.2577 0.1934 0.9467
vn 0.6740 0.1016 0.7317
vn -0.9761 0.0853 0.2000
vn -0.7250 0.1804 0.6647
vn -0.7278 -0.1235 -0.6745
vn -0.2553 -0.2030 -0.9453
vn 0.9615 -0.1365 -0.2385
vn 0.7276 -0.1976 -0.6569
vn 0.2791 0.2758 0.9198
vn 0.6413 0.2538 0.7241
vn -0.9720 -0.1360 0.1914
vn -0.7367 0.0459 0.6746
vn -0.7693 -0.3006 -0.5637
vn -0.2736 -0.2930 -0.9161
vn 0.9521 0.0244 -0.3049
vn 0.7450 -0.0771 -0.6626
vn -0.9475 -0.0492 -0.3158
vn 0.9475 -0.0492 0.3158
vn -0.3158 -0.0492 0.9475
vn 0.3158 -0.0492 -0.9475
vn 0.3939 -0.0051 -0.9191
vn -0.3939 -0.0051 0.9191
vn -0.9191 -0.0051 -0.3939
vn 0.9191 -0.0051 0.3939
vt 0.955010 0.292679
vt 0.955010 0.322085
vt 0.865406 0.322344
vt 0.865406 0.292679
vt 0.955010 0.441241
vt 0.865406 0.441155
vt 0.865406 0.411413
vt 0.955010 0.411413
vt 0.955010 0.500741
vt 0.865406 0.500482
vt 0.865406 0.470849
vt 0.955010 0.471022
vt 0.955010 0.381585
vt 0.865406 0.381672
vt 0.865406 0.351977
vt 0.955010 0.351804
vt 0.399753 0.772032
vt 0.399755 0.940530
vt 0.383680 0.940530
vt 0.383678 0.772032
vt 0.367604 0.940530
vt 0.367603 0.772033
vt 0.351529 0.940530
vt 0.351528 0.772033
vt 0.335455 0.940530
vt 0.335454 0.772033
vt 0.319380 0.940530
vt 0.319379 0.772033
vt 0.303305 0.940530
vt 0.303304 0.772033
vt 0.287229 0.940530
vt 0.287229 0.772033
vt 0.271155 0.940530
vt 0.271154 0.772033
vt 0.255080 0.940530
vt 0.255079 0.772033
vt 0.239004 0.940530
vt 0.239004 0.772033
vt 0.222930 0.940531
vt 0.222929 0.772034
vt 0.206855 0.940531
vt 0.206854 0.772034
vt 0.431903 0.772032
vt 0.431905 0.940529
vt 0.415830 0.940530
vt 0.415828 0.772032
vt 0.407911 0.713397
vt 0.404334 0.729069
vt 0.394311 0.741637
vt 0.379828 0.748612
vt 0.363753 0.748612
vt 0.349270 0.741637
vt 0.339248 0.729069
vt 0.335671 0.713397
vt 0.339248 0.697725
vt 0.349270 0.685158
vt 0.363753 0.678183
vt 0.379828 0.678183
vt 0.394311 0.685158
vt 0.404334 0.697725
vt 0.531599 0.048219
vt 0.566813 0.056256
vt 0.559838 0.070739
vt 0.566813 0.040181
vt 0.559838 0.025698
vt 0.547271 0.015675
vt 0.531599 0.012099
vt 0.515926 0.015675
vt 0.503359 0.025698
vt 0.496384 0.040181
vt 0.496384 0.056256
vt 0.503358 0.070739
vt 0.515926 0.080762
vt 0.531599 0.084339
vt 0.547270 0.080762
vt 0.162565 0.797146
vt 0.197700 0.779648
vt 0.162565 0.763546
vt 0.197700 0.744295
vt 0.162565 0.726286
vt 0.162565 0.985945
vt 0.197700 0.973674
vt 0.162565 0.956863
vt 0.197700 0.942750
vt 0.162565 0.928281
vt 0.197700 0.913718
vt 0.162565 0.896706
vt 0.197700 0.877795
vt 0.162565 0.865256
vt 0.197700 0.846088
vt 0.162565 0.829969
vt 0.197700 0.813501
vt 0.132331 0.829969
vt 0.142439 0.829969
vt 0.142439 0.797146
vt 0.132331 0.797146
vt 0.132331 0.865256
vt 0.142439 0.865256
vt 0.132331 0.896706
vt 0.142439 0.896706
vt 0.132331 0.928281
vt 0.142439 0.928281
vt 0.132331 0.956863
vt 0.142439 0.956863
vt 0.132331 0.985945
vt 0.142439 0.985945
vt 0.132331 0.763546
vt 0.142439 0.763546
vt 0.142439 0.726286
vt 0.132331 0.726286
vt 0.103443 0.797146
vt 0.114431 0.797146
vt 0.114431 0.763546
vt 0.103443 0.763546
vt 0.114431 0.726286
vt 0.103443 0.726286
vt 0.103443 0.985945
vt 0.114431 0.985945
vt 0.114431 0.956863
vt 0.103443 0.956863
vt 0.114431 0.928281
vt 0.103443 0.928281
vt 0.114431 0.896706
vt 0.103443 0.896706
vt 0.114431 0.865256
vt 0.103443 0.865256
vt 0.114431 0.829969
vt 0.103443 0.829969
vt 0.071572 0.829969
vt 0.083346 0.829969
vt 0.083346 0.797146
vt 0.071572 0.797146
vt 0.071572 0.865256
vt 0.083346 0.865256
vt 0.071572 0.896706
vt 0.083346 0.896706
vt 0.071572 0.928281
vt 0.083346 0.928281
vt 0.071572 0.956863
vt 0.083346 0.956863
vt 0.071572 0.985945
vt 0.083346 0.985945
vt 0.071572 0.763546
vt 0.083346 0.763546
vt 0.083346 0.726286
vt 0.071572 0.726286
vt 0.042586 0.797146
vt 0.053290 0.797146
vt 0.053290 0.763546
vt 0.042586 0.763546
vt 0.053290 0.726286
vt 0.042586 0.726286
vt 0.042586 0.985945
vt 0.053290 0.985945
vt 0.053290 0.956863
vt 0.042586 0.956863
vt 0.053290 0.928281
vt 0.042586 0.928281
vt 0.053290 0.896706
vt 0.042586 0.896706
vt 0.053290 0.865256
vt 0.042586 0.865256
vt 0.053290 0.829969
vt 0.042586 0.829969
vt 0.147684 0.829969
vt 0.147684 0.797146
vt 0.147684 0.865256
vt 0.147684 0.896706
vt 0.147684 0.928281
vt 0.147684 0.956863
vt 0.147684 0.985945
vt 0.147684 0.763546
vt 0.147684 0.726286
vt 0.120509 0.797146
vt 0.120509 0.763546
vt 0.120509 0.726286
vt 0.120509 0.985945
vt 0.120509 0.956863
vt 0.120509 0.928281
vt 0.120509 0.896706
vt 0.120509 0.865256
vt 0.120509 0.829969
vt 0.091117 0.829969
vt 0.091117 0.797146
vt 0.091117 0.865256
vt 0.091117 0.896706
vt 0.091117 0.928281
vt 0.091117 0.956863
vt 0.091117 0.985945
vt 0.091117 0.763546
vt 0.091117 0.726286
vt 0.059398 0.797146
vt 0.059398 0.763546
vt 0.059398 0.726286
vt 0.059398 0.985945
vt 0.059398 0.956863
vt 0.059398 0.928281
vt 0.059398 0.896706
vt 0.059398 0.865256
vt 0.059398 0.829969
vt 0.010669 0.813501
vt 0.010669 0.846088
vt 0.010669 0.878956
vt 0.010669 0.913718
vt 0.010669 0.942750
vt 0.010669 0.973674
vt 0.010669 0.744295
vt 0.010669 0.779648
vt 0.850801 0.320654
vt 0.855575 0.335277
vt 0.830720 0.335277
vt 0.830720 0.321488
vt 0.850801 0.349900
vt 0.840277 0.361119
vt 0.830720 0.349066
vt 0.840277 0.309434
vt 0.805865 0.335277
vt 0.810639 0.320654
vt 0.821163 0.361119
vt 0.810639 0.349900
vt 0.821163 0.309434
vt 0.347773 0.104297
vt 0.371934 0.102491
vt 0.394966 0.283577
vt 0.359865 0.285502
vt 0.320457 0.104101
vt 0.296153 0.103054
vt 0.296245 0.036166
vt 0.320100 0.038286
vt 0.319771 0.284779
vt 0.268423 0.102299
vt 0.269074 0.036014
vt 0.245414 0.283465
vt 0.285333 0.285162
vt 0.347820 0.038235
vt 0.372051 0.036014
vt 0.897747 0.707680
vt 0.893338 0.870766
vt 0.866941 0.870766
vt 0.862013 0.707680
vt 0.848448 0.889602
vt 0.835048 0.730940
vt 0.822226 0.892636
vt 0.799551 0.735048
vt 0.924784 0.730856
vt 0.911890 0.889545
vt 0.862119 0.944637
vt 0.862119 0.906614
vt 0.900259 0.906614
vt 0.900259 0.944637
vt 0.866941 0.897163
vt 0.893338 0.897163
vt 0.867685 0.641914
vt 0.903419 0.641914
vt 0.911091 0.651539
vt 0.860012 0.651539
vt 0.903419 0.606303
vt 0.867685 0.606303
vt 0.858065 0.598809
vt 0.913038 0.598809
vt 0.955276 0.596225
vt 0.955357 0.634248
vt 0.945592 0.641883
vt 0.947722 0.586845
vt 0.856700 0.687212
vt 0.914403 0.687212
vt 0.823382 0.586845
vt 0.825511 0.641882
vt 0.912156 0.562131
vt 0.858947 0.562130
vt 0.815746 0.634248
vt 0.815827 0.596225
vt 0.866482 0.552734
vt 0.904622 0.552734
vt 0.904622 0.694826
vt 0.866481 0.694826
vt 0.660818 0.720320
vt 0.656409 0.883406
vt 0.630012 0.883406
vt 0.625084 0.720320
vt 0.611518 0.902242
vt 0.598119 0.743580
vt 0.585297 0.905276
vt 0.562622 0.747688
vt 0.687855 0.743496
vt 0.674961 0.902184
vt 0.662130 0.917024
vt 0.662130 0.955048
vt 0.623990 0.955048
vt 0.623990 0.917024
vt 0.630012 0.909803
vt 0.656409 0.909803
vt 0.602860 0.647803
vt 0.638594 0.647803
vt 0.646267 0.657428
vt 0.595188 0.657428
vt 0.638594 0.612192
vt 0.602860 0.612192
vt 0.593241 0.604698
vt 0.648214 0.604698
vt 0.690452 0.602114
vt 0.690533 0.640138
vt 0.680768 0.647772
vt 0.682898 0.592734
vt 0.591876 0.693101
vt 0.649579 0.693101
vt 0.558557 0.592734
vt 0.560687 0.647772
vt 0.647332 0.568020
vt 0.594123 0.568020
vt 0.550922 0.640138
vt 0.551003 0.602114
vt 0.601657 0.558624
vt 0.639798 0.558624
vt 0.639797 0.700715
vt 0.601657 0.700715
vt 0.714814 0.950664
vt 0.719222 0.787577
vt 0.745619 0.787577
vt 0.750547 0.950664
vt 0.764113 0.768742
vt 0.777512 0.927403
vt 0.790335 0.765707
vt 0.813009 0.923296
vt 0.687776 0.927487
vt 0.700671 0.768799
vt 0.712062 0.957293
vt 0.750086 0.957293
vt 0.750086 0.995433
vt 0.712062 0.995433
vt 0.745619 0.761180
vt 0.719222 0.761180
vt 0.763620 0.663691
vt 0.727886 0.663691
vt 0.720213 0.654066
vt 0.771292 0.654066
vt 0.727886 0.699302
vt 0.763619 0.699302
vt 0.773239 0.706796
vt 0.718266 0.706796
vt 0.676028 0.709380
vt 0.675947 0.671357
vt 0.685712 0.663722
vt 0.683582 0.718760
vt 0.774604 0.618393
vt 0.716901 0.618393
vt 0.807923 0.718760
vt 0.805793 0.663722
vt 0.719148 0.743474
vt 0.772357 0.743474
vt 0.815558 0.671357
vt 0.815477 0.709380
vt 0.764823 0.752871
vt 0.726682 0.752871
vt 0.726683 0.610779
vt 0.764823 0.610780
vt 0.469217 0.945014
vt 0.473625 0.781928
vt 0.500022 0.781928
vt 0.504950 0.945014
vt 0.518515 0.763092
vt 0.531916 0.921754
vt 0.544737 0.760057
vt 0.567412 0.917646
vt 0.442179 0.921838
vt 0.455074 0.763149
vt 0.505987 0.990215
vt 0.467963 0.990215
vt 0.467963 0.952074
vt 0.505987 0.952074
vt 0.500022 0.755531
vt 0.473625 0.755531
vt 0.505803 0.656670
vt 0.470070 0.656670
vt 0.462397 0.647045
vt 0.513476 0.647045
vt 0.470069 0.692281
vt 0.505803 0.692281
vt 0.515423 0.699774
vt 0.460450 0.699774
vt 0.418212 0.702359
vt 0.418131 0.664335
vt 0.427896 0.656701
vt 0.425766 0.711739
vt 0.516788 0.611371
vt 0.459085 0.611371
vt 0.550107 0.711739
vt 0.547977 0.656701
vt 0.461332 0.736453
vt 0.514541 0.736453
vt 0.557742 0.664335
vt 0.557661 0.702359
vt 0.507007 0.745849
vt 0.468866 0.745849
vt 0.468867 0.603758
vt 0.507007 0.603758
vt 0.070013 0.005706
vt 0.070013 0.707613
vt 0.054049 0.707613
vt 0.054049 0.005706
vt 0.038085 0.707613
vt 0.038085 0.005706
vt 0.022121 0.707613
vt 0.022121 0.005706
vt 0.006157 0.707613
vt 0.006157 0.005706
vt 0.229651 0.005706
vt 0.229651 0.707613
vt 0.213687 0.707613
vt 0.213687 0.005706
vt 0.197723 0.707613
vt 0.197723 0.005706
vt 0.181759 0.707613
vt 0.181759 0.005706
vt 0.165796 0.707613
vt 0.165796 0.005706
vt 0.149832 0.707613
vt 0.149832 0.005706
vt 0.133868 0.707613
vt 0.133868 0.005706
vt 0.117904 0.707613
vt 0.117904 0.005706
vt 0.101940 0.707613
vt 0.101940 0.005706
vt 0.085976 0.707613
vt 0.085976 0.005706
vt 0.272980 0.718991
vt 0.293550 0.709094
vt 0.295807 0.718999
vt 0.287219 0.701149
vt 0.278067 0.696738
vt 0.267908 0.696734
vt 0.258753 0.701139
vt 0.252416 0.709080
vt 0.250152 0.718984
vt 0.252409 0.728889
vt 0.258741 0.736834
vt 0.267892 0.741245
vt 0.278052 0.741248
vt 0.287206 0.736844
vt 0.293543 0.728903
vt 0.844430 0.060350
vt 0.932547 0.060350
vt 0.932547 0.114391
vt 0.844431 0.114391
vt 0.932547 0.168432
vt 0.844431 0.168431
vt 0.932547 0.222472
vt 0.844431 0.222472
vt 0.844431 0.006309
vt 0.932547 0.006309
vt 0.790390 0.168432
vt 0.790390 0.114391
vt 0.986588 0.114391
vt 0.986588 0.168431
vt 0.430490 0.579365
vt 0.430910 0.537093
vt 0.478935 0.537571
vt 0.478515 0.579843
vt 0.523161 0.419979
vt 0.480509 0.420553
vt 0.467815 0.102226
vt 0.526989 0.105208
vt 0.463712 0.043147
vt 0.400696 0.106888
vt 0.396593 0.047809
vt 0.570585 0.421363
vt 0.612466 0.424846
vt 0.610562 0.540425
vt 0.568505 0.535796
vt 0.597298 0.108666
vt 0.432058 0.421603
vt 0.520027 0.534610
vt 0.658284 0.111815
vt 0.847387 0.249840
vt 0.850857 0.260725
vt 0.831873 0.260371
vt 0.832470 0.250356
vt 0.846581 0.272758
vt 0.837553 0.280440
vt 0.831276 0.270385
vt 0.839630 0.241454
vt 0.812889 0.260017
vt 0.817165 0.247983
vt 0.824116 0.279287
vt 0.816359 0.270901
vt 0.826193 0.240301
vt 0.747936 0.329312
vt 0.669109 0.329312
vt 0.669109 0.249775
vt 0.747936 0.249775
vt 0.669109 0.170237
vt 0.747936 0.170237
vt 0.669109 0.090700
vt 0.747936 0.090700
vt 0.669109 0.011163
vt 0.747936 0.011163
vt 0.827474 0.011163
vt 0.827474 0.090700
vt 0.589571 0.090700
vt 0.589571 0.011163
vt 0.803301 0.276662
vt 0.808840 0.290659
vt 0.783851 0.291898
vt 0.783737 0.278679
vt 0.804298 0.306863
vt 0.793119 0.317772
vt 0.783964 0.305116
vt 0.792350 0.266333
vt 0.758862 0.293136
vt 0.763404 0.276932
vt 0.775351 0.317462
vt 0.764400 0.307134
vt 0.774583 0.266023
vt 0.784649 0.223055
vt 0.784873 0.209837
vt 0.804482 0.208321
vt 0.809661 0.222455
vt 0.784425 0.236272
vt 0.804707 0.238538
vt 0.793799 0.197716
vt 0.793253 0.249158
vt 0.759636 0.223654
vt 0.764591 0.207572
vt 0.764815 0.237789
vt 0.776045 0.196952
vt 0.775499 0.248394
vt 0.283167 0.385175
vt 0.283167 0.405808
vt 0.271817 0.405808
vt 0.271817 0.385138
vt 0.260493 0.405808
vt 0.260493 0.384959
vt 0.305740 0.384861
vt 0.305740 0.405808
vt 0.293909 0.405808
vt 0.293909 0.385120
vt 0.305740 0.455028
vt 0.293909 0.455028
vt 0.283167 0.455028
vt 0.271817 0.364638
vt 0.260493 0.364638
vt 0.260493 0.314858
vt 0.271817 0.314858
vt 0.271817 0.455028
vt 0.305740 0.364638
vt 0.293909 0.364638
vt 0.293909 0.314858
vt 0.305740 0.314858
vt 0.283167 0.364638
vt 0.283167 0.314858
vt 0.260493 0.455028
vt 0.332839 0.384710
vt 0.332839 0.407966
vt 0.322328 0.407966
vt 0.322328 0.384710
vt 0.310994 0.407966
vt 0.310994 0.384710
vt 0.356504 0.384710
vt 0.356504 0.407966
vt 0.344127 0.407966
vt 0.344127 0.384710
vt 0.356504 0.452135
vt 0.344127 0.452135
vt 0.332839 0.452135
vt 0.322328 0.362185
vt 0.310994 0.362185
vt 0.310994 0.320766
vt 0.322328 0.320766
vt 0.322328 0.452135
vt 0.332839 0.479507
vt 0.322328 0.479786
vt 0.310994 0.480036
vt 0.310994 0.452135
vt 0.356504 0.478873
vt 0.344127 0.479157
vt 0.332839 0.296566
vt 0.332839 0.320766
vt 0.322328 0.296566
vt 0.310994 0.296566
vt 0.356504 0.296566
vt 0.356504 0.320766
vt 0.344127 0.320766
vt 0.344127 0.296566
vt 0.356504 0.362185
vt 0.344127 0.362185
vt 0.332839 0.362185
vt 0.385157 0.385225
vt 0.385157 0.408114
vt 0.373778 0.408114
vt 0.373778 0.385225
vt 0.362385 0.408114
vt 0.362385 0.385225
vt 0.408716 0.385225
vt 0.408716 0.408114
vt 0.396552 0.408114
vt 0.396552 0.385225
vt 0.408716 0.452842
vt 0.396552 0.452842
vt 0.385157 0.452842
vt 0.373778 0.363161
vt 0.362385 0.363161
vt 0.362385 0.321090
vt 0.373778 0.321090
vt 0.373778 0.452842
vt 0.385157 0.480439
vt 0.373778 0.480439
vt 0.362385 0.480439
vt 0.362385 0.452842
vt 0.408716 0.480439
vt 0.396552 0.480439
vt 0.385157 0.296627
vt 0.385157 0.321090
vt 0.373778 0.296627
vt 0.362385 0.296627
vt 0.408716 0.296627
vt 0.408716 0.321090
vt 0.396552 0.321090
vt 0.396552 0.296627
vt 0.408716 0.363161
vt 0.396552 0.363161
vt 0.385157 0.363161
vt 0.708681 0.443077
vt 0.691259 0.425655
vt 0.736661 0.405765
vt 0.736661 0.431168
vt 0.764642 0.443077
vt 0.776550 0.471057
vt 0.758930 0.471057
vt 0.751618 0.456101
vt 0.736661 0.448789
vt 0.696772 0.471057
vt 0.671369 0.471057
vt 0.708681 0.499038
vt 0.691259 0.516460
vt 0.721705 0.456101
vt 0.714393 0.471058
vt 0.736661 0.510946
vt 0.736661 0.536350
vt 0.764642 0.499038
vt 0.782063 0.516460
vt 0.721705 0.486014
vt 0.736661 0.493326
vt 0.801954 0.471057
vt 0.782063 0.425655
vt 0.751618 0.486014
vt 0.794541 0.413178
vt 0.736661 0.388070
vt 0.820480 0.410475
vt 0.839589 0.449562
vt 0.819649 0.471057
vt 0.676079 0.554876
vt 0.715166 0.573985
vt 0.700675 0.585057
vt 0.673800 0.571917
vt 0.280562 0.598896
vt 0.258715 0.590833
vt 0.270360 0.557788
vt 0.292437 0.565204
vt 0.292437 0.632587
vt 0.270360 0.640003
vt 0.258715 0.606958
vt 0.371695 0.598896
vt 0.393542 0.606958
vt 0.381897 0.640003
vt 0.359821 0.632587
vt 0.359821 0.565204
vt 0.381897 0.557788
vt 0.393542 0.590833
vt 0.794541 0.528937
vt 0.797243 0.554876
vt 0.758157 0.573985
vt 0.736661 0.554045
vt 0.797244 0.387239
vt 0.758157 0.368130
vt 0.678782 0.528937
vt 0.652843 0.531640
vt 0.633734 0.492553
vt 0.653674 0.471057
vt 0.820480 0.531639
vt 0.839589 0.492553
vt 0.955010 0.530319
vt 0.865406 0.529974
vt 0.799523 0.370197
vt 0.772648 0.357058
vt 0.635801 0.533919
vt 0.622662 0.507044
vt 0.837522 0.533919
vt 0.850661 0.507044
vt 0.676079 0.387239
vt 0.673800 0.370197
vt 0.700675 0.357058
vt 0.715166 0.368129
vt 0.402177 0.613912
vt 0.392910 0.638815
vt 0.326129 0.598896
vt 0.326129 0.553329
vt 0.392910 0.558976
vt 0.402177 0.583879
vt 0.837521 0.408196
vt 0.850661 0.435071
vt 0.652843 0.410475
vt 0.633734 0.449562
vt 0.622662 0.435071
vt 0.635801 0.408196
vt 0.678782 0.413178
vt 0.334191 0.531482
vt 0.367236 0.543127
vt 0.311112 0.674944
vt 0.286209 0.665677
vt 0.285021 0.654664
vt 0.318067 0.666309
vt 0.799523 0.571917
vt 0.772648 0.585056
vt 0.285021 0.543127
vt 0.318067 0.531482
vt 0.326129 0.644462
vt 0.367236 0.654664
vt 0.334191 0.666309
vt 0.286209 0.532114
vt 0.311112 0.522847
vt 0.341145 0.522847
vt 0.366048 0.532114
vt 0.259347 0.638815
vt 0.250080 0.613912
vt 0.250080 0.583879
vt 0.259347 0.558976
vt 0.366048 0.665677
vt 0.341145 0.674944
vt 0.736661 0.471057
vt 0.218556 0.970230
vt 0.234066 0.970772
vt 0.234247 0.975003
vt 0.216655 0.974924
vt 0.220305 0.965860
vt 0.233752 0.965851
vt 0.219954 0.961545
vt 0.233776 0.960408
vt 0.217700 0.957304
vt 0.233818 0.955497
vt 0.216655 0.980000
vt 0.234285 0.979065
vt 0.234445 0.983274
vt 0.218636 0.984647
vt 0.249558 0.969815
vt 0.249737 0.974144
vt 0.249406 0.965385
vt 0.249436 0.960775
vt 0.249594 0.956390
vt 0.249845 0.978591
vt 0.249910 0.982931
vt 0.264386 0.968955
vt 0.264559 0.973449
vt 0.264314 0.964914
vt 0.264183 0.960959
vt 0.264201 0.956835
vt 0.264868 0.978334
vt 0.265116 0.982994
vt 0.275690 0.969415
vt 0.273322 0.973305
vt 0.277746 0.965185
vt 0.277498 0.960465
vt 0.275121 0.956388
vt 0.273272 0.977675
vt 0.275858 0.981375
vt 0.994230 0.872508
vt 0.994230 0.879786
vt 0.923001 0.879808
vt 0.923001 0.872571
vt 0.994230 0.915407
vt 0.923001 0.915407
vt 0.923001 0.908102
vt 0.994230 0.908102
vt 0.922806 0.976790
vt 0.994769 0.976787
vt 0.994769 0.984129
vt 0.922806 0.984135
vt 0.922806 0.941332
vt 0.994769 0.941332
vt 0.994769 0.948781
vt 0.922806 0.948741
vt 0.994230 0.898405
vt 0.923001 0.898408
vt 0.923001 0.924633
vt 0.994230 0.924640
vt 0.994769 0.958526
vt 0.922806 0.958491
vt 0.922806 0.931948
vt 0.994769 0.931907
vt 0.922806 0.967039
vt 0.994769 0.967043
vt 0.994769 0.993407
vt 0.922806 0.993419
vt 0.923001 0.872505
vt 0.923001 0.863304
vt 0.994230 0.863304
vt 0.994230 0.872563
vt 0.994230 0.889483
vt 0.923001 0.889502
s 1
usemtl Material.002
f 501/1/1 502/2/2 503/3/2 504/4/1
f 865/5/3 505/6/3 506/7/4 389/8/4
f 508/9/5 428/10/5 867/11/6 507/12/6
f 862/13/7 429/14/7 868/15/8 384/16/8
f 512/17/9 509/18/9 510/19/10 511/20/10
f 511/20/10 510/19/10 513/21/11 514/22/11
f 514/22/11 513/21/11 515/23/12 516/24/12
f 516/24/12 515/23/12 517/25/13 518/26/13
f 518/26/13 517/25/13 519/27/14 520/28/14
f 520/28/14 519/27/14 521/29/15 522/30/15
f 522/30/15 521/29/15 523/31/16 524/32/16
f 524/32/16 523/31/16 525/33/17 526/34/17
f 526/34/17 525/33/17 527/35/18 528/36/18
f 528/36/18 527/35/18 529/37/19 530/38/19
f 530/38/19 529/37/19 531/39/20 532/40/20
f 532/40/20 531/39/20 533/41/21 534/42/21
f 534/43/21 533/44/21 535/45/22 536/46/22
f 536/46/22 535/45/22 509/18/9 512/17/9
f 13/47/23 15/48/23 16/49/23 17/50/23 18/51/23 19/52/23 20/53/23 21/54/23 22/55/23 23/56/23 24/57/23 25/58/23 26/59/23 27/60/23
f 14/61/24 28/62/24 29/63/24
f 14/61/24 30/64/24 28/62/24
f 14/61/24 31/65/24 30/64/24
f 14/61/24 32/66/24 31/65/24
f 14/61/24 33/67/24 32/66/24
f 14/61/24 34/68/24 33/67/24
f 14/61/24 35/69/24 34/68/24
f 14/61/24 36/70/24 35/69/24
f 14/61/24 37/71/24 36/70/24
f 14/61/24 38/72/24 37/71/24
f 14/61/24 39/73/24 38/72/24
f 14/61/24 40/74/24 39/73/24
f 14/61/24 41/75/24 40/74/24
f 14/61/24 29/63/24 41/75/24
f 538/76/25 43/77/26 537/78/27
f 537/78/27 43/79/26 540/80/28
f 540/81/28 43/82/26 541/83/29
f 541/83/29 43/84/26 542/85/30
f 542/85/30 43/86/26 543/87/31
f 543/87/31 43/88/26 544/89/32
f 544/89/32 43/90/26 545/91/33
f 545/91/33 43/92/26 538/76/25
f 91/93/34 51/94/35 44/95/36 84/96/37
f 90/97/38 50/98/39 51/94/35 91/93/34
f 89/99/40 49/100/41 50/98/39 90/97/38
f 88/101/42 48/102/43 49/100/41 89/99/40
f 87/103/44 47/104/45 48/102/43 88/101/42
f 86/105/46 46/106/47 47/104/45 87/103/44
f 85/107/48 45/108/49 46/109/47 86/110/46
f 84/96/37 44/95/36 45/108/49 85/107/48
f 92/111/50 546/112/51 52/113/52 93/114/53
f 93/114/53 52/113/52 53/115/54 94/116/55
f 94/117/55 53/118/54 54/119/56 95/120/57
f 95/120/57 54/119/56 55/121/58 547/122/59
f 547/122/59 55/121/58 56/123/60 548/124/61
f 97/124/62 56/123/60 57/125/63 98/126/64
f 98/126/64 57/125/63 58/127/65 99/128/66
f 99/128/66 58/127/65 59/112/67 92/111/50
f 107/129/68 66/130/69 67/131/70 100/132/71
f 106/133/72 65/134/73 66/130/69 107/129/68
f 105/135/74 64/136/75 65/134/73 106/133/72
f 104/137/76 63/138/77 64/136/75 105/135/74
f 103/139/78 62/140/79 63/138/77 104/137/76
f 102/141/80 61/142/81 62/140/79 103/139/78
f 101/143/82 60/144/83 61/145/81 102/146/80
f 100/132/71 67/131/70 60/144/83 101/143/82
f 550/147/84 75/148/85 68/149/86 549/150/87
f 549/150/87 68/149/86 69/151/88 551/152/89
f 551/153/89 69/154/88 70/155/90 552/156/91
f 552/156/91 70/155/90 71/157/92 553/158/93
f 553/158/93 71/157/92 72/159/94 554/160/95
f 555/160/96 72/159/94 73/161/97 556/162/98
f 556/162/98 73/161/97 74/163/99 557/164/100
f 557/164/100 74/163/99 75/148/85 550/147/84
f 51/165/35 83/91/101 539/76/102 44/166/36
f 50/167/39 82/89/103 83/91/101 51/165/35
f 49/168/41 81/87/104 82/89/103 50/167/39
f 48/169/43 80/85/105 81/87/104 49/168/41
f 47/170/45 79/83/106 80/85/105 48/169/43
f 46/171/47 78/81/107 79/83/106 47/170/45
f 45/172/49 77/78/108 78/80/107 46/173/47
f 44/166/36 76/76/109 77/78/108 45/172/49
f 546/174/51 84/96/37 85/107/48 52/175/52
f 52/175/52 85/107/48 86/110/46 53/176/54
f 53/177/54 86/105/46 87/103/44 54/178/56
f 54/178/56 87/103/44 88/101/42 55/179/58
f 55/179/58 88/101/42 89/99/40 56/180/60
f 56/180/60 89/99/40 90/97/38 57/181/63
f 57/181/63 90/97/38 91/93/34 58/182/65
f 58/182/65 91/93/34 84/96/37 59/174/67
f 66/183/69 99/128/66 92/111/50 67/184/70
f 65/185/73 98/126/64 99/128/66 66/183/69
f 64/186/75 97/124/62 98/126/64 65/185/73
f 63/187/77 96/122/110 97/124/62 64/186/75
f 62/188/79 95/120/57 96/122/110 63/187/77
f 61/189/81 94/117/55 95/120/57 62/188/79
f 60/190/83 93/114/53 94/116/55 61/191/81
f 67/184/70 92/111/50 93/114/53 60/190/83
f 75/192/85 100/132/71 101/143/82 68/193/86
f 68/193/86 101/143/82 102/146/80 69/194/88
f 69/195/88 102/141/80 103/139/78 70/196/90
f 70/196/90 103/139/78 104/137/76 71/197/92
f 71/197/92 104/137/76 105/135/74 72/198/94
f 72/198/94 105/135/74 106/133/72 73/199/97
f 73/199/97 106/133/72 107/129/68 74/200/99
f 74/200/99 107/129/68 100/132/71 75/192/85
f 42/201/111 114/164/112 115/147/113
f 42/202/111 113/162/114 114/164/112
f 42/203/111 112/160/115 113/162/114
f 42/204/111 111/158/116 112/160/115
f 42/205/111 110/156/117 111/158/116
f 42/206/111 109/153/118 110/156/117
f 42/207/111 108/150/119 109/152/118
f 42/208/111 115/147/113 108/150/119
f 118/209/120 117/210/121 558/211/121 122/212/122
f 116/213/123 119/214/124 120/215/125
f 123/216/126 118/209/120 122/212/122
f 117/210/121 116/213/123 120/215/125 558/211/121
f 122/212/122 121/211/127 125/217/127 126/218/128
f 120/215/125 119/219/124 124/220/129
f 123/221/126 122/212/122 126/218/128
f 121/211/127 120/215/125 124/220/129 125/217/127
f 562/222/130 559/223/131 560/224/132 561/225/132
f 566/226/133 563/227/134 564/228/135 565/229/135
f 135/222/136 133/225/137 131/230/137 137/226/138
f 136/231/139 568/232/140 128/228/140 138/227/141
f 134/233/142 136/231/139 138/227/141 569/234/142
f 129/235/143 135/222/136 137/226/138 127/229/143
f 567/230/144 132/234/144 563/227/134 566/226/133
f 570/235/145 130/236/145 559/223/131 562/222/130
f 571/237/146 572/238/147 573/239/148 574/240/149
f 148/240/150 142/239/150 575/241/150 577/242/150
f 578/242/151 576/241/151 579/243/151 581/244/151
f 582/245/152 580/246/152 140/238/152 147/237/152
f 141/247/153 145/248/153 143/249/153 139/250/153
f 146/251/24 573/239/148 572/238/147 144/252/24
f 149/253/154 150/254/154 583/255/154 585/256/154
f 571/257/146 574/258/149 587/259/154 589/260/154
f 139/261/153 143/262/153 591/263/153 593/264/153
f 150/254/154 571/257/146 589/260/154 583/255/154
f 592/263/155 584/255/155 590/260/155 594/264/155
f 595/265/156 586/256/156 157/255/156 156/266/156
f 597/267/157 588/259/157 155/256/157 596/268/157
f 152/269/158 158/260/158 153/259/158 598/270/158
f 145/271/153 141/272/153 151/267/153 154/268/153
f 141/273/153 139/274/153 593/269/153 151/270/153
f 574/258/149 149/253/154 585/256/154 587/259/154
f 143/275/153 145/276/153 154/265/153 591/266/153
f 599/277/159 600/278/160 601/279/161 602/280/162
f 168/280/163 162/279/163 603/281/163 605/282/163
f 606/282/164 604/281/164 607/283/164 609/284/164
f 610/285/165 608/286/165 160/278/165 167/277/165
f 161/287/166 165/288/166 163/289/166 159/290/166
f 166/291/24 601/279/161 600/278/160 164/292/24
f 169/293/167 170/294/167 611/295/167 613/296/167
f 599/297/159 602/298/162 615/299/167 617/300/167
f 159/301/166 163/302/166 619/303/166 621/304/166
f 170/294/167 599/297/159 617/300/167 611/295/167
f 620/303/168 612/295/168 618/300/168 622/304/168
f 623/305/169 614/296/169 177/295/169 176/306/169
f 625/307/170 616/299/170 175/296/170 624/308/170
f 172/309/171 178/300/171 173/299/171 626/310/171
f 165/311/166 161/312/166 171/307/166 174/308/166
f 161/313/166 159/314/166 621/309/166 171/310/166
f 602/298/162 169/293/167 613/296/167 615/299/167
f 163/315/166 165/316/166 174/305/166 619/306/166
f 627/317/172 628/318/173 629/319/174 630/320/175
f 188/320/176 182/319/176 631/321/176 633/322/176
f 634/322/177 632/321/177 635/323/177 637/324/177
f 638/325/178 636/326/178 180/318/178 187/317/178
f 181/327/179 185/328/179 183/329/179 179/330/179
f 186/331/24 629/319/174 628/318/173 184/332/24
f 189/333/180 190/334/180 639/335/180 641/336/180
f 627/337/172 630/338/175 643/339/180 645/340/180
f 179/341/179 183/342/179 647/343/179 649/344/179
f 190/334/180 627/337/172 645/340/180 639/335/180
f 648/343/181 640/335/181 646/340/181 650/344/181
f 651/345/182 642/336/182 197/335/182 196/346/182
f 653/347/183 644/339/183 195/336/183 652/348/183
f 192/349/184 198/340/184 193/339/184 654/350/184
f 185/351/179 181/352/179 191/347/179 194/348/179
f 181/353/179 179/354/179 649/349/179 191/350/179
f 630/338/175 189/333/180 641/336/180 643/339/180
f 183/355/179 185/356/179 194/345/179 647/346/179
f 655/357/185 656/358/186 657/359/187 658/360/188
f 208/360/189 202/359/189 659/361/189 661/362/189
f 662/362/190 660/361/190 663/363/190 665/364/190
f 666/365/191 664/366/191 200/358/191 207/357/191
f 201/367/192 205/368/192 203/369/192 199/370/192
f 206/371/24 657/359/187 656/358/186 204/372/24
f 209/373/193 210/374/193 667/375/193 669/376/193
f 655/377/185 658/378/188 671/379/193 673/380/193
f 199/381/192 203/382/192 675/383/192 677/384/192
f 210/374/193 655/377/185 673/380/193 667/375/193
f 676/383/194 668/375/194 674/380/194 678/384/194
f 679/385/195 670/376/195 217/375/195 216/386/195
f 681/387/196 672/379/196 215/376/196 680/388/196
f 212/389/197 218/380/197 213/379/197 682/390/197
f 205/391/192 201/392/192 211/387/192 214/388/192
f 201/393/192 199/394/192 677/389/192 211/390/192
f 658/378/188 209/373/193 669/376/193 671/379/193
f 203/395/192 205/396/192 214/385/192 675/386/192
f 219/397/9 683/398/9 684/399/10 221/400/10
f 221/400/10 684/399/10 685/401/11 222/402/11
f 222/402/11 685/401/11 686/403/12 223/404/12
f 223/404/12 686/403/12 687/405/13 224/406/13
f 224/407/13 687/408/13 688/409/14 225/410/14
f 225/410/14 688/409/14 689/411/15 226/412/15
f 226/412/15 689/411/15 690/413/16 227/414/16
f 227/414/16 690/413/16 691/415/17 228/416/17
f 228/416/17 691/415/17 692/417/18 229/418/18
f 229/418/18 692/417/18 693/419/19 230/420/19
f 230/420/19 693/419/19 694/421/20 231/422/20
f 231/422/20 694/421/20 695/423/21 232/424/21
f 232/424/21 695/423/21 696/425/22 233/426/22
f 233/426/22 696/425/22 683/398/9 219/397/9
f 220/427/24 234/428/24 235/429/24
f 220/427/24 236/430/24 234/428/24
f 220/427/24 237/431/24 236/430/24
f 220/427/24 238/432/24 237/431/24
f 220/427/24 239/433/24 238/432/24
f 220/427/24 240/434/24 239/433/24
f 220/427/24 241/435/24 240/434/24
f 220/427/24 242/436/24 241/435/24
f 220/427/24 243/437/24 242/436/24
f 220/427/24 244/438/24 243/437/24
f 220/427/24 245/439/24 244/438/24
f 220/427/24 246/440/24 245/439/24
f 220/427/24 247/441/24 246/440/24
f 220/427/24 235/429/24 247/441/24
f 697/442/198 699/443/198 701/444/198 703/445/198
f 704/445/9 702/444/9 705/446/9 707/447/9
f 708/447/199 706/446/199 709/448/199 711/449/199
f 712/450/16 710/451/16 700/443/16 698/442/16
f 250/445/23 254/447/23 252/452/23 248/453/23
f 255/446/24 251/444/24 249/454/24 253/455/24
f 713/456/198 715/457/198 717/458/198 719/459/198
f 726/460/200 721/461/201 722/462/202 724/463/202
f 725/464/199 723/462/199 727/465/199 729/466/199
f 732/467/203 731/468/204 716/469/16 714/470/16
f 264/460/205 262/463/206 730/471/206 266/467/205
f 265/461/207 718/458/208 257/457/208 267/472/207
f 263/462/209 265/461/207 267/472/207 728/465/209
f 720/473/210 264/460/205 266/467/205 256/470/210
f 260/471/211 261/474/211 731/468/204 732/467/203
f 258/473/9 259/458/9 721/461/201 726/460/200
f 270/475/120 269/476/121 733/477/121 274/478/122
f 268/479/123 271/480/124 272/481/125
f 275/482/126 270/475/120 274/478/122
f 269/476/121 268/479/123 272/481/125 733/477/121
f 274/478/122 273/477/127 277/483/127 278/484/128
f 272/481/125 271/485/124 276/486/129
f 275/487/126 274/478/122 278/484/128
f 273/477/127 272/481/125 276/486/129 277/483/127
f 734/488/198 736/489/198 738/490/198 740/491/198
f 741/491/9 739/490/9 742/492/9 744/493/9
f 745/493/199 743/492/199 746/494/199 748/495/199
f 749/495/16 747/494/16 737/496/16 735/497/16
f 281/498/23 285/499/23 283/495/23 279/497/23
f 286/500/24 282/501/24 280/496/24 284/494/24
f 289/502/212 288/503/121 750/504/121 293/505/122
f 287/506/123 290/507/124 291/508/125
f 294/509/126 289/502/212 293/505/122
f 288/503/121 287/506/123 291/508/125 750/504/121
f 293/505/122 292/504/127 296/510/127 297/511/128
f 291/508/125 290/512/124 295/513/129
f 294/514/126 293/505/122 297/511/128
f 292/504/127 291/508/125 295/513/129 296/510/127
f 751/515/213 308/516/214 300/517/215 301/518/213
f 299/519/216 751/515/213 301/518/213 302/520/217
f 308/516/214 303/521/218 300/517/215
f 304/522/219 299/519/216 302/520/217
f 306/523/220 305/524/221 308/516/214 298/515/220
f 307/525/222 306/523/220 298/515/220 299/519/216
f 305/524/221 303/526/218 308/516/214
f 304/527/219 307/525/222 299/519/216
f 752/528/223 753/529/224 754/530/225 755/531/223
f 310/531/226 314/530/227 756/532/228 757/533/226
f 311/534/229 315/535/230 758/536/231 759/537/229
f 312/537/232 316/536/233 313/529/234 309/528/232
f 761/538/235 760/539/235 758/536/231 315/535/230
f 320/539/236 762/540/236 313/529/234 316/536/233
f 766/541/237 763/542/238 764/543/239 765/544/239
f 317/540/240 767/545/240 754/530/225 753/529/224
f 327/546/241 768/547/242 769/548/243 323/549/243
f 328/547/244 770/550/245 321/551/235 324/548/235
f 771/551/246 325/550/247 326/541/248 322/544/246
f 325/550/247 752/528/223 755/531/223 326/541/248
f 766/541/237 310/531/226 757/533/226 763/542/238
f 327/546/241 311/534/229 759/537/229 768/547/242
f 328/547/244 312/537/232 309/528/232 770/550/245
f 314/530/227 318/545/246 319/552/246 756/532/228
f 772/553/249 773/554/250 774/555/251 775/556/249
f 330/556/252 334/555/253 776/557/254 777/558/252
f 331/559/255 335/560/256 778/561/257 779/562/255
f 332/562/258 336/561/259 333/554/260 329/553/258
f 781/563/261 780/564/262 778/561/257 335/560/256
f 340/564/263 782/565/264 333/554/260 336/561/259
f 786/566/265 783/567/266 784/568/251 785/569/250
f 337/565/265 787/570/266 774/555/251 773/554/250
f 337/565/265 788/571/252 789/572/252 787/570/266
f 338/570/267 342/572/249 790/573/249 339/574/268
f 781/563/261 343/575/258 791/576/258 780/564/262
f 340/564/263 344/576/255 341/571/255 782/565/264
f 788/577/252 792/578/253 346/569/254 789/579/252
f 342/579/249 785/569/250 784/568/251 790/580/249
f 343/581/258 347/582/259 793/583/260 791/584/258
f 344/584/255 348/583/256 345/578/257 341/577/255
f 351/585/263 794/586/264 793/583/260 347/582/259
f 352/586/261 795/587/262 345/578/257 348/583/256
f 792/578/253 349/587/267 350/566/268 346/569/254
f 349/587/267 772/553/249 775/556/249 350/566/268
f 786/566/265 330/556/252 777/558/252 783/567/266
f 351/585/263 331/559/255 779/562/255 794/586/264
f 352/586/261 332/562/258 329/553/258 795/587/262
f 334/555/253 338/570/267 339/574/268 776/557/254
f 796/588/223 797/589/224 798/590/225 799/591/223
f 354/591/226 358/590/227 800/592/228 801/593/226
f 355/594/229 359/595/230 802/596/231 803/597/229
f 356/597/232 360/596/233 357/589/234 353/588/232
f 805/598/244 804/599/245 802/596/231 359/595/230
f 364/599/241 806/600/242 357/589/234 360/596/233
f 810/601/237 807/602/238 808/603/225 809/604/224
f 361/600/237 811/605/238 798/590/225 797/589/224
f 361/600/237 812/606/226 813/607/226 811/605/238
f 362/605/247 366/607/223 814/608/223 363/609/248
f 805/598/244 367/610/232 815/611/232 804/599/245
f 364/599/241 368/611/229 365/606/229 806/600/242
f 812/612/226 816/613/227 370/604/228 813/614/226
f 366/614/223 809/604/224 808/603/225 814/615/223
f 367/616/232 371/617/233 817/618/234 815/619/232
f 368/619/229 372/618/230 369/613/231 365/612/229
f 375/620/241 818/621/242 817/618/234 371/617/233
f 376/621/244 819/622/245 369/613/231 372/618/230
f 816/613/227 373/622/247 374/601/248 370/604/228
f 373/622/247 796/588/223 799/591/223 374/601/248
f 810/601/237 354/591/226 801/593/226 807/602/238
f 375/620/241 355/594/229 803/597/229 818/621/242
f 376/621/244 356/597/232 353/588/232 819/622/245
f 358/590/227 362/605/247 363/609/248 800/592/228
f 377/623/269 392/624/270 416/625/271 393/626/272
f 380/627/273 401/628/274 820/629/275 821/630/276
f 393/626/272 380/627/273 821/630/276 822/631/277
f 377/623/269 395/632/278 418/633/279 392/624/270
f 378/634/280 396/635/281 418/633/279 395/632/278
f 377/623/269 393/626/272 822/631/277 823/636/282
f 395/632/278 377/623/269 823/636/282 824/637/283
f 378/634/280 398/638/284 422/639/285 396/635/281
f 379/640/286 399/641/287 422/639/285 398/638/284
f 378/634/280 395/632/278 824/637/283 825/642/288
f 398/638/284 378/634/280 825/642/288 826/643/289
f 379/640/286 401/628/274 420/644/290 399/641/287
f 380/627/273 402/645/291 420/644/290 401/628/274
f 379/640/286 398/638/284 826/643/289 827/646/292
f 401/628/274 379/640/286 827/646/292 820/629/275
f 380/627/273 393/626/272 416/625/271 402/645/291
f 381/647/293 402/645/291 416/625/271 415/648/294
f 828/649/295 829/650/296 405/651/297 381/647/293
f 830/652/23 831/653/23 5/654/23 863/655/23
f 381/647/293 405/651/297 420/644/290 402/645/291
f 835/656/298 832/657/298 833/658/299 834/659/299
f 835/656/298 836/660/300 837/661/300 832/662/298
f 841/663/301 838/664/301 839/665/302 840/666/302
f 841/663/301 842/667/303 843/668/303 838/669/301
f 382/670/304 399/641/287 420/644/290 405/651/297
f 844/671/305 406/672/306 404/673/307 382/670/304
f 828/674/295 381/647/293 415/648/294 845/675/308
f 382/670/304 404/673/307 422/639/285 399/641/287
f 383/676/309 396/635/281 422/639/285 404/673/307
f 385/677/310 846/678/311 414/679/312 383/676/309
f 844/680/305 382/670/304 405/651/297 829/681/296
f 383/676/309 414/679/312 418/633/279 396/635/281
f 501/682/1 504/683/1 428/10/5 508/9/5
f 384/16/8 868/15/8 503/3/2 502/2/2
f 2/684/23 386/674/23 407/675/23 4/685/23
f 830/677/23 863/686/23 3/687/23 409/678/23
f 864/688/23 388/680/23 408/681/23 6/689/23
f 847/690/23 1/691/23 4/692/23 407/693/23
f 9/694/313 12/695/314 410/665/314 426/664/313
f 391/696/23 394/659/23 848/697/315
f 869/698/316 9/699/313 426/669/313 411/668/316
f 391/696/23 427/663/317 417/666/23
f 2/700/23 6/701/23 408/650/23 386/649/23
f 847/702/23 409/703/23 3/704/23 1/705/23
f 385/652/310 383/676/309 404/673/307 406/653/306
f 390/706/318 387/690/319 845/693/308 415/648/294
f 391/696/23 848/697/315 397/667/23
f 403/697/320 849/707/320 843/708/303 842/667/303
f 10/709/321 866/710/322 412/711/322 850/712/321
f 864/713/23 5/714/23 831/672/23 388/671/23
f 403/697/320 834/659/299 833/715/299 849/716/320
f 389/8/4 506/7/4 429/14/7 862/13/7
f 851/717/323 421/712/323 837/711/300 836/660/300
f 851/717/323 840/666/302 839/718/302 421/719/323
f 507/12/6 867/11/6 505/6/3 865/5/3
f 11/720/324 8/721/325 400/716/325 413/715/324
f 391/696/23 417/666/23 423/717/326
f 390/706/318 392/624/270 418/633/279 414/679/312
f 390/706/318 415/648/294 416/625/271 392/624/270
f 391/696/23 423/717/326 419/660/23
f 391/696/23 419/660/23 425/656/327
f 390/706/318 414/679/312 846/703/311 387/702/319
f 8/722/325 869/723/316 411/708/316 400/707/325
f 391/696/23 425/656/327 394/659/23
f 866/724/322 7/725/328 424/662/328 412/661/322
f 7/726/328 11/727/324 413/658/324 424/657/328
f 12/728/314 10/729/321 850/719/321 410/718/314
f 391/696/23 397/667/23 427/663/317
f 430/636/329 431/631/330 438/730/24
f 430/636/329 438/730/24 432/637/331
f 433/642/332 432/637/331 438/730/24
f 433/642/332 438/730/24 434/643/333
f 435/646/334 434/643/333 438/730/24
f 435/646/334 438/730/24 436/629/335
f 437/630/336 436/629/335 438/730/24
f 437/630/336 438/730/24 431/631/330
f 852/731/337 853/732/338 450/733/339 444/734/340
f 440/735/341 446/736/342 445/732/343 439/731/344
f 441/737/345 447/738/346 446/736/342 440/735/341
f 854/739/347 855/740/348 447/738/346 441/737/345
f 443/741/349 449/742/350 448/743/351 442/744/352
f 444/734/340 450/733/339 449/742/350 443/741/349
f 853/732/338 856/745/353 456/746/354 450/733/339
f 446/736/342 452/747/355 451/745/356 445/732/343
f 447/738/346 453/748/357 452/747/355 446/736/342
f 855/740/348 857/749/358 453/748/357 447/738/346
f 449/742/350 455/750/359 454/751/360 448/743/351
f 450/733/339 456/746/354 455/750/359 449/742/350
f 856/745/353 858/752/361 462/753/362 456/746/354
f 452/747/355 458/754/363 457/752/364 451/745/356
f 453/748/357 459/755/365 458/754/363 452/747/355
f 857/749/358 859/756/366 459/755/365 453/748/357
f 455/750/359 461/757/367 460/758/368 454/751/360
f 456/746/354 462/753/362 461/757/367 455/750/359
f 858/752/361 860/759/369 468/760/370 462/753/362
f 458/754/363 464/761/371 463/759/372 457/752/364
f 459/755/365 465/762/373 464/761/371 458/754/363
f 859/756/366 861/763/374 465/762/373 459/755/365
f 461/757/367 467/764/375 466/765/376 460/758/368
f 462/753/362 468/760/370 467/764/375 461/757/367
f 873/766/377 870/767/377 871/768/377 872/769/377
f 876/770/378 877/771/378 878/772/378 879/773/378
f 875/774/379 874/775/379 882/776/379 883/777/379
f 885/778/380 884/779/380 881/780/380 880/781/380
f 485/782/381 471/773/381 479/772/381 486/783/381
f 487/784/382 484/771/382 476/770/382 488/785/382
f 493/786/383 494/787/383 469/781/383 478/780/383
f 496/788/384 495/789/384 483/779/384 475/778/384
f 482/775/383 474/774/383 498/790/383 497/791/383
f 472/777/384 480/776/384 499/792/384 500/793/384
f 477/794/382 491/795/382 492/796/382 470/797/382
f 473/767/381 489/798/381 490/799/381 481/768/381
