# Blender 5.0.1
# www.blender.org
mtllib pavement.mtl
o Plane
v -1.529013 0.000000 2.500000
v -2.501815 0.000000 1.527904
v -1.745482 0.000000 2.475627
v -1.951096 0.000000 2.403732
v -2.135545 0.000000 2.287920
v -2.289580 0.000000 2.133996
v -2.405477 0.000000 1.949681
v -2.477425 0.000000 1.744216
v 2.501815 0.000000 1.527904
v 1.529013 0.000000 2.500000
v 2.477425 0.000000 1.744216
v 2.405477 0.000000 1.949681
v 2.289580 0.000000 2.133996
v 2.135545 0.000000 2.287920
v 1.951096 0.000000 2.403732
v 1.745482 0.000000 2.475627
v -1.529013 0.000000 -2.500000
v -2.501815 0.000000 -1.527904
v -1.745482 0.000000 -2.475627
v -1.951096 0.000000 -2.403732
v -2.135545 0.000000 -2.287920
v -2.289580 0.000000 -2.133996
v -2.405477 0.000000 -1.949681
v -2.477425 0.000000 -1.744216
v 1.529013 0.000000 -2.500000
v 2.501815 0.000000 -1.527904
v 1.745482 0.000000 -2.475627
v 1.951096 0.000000 -2.403732
v 2.135545 0.000000 -2.287920
v 2.289580 0.000000 -2.133996
v 2.405477 0.000000 -1.949681
v 2.477425 0.000000 -1.744216
v -1.529013 -0.060000 2.500000
v -2.501815 -0.060000 1.527904
v -1.745482 -0.060000 2.475627
v -1.951096 -0.060000 2.403732
v -2.135545 -0.060000 2.287920
v -2.289580 -0.060000 2.133996
v -2.405477 -0.060000 1.949681
v -2.477425 -0.060000 1.744216
v 2.501815 -0.060000 1.527904
v 1.529013 -0.060000 2.500000
v 2.477425 -0.060000 1.744216
v 2.405477 -0.060000 1.949681
v 2.289580 -0.060000 2.133996
v 2.135545 -0.060000 2.287920
v 1.951096 -0.060000 2.403732
v 1.745482 -0.060000 2.475627
v -1.529013 -0.060000 -2.500000
v -2.501815 -0.060000 -1.527904
v -1.745482 -0.060000 -2.475627
v -1.951096 -0.060000 -2.403732
v -2.135545 -0.060000 -2.287920
v -2.289580 -0.060000 -2.133996
v -2.405477 -0.060000 -1.949681
v -2.477425 -0.060000 -1.744216
v 1.529013 -0.060000 -2.500000
v 2.501815 -0.060000 -1.527904
v 1.745482 -0.060000 -2.475627
v 1.951096 -0.060000 -2.403732
v 2.135545 -0.060000 -2.287920
v 2.289580 -0.060000 -2.133996
v 2.405477 -0.060000 -1.949681
v 2.477425 -0.060000 -1.744216
vn -0.0000 1.0000 -0.0000
vn -0.0000 -1.0000 -0.0000
vn -1.0000 -0.0000 -0.0000
vn -0.9937 -0.0000 0.1120
vn -0.9438 -0.0000 0.3305
vn -0.8466 -0.0000 0.5323
vn -0.7068 -0.0000 0.7074
vn -0.5318 -0.0000 0.8469
vn -0.3301 -0.0000 0.9440
vn -0.1119 -0.0000 0.9937
vn -0.0000 -0.0000 1.0000
vn 0.1119 -0.0000 0.9937
vn 0.3301 -0.0000 0.9440
vn 0.5318 -0.0000 0.8469
vn 0.7069 -0.0000 0.7074
vn 0.8466 -0.0000 0.5323
vn 0.9438 -0.0000 0.3305
vn 0.9937 -0.0000 0.1120
vn 1.0000 -0.0000 -0.0000
vn 0.9937 -0.0000 -0.1120
vn 0.9438 -0.0000 -0.3305
vn 0.8465 -0.0000 -0.5323
vn 0.7068 -0.0000 -0.7074
vn 0.5318 -0.0000 -0.8469
vn 0.3301 -0.0000 -0.9440
vn 0.1119 -0.0000 -0.9937
vn -0.0000 -0.0000 -1.0000
vn -0.1119 -0.0000 -0.9937
vn -0.3301 -0.0000 -0.9440
vn -0.5318 -0.0000 -0.8469
vn -0.7069 -0.0000 -0.7074
vn -0.8466 -0.0000 -0.5323
vn -0.9438 -0.0000 -0.3305
vn -0.9937 -0.0000 -0.1120
vn -0.7069 -0.0000 0.7074
vn 0.7068 -0.0000 0.7074
vn 0.8465 -0.0000 0.5323
vn 0.8466 -0.0000 -0.5323
vn 0.7069 -0.0000 -0.7074
vn -0.7068 -0.0000 -0.7074
vt 1.535864 -0.133081
vt 1.133081 1.535864
vt -0.535864 1.133081
vt 1.525766 1.222709
vt 1.222709 -0.525766
vt -0.525766 -0.222709
vt -0.535864 -0.133081
vt -0.495976 -0.307842
vt -0.447990 -0.384212
vt -0.384212 -0.447990
vt -0.307842 -0.495976
vt -0.222709 -0.525766
vt -0.133081 -0.535864
vt 1.133081 -0.535864
vt 1.307842 -0.495976
vt 1.384212 -0.447990
vt 1.447990 -0.384212
vt 1.495976 -0.307842
vt 1.525766 -0.222709
vt 1.535864 1.133081
vt 1.495976 1.307842
vt 1.447990 1.384212
vt 1.384212 1.447990
vt 1.307842 1.495976
vt 1.222709 1.525766
vt -0.133081 1.535864
vt -0.222709 1.525766
vt -0.307842 1.495976
vt -0.384212 1.447990
vt -0.447990 1.384212
vt -0.495976 1.307842
vt -0.525766 1.222709
s 0
usemtl Material
f 9/1/1 25/2/1 18/3/1
f 64/4/2 48/5/2 40/6/2
f 18/3/3 34/7/3 2/7/3
f 2/7/4 40/6/4 8/6/4
f 8/6/5 39/8/5 7/8/5
f 7/8/6 38/9/6 6/9/6
f 6/9/7 37/10/7 5/10/7
f 5/10/8 36/11/8 4/11/8
f 4/11/9 35/12/9 3/12/9
f 3/12/10 33/13/10 1/13/10
f 1/13/11 42/14/11 10/14/11
f 10/14/12 48/5/12 16/5/12
f 16/5/13 47/15/13 15/15/13
f 15/15/14 46/16/14 14/16/14
f 14/16/15 45/17/15 13/17/15
f 13/17/16 44/18/16 12/18/16
f 12/18/17 43/19/17 11/19/17
f 11/19/18 41/1/18 9/1/18
f 9/1/19 58/20/19 26/20/19
f 26/20/20 64/4/20 32/4/20
f 32/4/21 63/21/21 31/21/21
f 31/21/22 62/22/22 30/22/22
f 30/22/23 61/23/23 29/23/23
f 29/23/24 60/24/24 28/24/24
f 28/24/25 59/25/25 27/25/25
f 27/25/26 57/2/26 25/2/26
f 25/2/27 49/26/27 17/26/27
f 17/26/28 51/27/28 19/27/28
f 19/27/29 52/28/29 20/28/29
f 20/28/30 53/29/30 21/29/30
f 21/29/31 54/30/31 22/30/31
f 22/30/32 55/31/32 23/31/32
f 23/31/33 56/32/33 24/32/33
f 24/32/34 50/3/34 18/3/34
f 18/3/1 2/7/1 8/6/1
f 8/6/1 7/8/1 6/9/1
f 6/9/1 5/10/1 4/11/1
f 4/11/1 3/12/1 1/13/1
f 1/13/1 10/14/1 16/5/1
f 16/5/1 15/15/1 14/16/1
f 14/16/1 13/17/1 12/18/1
f 12/18/1 11/19/1 9/1/1
f 9/1/1 26/20/1 32/4/1
f 32/4/1 31/21/1 30/22/1
f 30/22/1 29/23/1 28/24/1
f 28/24/1 27/25/1 25/2/1
f 25/2/1 17/26/1 19/27/1
f 19/27/1 20/28/1 21/29/1
f 21/29/1 22/30/1 23/31/1
f 23/31/1 24/32/1 18/3/1
f 18/3/1 8/6/1 6/9/1
f 6/9/1 4/11/1 1/13/1
f 1/13/1 16/5/1 14/16/1
f 14/16/1 12/18/1 9/1/1
f 9/1/1 32/4/1 30/22/1
f 30/22/1 28/24/1 25/2/1
f 25/2/1 19/27/1 21/29/1
f 21/29/1 23/31/1 18/3/1
f 18/3/1 6/9/1 1/13/1
f 1/13/1 14/16/1 9/1/1
f 9/1/1 30/22/1 25/2/1
f 25/2/1 21/29/1 18/3/1
f 18/3/1 1/13/1 9/1/1
f 40/6/2 34/7/2 50/3/2
f 50/3/2 56/32/2 55/31/2
f 55/31/2 54/30/2 53/29/2
f 53/29/2 52/28/2 51/27/2
f 51/27/2 49/26/2 57/2/2
f 57/2/2 59/25/2 60/24/2
f 60/24/2 61/23/2 62/22/2
f 62/22/2 63/21/2 64/4/2
f 64/4/2 58/20/2 41/1/2
f 41/1/2 43/19/2 44/18/2
f 44/18/2 45/17/2 46/16/2
f 46/16/2 47/15/2 48/5/2
f 48/5/2 42/14/2 33/13/2
f 33/13/2 35/12/2 36/11/2
f 36/11/2 37/10/2 38/9/2
f 38/9/2 39/8/2 40/6/2
f 40/6/2 50/3/2 55/31/2
f 55/31/2 53/29/2 51/27/2
f 51/27/2 57/2/2 60/24/2
f 60/24/2 62/22/2 64/4/2
f 64/4/2 41/1/2 44/18/2
f 44/18/2 46/16/2 48/5/2
f 48/5/2 33/13/2 36/11/2
f 36/11/2 38/9/2 40/6/2
f 40/6/2 55/31/2 51/27/2
f 51/27/2 60/24/2 64/4/2
f 64/4/2 44/18/2 48/5/2
f 48/5/2 36/11/2 40/6/2
f 40/6/2 51/27/2 64/4/2
f 18/3/3 50/3/3 34/7/3
f 2/7/4 34/7/4 40/6/4
f 8/6/5 40/6/5 39/8/5
f 7/8/6 39/8/6 38/9/6
f 6/9/35 38/9/35 37/10/35
f 5/10/8 37/10/8 36/11/8
f 4/11/9 36/11/9 35/12/9
f 3/12/10 35/12/10 33/13/10
f 1/13/11 33/13/11 42/14/11
f 10/14/12 42/14/12 48/5/12
f 16/5/13 48/5/13 47/15/13
f 15/15/14 47/15/14 46/16/14
f 14/16/36 46/16/36 45/17/36
f 13/17/37 45/17/37 44/18/37
f 12/18/17 44/18/17 43/19/17
f 11/19/18 43/19/18 41/1/18
f 9/1/19 41/1/19 58/20/19
f 26/20/20 58/20/20 64/4/20
f 32/4/21 64/4/21 63/21/21
f 31/21/38 63/21/38 62/22/38
f 30/22/39 62/22/39 61/23/39
f 29/23/24 61/23/24 60/24/24
f 28/24/25 60/24/25 59/25/25
f 27/25/26 59/25/26 57/2/26
f 25/2/27 57/2/27 49/26/27
f 17/26/28 49/26/28 51/27/28
f 19/27/29 51/27/29 52/28/29
f 20/28/30 52/28/30 53/29/30
f 21/29/40 53/29/40 54/30/40
f 22/30/32 54/30/32 55/31/32
f 23/31/33 55/31/33 56/32/33
f 24/32/34 56/32/34 50/3/34
